<?xml version="1.0" encoding="UTF-8"?>
<svg width="137px" height="137px" viewBox="0 0 137 137" version="1.1" xmlns="http://www.w3.org/2000/svg" xmlns:xlink="http://www.w3.org/1999/xlink">
    <!-- Generator: sketchtool 56.3 (101010) - https://sketch.com -->
    <title>37E4E9A4-36FE-4E7B-A173-14AFC20E2A15</title>
    <desc>Created with sketchtool.</desc>
    <g id="Prototype-2" stroke="none" stroke-width="1" fill="none" fill-rule="evenodd">
        <g id="1.2-Treatment-Timeline---Active-Nav" transform="translate(-632.000000, -267.000000)" stroke-width="2">
            <g id="BANNER" transform="translate(0.000000, 138.000000)">
                <g id="Group" transform="translate(633.000000, 130.000000)">
                    <g id="ICON">
                        <path d="M67.5,135 C30.2206816,135 0,104.779318 0,67.5 C0,30.2206816 30.2206816,0 67.5,0 C104.779318,0 135,30.2206816 135,67.5 C135,104.779318 104.779318,135 67.5,135 Z" id="Fill-1" stroke="#EA0A8B" fill="#FFFFFF"></path>
                        <g id="Group-15" transform="translate(15.140187, 50.467290)" stroke="#512D6E" stroke-linecap="round" stroke-linejoin="round">
                            <path d="M0,17.0327103 L7.57009346,17.0327103" id="Stroke-1"></path>
                            <path d="M69.3925234,16.4018692 C69.3925234,25.4593239 62.048109,32.8037383 52.9906542,32.8037383 C43.9316848,32.8037383 36.588785,25.4593239 36.588785,16.4018692 C36.588785,7.3444144 43.9316848,0 52.9906542,0 C62.048109,0 69.3925234,7.3444144 69.3925234,16.4018692 Z" id="Stroke-3"></path>
                            <path d="M27.7570093,17.0327103 C27.7570093,22.2581258 23.519808,26.4953271 18.2943925,26.4953271 C13.068977,26.4953271 8.8317757,22.2581258 8.8317757,17.0327103 C8.8317757,11.8072948 13.068977,7.57009346 18.2943925,7.57009346 C23.519808,7.57009346 27.7570093,11.8072948 27.7570093,17.0327103 Z" id="Stroke-5"></path>
                            <path d="M97.1495327,17.0327103 C97.1495327,22.2581258 92.9126792,26.4953271 87.6861391,26.4953271 C82.4611525,26.4953271 78.2242991,22.2581258 78.2242991,17.0327103 C78.2242991,11.8072948 82.4611525,7.57009346 87.6861391,7.57009346 C92.9126792,7.57009346 97.1495327,11.8072948 97.1495327,17.0327103 Z" id="Stroke-7"></path>
                            <path d="M29.0186916,17.0327103 L35.3271028,17.0327103" id="Stroke-9"></path>
                            <path d="M70.6542056,17.0327103 L78.2242991,17.0327103" id="Stroke-11"></path>
                            <path d="M98.411215,17.0327103 L105.981308,17.0327103" id="Stroke-13"></path>
                        </g>
                    </g>
                </g>
            </g>
        </g>
    </g>
</svg>