<svg xmlns="http://www.w3.org/2000/svg" xmlns:xlink="http://www.w3.org/1999/xlink" width="142" height="64" viewBox="0 0 142 64">
    <defs>
        <path id="a" d="M.306.717h13.297v17.846H.306z"/>
        <path id="c" d="M0 64h141.407V.717H0z"/>
    </defs>
    <g fill="none" fill-rule="evenodd">
        <path fill="#512D6E" d="M6.752 22L0 40h2.49l1.944-5.392h7.034L13.34 40H16L9.493 22H6.752zm1.267 2.671l2.76 7.953H5.15L8.02 24.67z"/>
        <g>
            <path fill="#512D6E" d="M30.802 23.068c1.236 1.19 1.922 2.543 2.058 4.058h-2.362c-.263-1.15-.788-2.062-1.573-2.734-.785-.672-1.888-1.009-3.306-1.009-1.731 0-3.127.619-4.193 1.855-1.063 1.236-1.595 3.131-1.595 5.684 0 2.092.48 3.787 1.44 5.088.961 1.301 2.396 1.951 4.3 1.951 1.756 0 3.092-.684 4.009-2.052.486-.722.849-1.669 1.088-2.843h2.363c-.21 1.88-.9 3.454-2.07 4.725-1.405 1.531-3.299 2.296-5.683 2.296-2.054 0-3.779-.628-5.176-1.884-1.837-1.66-2.755-4.226-2.755-7.695 0-2.633.69-4.793 2.07-6.479 1.491-1.83 3.55-2.747 6.174-2.747 2.238 0 3.976.596 5.211 1.786M48.812 23.068c1.236 1.19 1.922 2.543 2.058 4.058h-2.362c-.263-1.15-.787-2.062-1.573-2.734-.785-.672-1.887-1.009-3.306-1.009-1.73 0-3.127.619-4.192 1.855-1.064 1.236-1.597 3.131-1.597 5.684 0 2.092.481 3.787 1.442 5.088.96 1.301 2.394 1.951 4.3 1.951 1.755 0 3.09-.684 4.008-2.052.486-.722.848-1.669 1.088-2.843h2.363c-.209 1.88-.9 3.454-2.07 4.725-1.405 1.531-3.298 2.296-5.682 2.296-2.055 0-3.78-.628-5.176-1.884-1.838-1.66-2.757-4.226-2.757-7.695 0-2.633.69-4.793 2.07-6.479 1.493-1.83 3.551-2.747 6.175-2.747 2.238 0 3.975.596 5.21 1.786M54.402 21.768h12.98v2.187H56.764v5.418h9.815v2.065h-9.815v6.05h10.801v2.126H54.402zM72.387 33.855c.055 1.013.286 1.835.692 2.467.775 1.182 2.139 1.773 4.095 1.773.875 0 1.673-.13 2.392-.389 1.393-.502 2.087-1.4 2.087-2.696 0-.973-.294-1.664-.883-2.078-.599-.405-1.534-.756-2.809-1.056l-2.347-.548c-1.533-.356-2.618-.748-3.255-1.177-1.102-.745-1.652-1.86-1.652-3.341 0-1.604.54-2.92 1.623-3.949 1.082-1.028 2.615-1.542 4.598-1.542 1.825 0 3.375.451 4.651 1.354 1.275.904 1.914 2.347 1.914 4.33h-2.277c-.117-.954-.366-1.688-.748-2.198-.707-.93-1.91-1.397-3.607-1.397-1.37 0-2.355.3-2.954.9-.6.599-.899 1.295-.899 2.088 0 .875.355 1.515 1.063 1.92.464.259 1.514.583 3.15.972l2.43.57c1.172.276 2.077.653 2.714 1.13 1.1.834 1.651 2.045 1.651 3.632 0 1.977-.703 3.39-2.107 4.24-1.406.851-3.039 1.276-4.899 1.276-2.17 0-3.868-.567-5.095-1.7-1.227-1.126-1.83-2.653-1.805-4.58h2.277zM89.021 33.855c.055 1.013.285 1.835.692 2.467.774 1.182 2.14 1.773 4.094 1.773.875 0 1.673-.13 2.393-.389 1.392-.502 2.088-1.4 2.088-2.696 0-.973-.295-1.664-.885-2.078-.597-.405-1.534-.756-2.808-1.056l-2.346-.548c-1.534-.356-2.62-.748-3.257-1.177-1.1-.745-1.651-1.86-1.651-3.341 0-1.604.541-2.92 1.623-3.949 1.083-1.028 2.615-1.542 4.598-1.542 1.825 0 3.375.451 4.65 1.354 1.277.904 1.915 2.347 1.915 4.33H97.85c-.117-.954-.367-1.688-.747-2.198-.709-.93-1.911-1.397-3.608-1.397-1.37 0-2.355.3-2.955.9-.598.599-.898 1.295-.898 2.088 0 .875.354 1.515 1.062 1.92.464.259 1.515.583 3.15.972l2.43.57c1.173.276 2.077.653 2.715 1.13 1.1.834 1.652 2.045 1.652 3.632 0 1.977-.703 3.39-2.109 4.24-1.405.851-3.038 1.276-4.898 1.276-2.17 0-3.868-.567-5.094-1.7-1.229-1.126-1.83-2.653-1.806-4.58h2.277z"/>
            <g transform="translate(1.442)">
                <mask id="b" fill="#fff">
                    <use xlink:href="#a"/>
                </mask>
                <path fill="#512D6E" d="M9.705 3.171c-.532-.25-1.261-.376-2.188-.376H2.729v6.183h4.788c1.08 0 1.957-.231 2.63-.693.672-.461 1.009-1.275 1.009-2.441 0-1.312-.484-2.203-1.451-2.673zM.306.717H8.31c1.583 0 2.86.448 3.834 1.342.973.896 1.46 2.153 1.46 3.773 0 1.393-.435 2.605-1.303 3.638-.869 1.032-2.197 1.55-3.987 1.55H2.73v7.543H.306V.717z" mask="url(#b)"/>
            </g>
            <path fill="#512D6E" d="M25.55 11.25l-2.754-7.885-2.862 7.885h5.616zM21.532.717h2.735l6.493 17.846h-2.655l-1.867-5.345H19.22l-1.94 5.345h-2.484L21.532.717zM44.112.717v2.126h-6.028v15.72h-2.448V2.843H29.61V.717z"/>
            <mask id="d" fill="#fff">
                <use xlink:href="#c"/>
            </mask>
            <path fill="#512D6E" d="M46.888 18.563h2.448V.717h-2.448zM53.5.717h12.981v2.187H55.863v5.418h9.815v2.065h-9.815v6.05h10.801v2.126H53.501zM69.903.717h2.855l8.92 14.419V.717h2.314v17.846H81.27L72.216 4.162v14.4h-2.313zM100.918.717v2.126h-6.027v15.72h-2.448V2.843h-6.028V.717z" mask="url(#d)"/>
            <path fill="#EA0A8B" d="M14.798 43.801h5.935v19.691H16.89V50.173c0-.382.005-.919.014-1.61.009-.69.013-1.222.013-1.596l-3.74 16.525H9.168L5.455 46.967c0 .374.004.907.013 1.597s.013 1.227.013 1.61v13.318H1.64v-19.69h6l3.594 15.482 3.565-15.483zM30.196 56.051h5.055l-2.493-7.747-2.562 7.747zm.272-12.25h4.667l6.982 19.692h-4.471l-1.304-4.048h-7.268l-1.337 4.048h-4.314L30.468 43.8zM44.835 43.801h4.324l7.835 13.73v-13.73h3.843v19.691h-4.123l-8.035-13.971v13.971h-3.844zM70.354 56.051h5.055l-2.493-7.747-2.562 7.747zm.272-12.25h4.666l6.983 19.692h-4.472L76.5 59.445h-7.269l-1.337 4.048H63.58L70.626 43.8zM98.33 49.947c-.313-1.345-1.076-2.285-2.29-2.82-.678-.293-1.433-.44-2.262-.44-1.59 0-2.896.597-3.918 1.793-1.022 1.196-1.533 2.993-1.533 5.393 0 2.418.554 4.129 1.66 5.134 1.108 1.004 2.366 1.506 3.777 1.506 1.383 0 2.517-.395 3.4-1.188.884-.792 1.429-1.83 1.634-3.114h-4.566v-3.285h8.222v10.566h-2.731l-.416-2.458c-.794.93-1.508 1.587-2.142 1.968-1.09.665-2.428.998-4.017.998-2.615 0-4.758-.904-6.427-2.711-1.742-1.815-2.612-4.298-2.612-7.448 0-3.187.88-5.741 2.639-7.663 1.758-1.923 4.084-2.885 6.976-2.885 2.508 0 4.523.635 6.045 1.905 1.522 1.268 2.395 2.85 2.618 4.749H98.33zM121.261 47.288h-10.444v4.18h9.587v3.42h-9.587v5.064h10.926v3.54h-14.957V43.801h14.475zM129.355 47.221v5.29h4.439c.881 0 1.543-.107 1.983-.32.78-.374 1.17-1.114 1.17-2.218 0-1.193-.377-1.995-1.132-2.404-.423-.232-1.06-.348-1.908-.348h-4.552zm8.524-2.912c.727.312 1.343.77 1.848 1.375.418.5.748 1.052.993 1.657.243.607.365 1.296.365 2.071 0 .935-.237 1.855-.71 2.759-.473.904-1.254 1.542-2.343 1.917.911.365 1.555.884 1.935 1.556.38.672.569 1.699.569 3.08v1.322c0 .9.037 1.51.109 1.83.108.507.362.88.762 1.122v.494h-4.554a13.719 13.719 0 0 1-.267-1.055 9.682 9.682 0 0 1-.174-1.697l-.027-1.83c-.017-1.255-.234-2.092-.652-2.51-.418-.42-1.201-.629-2.35-.629h-4.028v7.721h-4.031v-19.69h9.441c1.35.026 2.387.195 3.114.507z" mask="url(#d)"/>
            <path fill="#512D6E" d="M130.834 19.979h-2.388c.015.18.023.363.023.548 0 3.438-2.804 6.236-6.25 6.236-3.448-.001-6.253-2.798-6.253-6.236 0-.185.009-.368.025-.548H113.41a8.604 8.604 0 0 0-.017.548c0 4.853 3.96 8.803 8.826 8.803 4.866 0 8.825-3.949 8.825-8.803 0-.185-.006-.366-.018-.548h-.192z" mask="url(#d)"/>
            <path fill="#512D6E" d="M135.843 19.98v2.2l-3.102.527-.223.775a10.67 10.67 0 0 1-.946 2.266l-.398.709 1.805 2.542-2.287 2.28-2.551-1.804-.709.394c-.727.405-1.499.722-2.294.947l-.783.22-.52 3.043H120.6l-.52-3.043-.783-.22a10.77 10.77 0 0 1-2.325-.963l-.71-.398-2.496 1.77-2.288-2.285 1.774-2.494-.396-.707a10.6 10.6 0 0 1-.963-2.342l-.216-.787-3.005-.51v-2.12h-2.27c-.102 0-.205-.012-.304-.035v2.43a2.27 2.27 0 0 0 1.871 2.21l1.69.287c.162.471.353.935.57 1.385l-1.012 1.424c-.623.88-.517 2.119.247 2.88l2.677 2.674a2.28 2.28 0 0 0 2.892.24l1.415-1.002c.444.215.9.403 1.363.566l.297 1.744c.18 1.046 1.152 1.864 2.215 1.864h3.786a2.268 2.268 0 0 0 2.216-1.864l.298-1.744c.452-.159.896-.341 1.33-.55l1.471 1.043a2.272 2.272 0 0 0 2.892-.243l2.68-2.671a2.261 2.261 0 0 0 .242-2.88l-1.04-1.465c.203-.422.385-.856.542-1.3l1.807-.307a2.267 2.267 0 0 0 1.869-2.212v-2.509a1.337 1.337 0 0 1-.304.035h-2.27z" mask="url(#d)"/>
            <path fill="#EA0A8B" d="M134.676 14.246a9.526 9.526 0 0 1-.784-.582c-.127-.104-.26-.2-.4-.286a.308.308 0 0 0-.348.02c-.54.422-1.091.713-1.645.877-.17.05-.337.088-.505.115a2.26 2.26 0 0 1 .62.717c.155.273.273.591.363.997.13.59.198 1.364.227 2.459.004.121-.009.242-.036.36h5.945a.297.297 0 0 0 .302-.273c.002-.01.002-.018.002-.027-.12-4.384-.946-2.517-3.741-4.377m-21.535.063c-.595-.156-1.19-.458-1.77-.911a.307.307 0 0 0-.347-.02c-.14.086-.273.182-.4.286-.253.207-.491.384-.716.537-2.814 1.912-3.668.05-3.805 4.26l-.004.162v.01c0 .159.136.29.304.29h5.946a1.43 1.43 0 0 1-.037-.36c.037-1.334.13-2.193.323-2.821.073-.241.161-.448.267-.635a2.38 2.38 0 0 1 .35-.476c.085-.09.176-.17.27-.241a3.79 3.79 0 0 1-.38-.08M130.374 3.19c-1.334 0-2.328.598-2.984 1.507.294 1.125.34 2.413.118 3.663a8.363 8.363 0 0 1-.627 2.031c.09.228.19.45.306.663.402.745.964 1.383 1.687 1.82 1.097.664 1.93.648 3 0 .389-.235.733-.539 1.031-.892.569-.677.967-1.537 1.184-2.453.685-2.89-.443-6.339-3.715-6.339M117.002 8.33c-.215-1.24-.168-2.515.123-3.631-.656-.91-1.65-1.507-2.983-1.507-3.274 0-4.4 3.45-3.716 6.34.218.916.615 1.775 1.184 2.452.298.353.643.657 1.031.892 1.07.648 1.903.664 3 0 .741-.448 1.315-1.11 1.719-1.88.102-.194.194-.395.274-.603a8.449 8.449 0 0 1-.632-2.063m5.256-6.734c-3.18 0-4.603 3.08-4.299 6.03.1.973.387 1.931.862 2.76a5.24 5.24 0 0 0 1.348 1.577c.14.107.286.208.437.3.6.363 1.128.542 1.652.542s1.052-.18 1.652-.542c.145-.088.284-.183.418-.285a5.236 5.236 0 0 0 1.354-1.569c.537-.927.837-2.018.901-3.11.17-2.847-1.263-5.703-4.325-5.703m6.553 13.085c-.692-.243-1.569-.638-2.678-1.55a3.977 3.977 0 0 0-.44-.314.339.339 0 0 0-.384.02c-.959.751-1.997 1.15-3.051 1.15s-2.091-.399-3.05-1.15a.34.34 0 0 0-.385-.02c-.153.094-.3.199-.44.314-1.171.964-2.085 1.35-2.793 1.59-1.532.518-2.096.354-2.191 3.872a.32.32 0 0 0 .151.278.35.35 0 0 0 .185.052h17.047a.321.321 0 0 0 .11-.018.323.323 0 0 0 .225-.312c-.098-3.605-.688-3.343-2.306-3.912" mask="url(#d)"/>
        </g>
    </g>
</svg>
