<svg xmlns="http://www.w3.org/2000/svg" xmlns:xlink="http://www.w3.org/1999/xlink" width="200" height="60" viewBox="0 0 200 60">
    <defs>
        <path id="a" d="M.2.255h29.723v26.618H.2z"/>
    </defs>
    <g fill="none" fill-rule="evenodd">
        <path fill="#EA0A8B" d="M13.68 30l-3.293 17.193L6.655 30h-2.42L0 52h2.32l3.327-17.286L9.446 52h2.319L16 30zM20.362 30.283L17.485 46.44c-.22 1.242-.25 1.522-.25 2.081 0 1.522.844 2.33 2.438 2.33 1.377 0 2.22-.466 2.878-1.616.344-.59.563-1.367.844-2.795l2.845-16.156h2.284l-2.94 16.56c-.438 2.422-.688 3.137-1.501 4.1-1.095 1.274-2.408 1.802-4.41 1.802-3.064 0-4.69-1.366-4.69-3.976 0-.684.093-1.616.312-2.766l2.784-15.72h2.283zM34.402 40.846c1.75 0 2.595-.372 3.346-1.491.75-1.088 1.22-2.765 1.22-4.412 0-1.988-.814-2.764-2.909-2.764h-1.97l-1.532 8.667h1.845zm-3.847 11.62h-2.283l3.94-22.183h3.91c2.063 0 3.19.311 3.971 1.057.75.715 1.22 2.019 1.22 3.386 0 2.206-.75 4.692-1.783 5.996-.688.87-1.376 1.305-2.564 1.709l1.626 10.034H36.09l-1.344-9.786h-2.47l-1.72 9.786zM43.407 46.22c-.125.995-.156 1.399-.156 1.99 0 1.74.875 2.671 2.47 2.671 1.407 0 2.346-.684 3.003-2.144.406-.963.687-2.392.687-3.479 0-.808-.218-1.553-.625-1.988-.344-.405-.344-.405-2.127-1.243-2.345-1.087-3.283-2.516-3.283-4.97 0-1.71.5-3.543 1.313-4.816.97-1.492 2.283-2.207 4.065-2.207 2.752 0 4.379 1.554 4.379 4.195 0 .59-.063 1.057-.22 1.926h-2.126c.125-.746.157-1.118.157-1.646 0-1.71-.72-2.579-2.127-2.579-1.094 0-1.876.528-2.44 1.708-.437.902-.718 2.145-.718 3.138 0 1.616.656 2.486 2.47 3.355 2.846 1.306 3.565 2.3 3.565 4.847 0 1.802-.5 3.79-1.282 5.126-1.094 1.834-2.533 2.641-4.753 2.641-2.846 0-4.598-1.584-4.598-4.131 0-.715.063-1.243.282-2.393h2.064zM57.228 30.283h8.913l-.344 1.927h-6.63l-1.439 8.077h5.63l-.313 1.926h-5.66l-1.47 8.326h6.692l-.344 1.926h-8.975zM76.99 33.639L72.268 45.63h5.129l-.407-11.992zm-5.44 13.856l-1.94 4.97h-2.47l9.381-22.182h1.97l1.595 22.183H77.68l-.188-4.971h-5.942zM86.59 50.57c2.47.032 3.658-1.305 4.284-4.722l1.564-8.947c.093-.497.218-1.709.218-2.175 0-1.709-.907-2.548-2.783-2.548h-2.439L84.15 50.571h2.44zm-1.095-20.287h4.315c1.814 0 2.971.28 3.754.933.937.745 1.406 1.894 1.406 3.354 0 .56-.093 1.46-.25 2.361L93 46.656c-.625 3.976-2.72 5.903-6.41 5.81h-5.035l3.94-22.183zM97.252 30.283h2.22l.47 18.081 6.848-18.08h2.345l-8.912 22.181h-1.939zM117.83 36.808c.124-.809.25-1.803.25-2.268 0-1.678-.97-2.64-2.596-2.64-2.19 0-3.19 1.304-3.847 4.908l-1.626 9.133c-.156.932-.25 1.74-.25 2.268 0 1.678.97 2.641 2.595 2.641 2.19 0 3.221-1.305 3.847-4.909l1.626-9.133zm-8.35-.653c.437-2.36.812-3.355 1.75-4.443 1.002-1.149 2.378-1.709 4.285-1.709 3.158 0 4.816 1.523 4.816 4.443 0 .652-.093 1.616-.25 2.548l-1.72 9.6c-.407 2.33-.813 3.386-1.72 4.443-1.032 1.149-2.408 1.708-4.316 1.708-3.158 0-4.816-1.522-4.816-4.442 0-.653.094-1.554.282-2.548l1.689-9.6zM131.744 46.22c-.312 1.927-.625 2.89-1.22 3.884-1.094 1.771-2.689 2.641-4.815 2.641-2.846 0-4.378-1.49-4.378-4.225 0-.777.094-1.74.312-2.951l1.627-9.165c.438-2.517.907-3.728 1.814-4.723 1-1.118 2.282-1.647 4.003-1.647 2.814 0 4.44 1.46 4.44 3.977 0 .653-.062 1.181-.25 2.144h-2.065c.094-.839.126-1.243.126-1.74 0-1.647-.782-2.485-2.251-2.485-2.033 0-3.003 1.335-3.628 4.97l-1.595 8.979c-.188 1.15-.281 1.833-.281 2.454 0 1.678.75 2.548 2.25 2.548 2.065 0 3.16-1.336 3.754-4.66h2.157zM140.906 33.639l-4.722 11.992h5.129l-.407-11.992zm-5.44 13.856l-1.94 4.97h-2.47l9.381-22.182h1.97l1.596 22.183h-2.409l-.187-4.971h-5.942zM150.068 32.21h-3.846l.344-1.926h9.975l-.343 1.926h-3.847l-3.596 20.255h-2.283zM158.073 30.283h8.913l-.344 1.927h-6.63l-1.439 8.077h5.63l-.313 1.926h-5.661l-1.47 8.326h6.692l-.343 1.926h-8.976z"/>
        <path fill="#512D6E" d="M17.82 26.873c-2.716 0-5.074-.46-7.075-1.384-2-.922-3.55-2.265-4.644-4.028-1.096-1.762-1.644-3.874-1.644-6.335 0-2.863.644-5.413 1.93-7.65C7.673 5.242 9.524 3.48 11.943 2.19 14.359.9 17.176.255 20.392.255c3.405 0 6.18.68 8.323 2.04 2.144 1.361 3.502 3.283 4.072 5.768l-5.715.674c-.453-1.348-1.233-2.33-2.34-2.945-1.108-.615-2.65-.923-4.626-.923-1.882 0-3.556.396-5.02 1.189-1.465.793-2.62 1.934-3.465 3.424-.846 1.491-1.269 3.219-1.269 5.182 0 2.438.69 4.313 2.072 5.626 1.381 1.313 3.359 1.97 5.93 1.97 1.43 0 2.71-.107 3.841-.32a15.066 15.066 0 0 0 3.305-1.029l.822-4.117h-7.11l.929-4.401h12.397L30.25 23.679c-3.643 2.13-7.788 3.194-12.432 3.194"/>
        <g transform="translate(34.767)">
            <mask id="b" fill="#fff">
                <use xlink:href="#a"/>
            </mask>
            <path fill="#512D6E" d="M14.133 22.224c1.93 0 3.632-.402 5.109-1.207 1.476-.804 2.637-1.957 3.483-3.46.845-1.502 1.268-3.26 1.268-5.27 0-2.295-.708-4.1-2.125-5.413-1.418-1.313-3.377-1.97-5.877-1.97-1.93 0-3.632.403-5.11 1.207-1.476.805-2.637 1.958-3.482 3.46-.846 1.503-1.268 3.26-1.268 5.27 0 2.297.708 4.1 2.125 5.414 1.417 1.313 3.376 1.969 5.877 1.969m-.25 4.65c-1.953 0-3.757-.26-5.412-.781-1.656-.52-3.103-1.284-4.341-2.29a10.522 10.522 0 0 1-2.894-3.673C.545 18.687.2 17.054.2 15.232c0-2.91.649-5.495 1.947-7.755 1.298-2.259 3.162-4.028 5.59-5.305C10.168.893 13.002.254 16.24.254c1.953 0 3.758.261 5.413.782 1.655.52 3.102 1.283 4.34 2.289a10.546 10.546 0 0 1 2.895 3.674c.69 1.443 1.035 3.076 1.035 4.897 0 2.91-.649 5.496-1.946 7.755-1.298 2.26-3.162 4.028-5.592 5.306-2.428 1.278-5.264 1.916-8.502 1.916" mask="url(#b)"/>
        </g>
        <path fill="#512D6E" d="M78.838 26.873c-3.55 0-6.336-.768-8.36-2.306-2.025-1.538-3.037-3.703-3.037-6.496 0-.851.095-1.774.286-2.767L70.692.894h5.716l-2.965 14.41a8.591 8.591 0 0 0-.215 1.88c0 1.657.524 2.91 1.573 3.762 1.048.852 2.56 1.278 4.537 1.278 2.143 0 3.834-.527 5.073-1.58 1.238-1.052 2.083-2.715 2.536-4.986L89.983.894H95.7l-3.036 14.764c-.548 2.626-1.394 4.762-2.538 6.406a10.166 10.166 0 0 1-4.5 3.639c-1.859.78-4.121 1.17-6.788 1.17M107.99 5.614H97.986l.966-4.72h25.722l-.965 4.72h-10.003l-4.251 20.621h-5.717z"/>
        <path fill="#EA0A8B" d="M183.527 60h-9.223l16.044-18.516-9.77-18.514h9.234l9.742 18.514z"/>
        <path fill="#512D6E" d="M170.85 60h-9.223l16.044-18.516-9.77-18.514h9.234l9.741 18.514z"/>
    </g>
</svg>
