<svg xmlns="http://www.w3.org/2000/svg" xmlns:xlink="http://www.w3.org/1999/xlink" width="273" height="82" viewBox="0 0 273 82">
    <defs>
        <path id="a" d="M.273.348h40.643v36.379H.273z"/>
    </defs>
    <g fill="none" fill-rule="evenodd">
        <path fill="#EA0A8B" d="M18.81 41l-4.528 23.445L9.152 41H5.823L0 71h3.19l4.575-23.571L12.988 71h3.189L22 41zM27.372 41.387l-3.934 22.08c-.3 1.697-.342 2.08-.342 2.844 0 2.08 1.154 3.184 3.335 3.184 1.882 0 3.036-.637 3.934-2.208.47-.806.77-1.868 1.155-3.82l3.89-22.08h3.122l-4.019 22.63c-.6 3.313-.941 4.29-2.053 5.605-1.496 1.741-3.292 2.464-6.03 2.464-4.189 0-6.412-1.869-6.412-5.436 0-.934.127-2.208.427-3.779l3.805-21.484h3.122zM46.57 55.823c2.394 0 3.548-.509 4.575-2.038 1.026-1.486 1.667-3.78 1.667-6.03 0-2.716-1.112-3.778-3.976-3.778h-2.694l-2.095 11.846h2.523zm-5.26 15.88h-3.122l5.388-30.316h5.346c2.821 0 4.36.425 5.43 1.444 1.026.977 1.667 2.76 1.667 4.628 0 3.014-1.025 6.412-2.437 8.194-.941 1.19-1.882 1.784-3.507 2.336L52.3 71.703h-3.42L47.04 58.328h-3.378L41.31 71.703zM58.883 63.169c-.171 1.359-.213 1.91-.213 2.717 0 2.378 1.196 3.651 3.378 3.651 1.923 0 3.207-.934 4.105-2.93.555-1.316.94-3.268.94-4.754 0-1.104-.3-2.123-.855-2.718-.47-.552-.47-.552-2.908-1.698-3.206-1.486-4.49-3.44-4.49-6.794 0-2.335.684-4.84 1.796-6.58 1.326-2.039 3.122-3.016 5.559-3.016 3.763 0 5.986 2.123 5.986 5.732 0 .807-.085 1.445-.299 2.633h-2.907c.17-1.02.214-1.529.214-2.25 0-2.336-.984-3.524-2.908-3.524-1.497 0-2.566.722-3.336 2.335-.598 1.231-.983 2.93-.983 4.288 0 2.208.898 3.397 3.378 4.585 3.89 1.784 4.874 3.143 4.874 6.625 0 2.462-.683 5.18-1.753 7.005-1.496 2.506-3.463 3.609-6.499 3.609-3.891 0-6.286-2.165-6.286-5.647 0-.977.086-1.698.385-3.27h2.822zM77.781 41.387h12.187l-.47 2.633h-9.065l-1.968 11.039h7.698l-.428 2.632h-7.74l-2.01 11.38h9.15l-.469 2.632H72.393zM104.803 45.973l-6.457 16.39h7.013l-.556-16.39zm-7.44 18.936l-2.651 6.794h-3.378l12.828-30.316h2.693l2.182 30.316h-3.293l-.257-6.794h-8.124zM117.929 69.113c3.378.043 5.002-1.784 5.858-6.454l2.138-12.228c.128-.679.3-2.335.3-2.972 0-2.335-1.241-3.482-3.807-3.482h-3.335l-4.49 25.136h3.336zm-1.497-27.726h5.9c2.48 0 4.063.382 5.132 1.274 1.283 1.02 1.924 2.59 1.924 4.585 0 .765-.128 1.996-.341 3.227l-2.353 13.29c-.855 5.435-3.72 8.068-8.765 7.94h-6.884l5.387-30.316zM132.508 41.387h3.036l.642 24.711 9.364-24.71h3.207L136.57 71.702h-2.65zM160.644 50.304c.171-1.105.342-2.463.342-3.1 0-2.293-1.326-3.609-3.549-3.609-2.993 0-4.362 1.783-5.26 6.709l-2.224 12.482c-.213 1.274-.34 2.378-.34 3.1 0 2.292 1.324 3.609 3.548 3.609 2.993 0 4.404-1.783 5.26-6.709l2.223-12.482zm-11.417-.892c.599-3.227 1.111-4.586 2.394-6.072 1.37-1.57 3.25-2.335 5.858-2.335 4.319 0 6.586 2.08 6.586 6.072 0 .89-.128 2.208-.342 3.481l-2.352 13.12c-.556 3.184-1.112 4.628-2.352 6.072-1.41 1.57-3.293 2.335-5.9 2.335-4.32 0-6.586-2.08-6.586-6.071 0-.892.129-2.124.385-3.482l2.31-13.12zM179.671 63.169c-.428 2.632-.855 3.948-1.668 5.307-1.497 2.42-3.677 3.609-6.585 3.609-3.891 0-5.986-2.038-5.986-5.774 0-1.062.129-2.378.427-4.034l2.224-12.526c.6-3.438 1.24-5.094 2.48-6.454 1.368-1.527 3.12-2.25 5.474-2.25 3.847 0 6.071 1.996 6.071 5.435 0 .892-.085 1.614-.342 2.93h-2.823c.129-1.147.172-1.699.172-2.377 0-2.251-1.07-3.397-3.078-3.397-2.78 0-4.106 1.825-4.96 6.793l-2.181 12.27c-.257 1.571-.385 2.506-.385 3.355 0 2.292 1.026 3.481 3.078 3.481 2.823 0 4.32-1.825 5.132-6.368h2.95zM192.199 45.973l-6.457 16.39h7.012l-.555-16.39zm-7.44 18.936l-2.652 6.794h-3.378l12.828-30.316h2.694l2.181 30.316h-3.293l-.256-6.794h-8.125zM204.726 44.02h-5.26l.471-2.632h13.64l-.47 2.632h-5.26l-4.917 27.683h-3.122zM215.671 41.387h12.187l-.47 2.633h-9.066l-1.967 11.039h7.697l-.427 2.632h-7.74l-2.01 11.38h9.15l-.47 2.632h-12.272z"/>
        <path fill="#512D6E" d="M23.895 36.727c-3.713 0-6.936-.63-9.672-1.892-2.736-1.26-4.853-3.095-6.35-5.505-1.499-2.408-2.247-5.295-2.247-8.658 0-3.913.88-7.397 2.637-10.454 1.759-3.055 4.29-5.463 7.597-7.226C19.165 1.23 23.016.348 27.413.348c4.656 0 8.45.93 11.381 2.789 2.931 1.86 4.788 4.487 5.568 7.883l-7.815.921c-.619-1.843-1.685-3.185-3.2-4.026-1.514-.84-3.623-1.261-6.325-1.261-2.573 0-4.862.542-6.864 1.625-2.003 1.084-3.583 2.643-4.738 4.68-1.156 2.038-1.734 4.399-1.734 7.082 0 3.331.943 5.894 2.832 7.688 1.889 1.795 4.593 2.693 8.11 2.693 1.954 0 3.704-.146 5.252-.437a20.607 20.607 0 0 0 4.517-1.406l1.125-5.627H25.8l1.27-6.015h16.951l-3.126 15.425c-4.982 2.91-10.65 4.365-17 4.365"/>
        <g transform="translate(47.07)">
            <mask id="b" fill="#fff">
                <use xlink:href="#a"/>
            </mask>
            <path fill="#512D6E" d="M19.325 30.373c2.638 0 4.965-.55 6.986-1.65 2.018-1.098 3.606-2.675 4.762-4.728 1.155-2.054 1.734-4.455 1.734-7.204 0-3.135-.969-5.602-2.907-7.396-1.937-1.795-4.616-2.693-8.035-2.693-2.638 0-4.966.55-6.986 1.65-2.02 1.1-3.607 2.676-4.762 4.729-1.157 2.054-1.734 4.455-1.734 7.203 0 3.137.968 5.602 2.906 7.397 1.937 1.795 4.615 2.692 8.036 2.692m-.342 6.354c-2.671 0-5.138-.356-7.4-1.067-2.265-.71-4.244-1.754-5.937-3.128a14.381 14.381 0 0 1-3.956-5.02C.745 25.538.273 23.307.273 20.816c0-3.977.888-7.51 2.663-10.598C4.71 7.13 7.26 4.714 10.58 2.968 13.902 1.22 17.777.348 22.206.348c2.67 0 5.138.356 7.402 1.067 2.263.712 4.24 1.755 5.934 3.129a14.414 14.414 0 0 1 3.957 5.02c.944 1.973 1.417 4.205 1.417 6.694 0 3.978-.888 7.51-2.662 10.598-1.775 3.089-4.323 5.506-7.645 7.252-3.322 1.746-7.198 2.619-11.626 2.619" mask="url(#b)"/>
        </g>
        <path fill="#512D6E" d="M107.329 36.727c-4.853 0-8.663-1.05-11.43-3.152-2.77-2.102-4.153-5.061-4.153-8.877 0-1.165.13-2.426.391-3.783l4.054-19.693h7.816l-4.054 19.693c-.196.872-.294 1.73-.294 2.57 0 2.265.716 3.977 2.15 5.142 1.433 1.164 3.5 1.746 6.204 1.746 2.93 0 5.242-.72 6.936-2.159 1.693-1.438 2.85-3.71 3.469-6.814l4.151-20.178h7.817L126.234 21.4c-.75 3.588-1.906 6.508-3.47 8.754-1.561 2.249-3.613 3.906-6.154 4.973-2.54 1.067-5.634 1.6-9.281 1.6M147.19 7.673h-13.678l1.32-6.452h35.17l-1.318 6.452h-13.678l-5.813 28.182h-7.816z"/>
        <path fill="#EA0A8B" d="M250.476 82h-12.611l21.938-25.306-13.359-25.301h12.626l13.32 25.301z"/>
        <path fill="#512D6E" d="M233.142 82H220.53l21.938-25.306-13.36-25.301h12.626l13.32 25.301z"/>
    </g>
</svg>
