<svg xmlns="http://www.w3.org/2000/svg" xmlns:xlink="http://www.w3.org/1999/xlink" width="182" height="82" viewBox="0 0 182 82">
    <defs>
        <path id="a" d="M.393.919h17.042v22.864H.393z"/>
        <path id="c" d="M0 82h181.24V.919H0z"/>
    </defs>
    <g fill="none" fill-rule="evenodd">
        <path fill="#512D6E" d="M8.862 28L0 51h3.268l2.552-6.89h9.232L17.508 51H21l-8.54-23H8.862zm1.663 3.413l3.623 10.162H6.759l3.766-10.162z"/>
        <g>
            <path fill="#512D6E" d="M39.479 29.556c1.583 1.525 2.463 3.258 2.637 5.199H39.09c-.337-1.474-1.01-2.642-2.016-3.503-1.006-.86-2.42-1.292-4.238-1.292-2.218 0-4.007.792-5.373 2.376-1.364 1.584-2.045 4.012-2.045 7.283 0 2.68.615 4.852 1.846 6.519 1.232 1.667 3.07 2.5 5.512 2.5 2.25 0 3.962-.877 5.137-2.63.623-.924 1.088-2.137 1.395-3.642h3.028c-.268 2.407-1.152 4.425-2.653 6.054-1.8 1.962-4.228 2.941-7.283 2.941-2.633 0-4.844-.804-6.634-2.414-2.355-2.127-3.532-5.414-3.532-9.858 0-3.374.884-6.142 2.653-8.302 1.912-2.345 4.55-3.52 7.914-3.52 2.869 0 5.095.764 6.679 2.289M62.562 29.556c1.584 1.525 2.463 3.258 2.637 5.199h-3.027c-.337-1.474-1.01-2.642-2.016-3.503-1.006-.86-2.419-1.292-4.237-1.292-2.218 0-4.009.792-5.373 2.376-1.364 1.584-2.046 4.012-2.046 7.283 0 2.68.616 4.852 1.847 6.519 1.232 1.667 3.07 2.5 5.512 2.5 2.249 0 3.96-.877 5.137-2.63.622-.924 1.087-2.137 1.394-3.642h3.028c-.267 2.407-1.152 4.425-2.653 6.054-1.8 1.962-4.227 2.941-7.282 2.941-2.634 0-4.845-.804-6.634-2.414-2.356-2.127-3.533-5.414-3.533-9.858 0-3.374.884-6.142 2.653-8.302 1.913-2.345 4.551-3.52 7.914-3.52 2.869 0 5.095.764 6.679 2.289M69.726 27.89h16.637v2.802h-13.61v6.942h12.58v2.646h-12.58v7.75h13.845v2.725H69.726zM92.778 43.377c.07 1.297.366 2.35.887 3.16.992 1.515 2.741 2.272 5.248 2.272 1.121 0 2.144-.165 3.066-.498 1.785-.643 2.675-1.795 2.675-3.455 0-1.246-.377-2.132-1.132-2.662-.767-.519-1.966-.97-3.6-1.353l-3.008-.701c-1.966-.457-3.356-.96-4.173-1.51-1.411-.954-2.116-2.381-2.116-4.28 0-2.055.693-3.74 2.08-5.06 1.387-1.317 3.351-1.976 5.893-1.976 2.339 0 4.325.579 5.961 1.736 1.635 1.157 2.453 3.007 2.453 5.549h-2.918c-.15-1.224-.47-2.164-.958-2.817-.908-1.193-2.449-1.79-4.624-1.79-1.756 0-3.019.384-3.786 1.152-.769.768-1.152 1.66-1.152 2.676 0 1.121.454 1.941 1.361 2.46.595.332 1.941.746 4.038 1.245l3.115.731c1.502.353 2.662.836 3.478 1.448 1.411 1.069 2.117 2.62 2.117 4.653 0 2.533-.9 4.343-2.702 5.433-1.801 1.09-3.894 1.634-6.278 1.634-2.78 0-4.957-.726-6.53-2.179-1.573-1.442-2.345-3.398-2.313-5.868h2.918zM114.097 43.377c.07 1.297.366 2.35.887 3.16.992 1.515 2.742 2.272 5.248 2.272 1.121 0 2.144-.165 3.067-.498 1.784-.643 2.675-1.795 2.675-3.455 0-1.246-.377-2.132-1.133-2.662-.766-.519-1.966-.97-3.6-1.353l-3.007-.701c-1.966-.457-3.357-.96-4.174-1.51-1.41-.954-2.116-2.381-2.116-4.28 0-2.055.694-3.74 2.08-5.06 1.388-1.317 3.352-1.976 5.894-1.976 2.338 0 4.325.579 5.96 1.736 1.636 1.157 2.453 3.007 2.453 5.549h-2.918c-.15-1.224-.47-2.164-.957-2.817-.908-1.193-2.45-1.79-4.624-1.79-1.756 0-3.018.384-3.787 1.152-.768.768-1.151 1.66-1.151 2.676 0 1.121.453 1.941 1.36 2.46.596.332 1.942.746 4.038 1.245l3.115.731c1.502.353 2.662.836 3.478 1.448 1.412 1.069 2.118 2.62 2.118 4.653 0 2.533-.9 4.343-2.702 5.433-1.801 1.09-3.894 1.634-6.279 1.634-2.78 0-4.956-.726-6.529-2.179-1.574-1.442-2.345-3.398-2.314-5.868h2.918z"/>
            <g transform="translate(1.848)">
                <mask id="b" fill="#fff">
                    <use xlink:href="#a"/>
                </mask>
                <path fill="#512D6E" d="M12.439 4.063c-.682-.322-1.617-.482-2.805-.482H3.498v7.922h6.136c1.385 0 2.508-.296 3.37-.888.863-.591 1.294-1.634 1.294-3.127 0-1.682-.62-2.823-1.86-3.425zM.393.918H10.65c2.029 0 3.666.574 4.914 1.72 1.246 1.148 1.87 2.758 1.87 4.834 0 1.785-.556 3.338-1.669 4.661-1.114 1.323-2.815 1.985-5.11 1.985H3.499v9.665H.393V.918z" mask="url(#b)"/>
            </g>
            <path fill="#512D6E" d="M32.747 14.414l-3.53-10.102-3.667 10.102h7.197zM27.597.919h3.506l8.322 22.865h-3.403l-2.393-6.849h-8.995l-2.487 6.849h-3.184L27.597.919zM56.538.919v2.724h-7.726v20.14h-3.137V3.644H37.95V.92z"/>
            <mask id="d" fill="#fff">
                <use xlink:href="#c"/>
            </mask>
            <path fill="#512D6E" d="M60.096 23.784h3.137V.919h-3.137zM68.571.919h16.637V3.72h-13.61v6.943h12.58v2.645h-12.58v7.751h13.845v2.725H68.57zM89.593.919h3.66l11.433 18.474V.919h2.965v22.865h-3.488L92.559 5.332v18.452h-2.966zM129.346.919v2.724h-7.726v20.14h-3.137V3.644h-7.725V.92z" mask="url(#d)"/>
            <path fill="#EA0A8B" d="M18.967 56.12h7.606v25.23h-4.925V64.284c0-.49.006-1.177.018-2.062.01-.884.016-1.566.016-2.045L16.888 81.35h-5.137L6.99 60.177c0 .48.006 1.16.018 2.045.01.885.016 1.572.016 2.062V81.35H2.1V56.12h7.691l4.606 19.838 4.57-19.838zM38.702 71.816h6.479l-3.196-9.927-3.283 9.927zm.348-15.695h5.982l8.95 25.229H48.25l-1.67-5.186h-9.316L35.55 81.35h-5.53l9.03-25.23zM57.465 56.12h5.541L73.05 73.712V56.12h4.925v25.23h-5.285L62.391 63.449v17.9h-4.926zM90.172 71.816h6.479l-3.196-9.927-3.283 9.927zm.348-15.695h5.981l8.95 25.229H99.72l-1.67-5.186h-9.316L87.02 81.35H81.49l9.03-25.23zM126.028 63.994c-.4-1.723-1.378-2.927-2.935-3.612-.868-.376-1.836-.564-2.9-.564-2.037 0-3.71.765-5.02 2.297-1.31 1.532-1.965 3.835-1.965 6.91 0 3.098.71 5.29 2.128 6.577 1.42 1.287 3.032 1.93 4.84 1.93 1.773 0 3.226-.506 4.36-1.522 1.132-1.015 1.83-2.345 2.093-3.99h-5.853v-4.209h10.538V81.35h-3.5l-.533-3.15c-1.018 1.193-1.933 2.034-2.746 2.521-1.396.852-3.111 1.279-5.148 1.279-3.352 0-6.099-1.158-8.238-3.473-2.232-2.326-3.348-5.507-3.348-9.544 0-4.082 1.127-7.355 3.383-9.818 2.253-2.463 5.234-3.695 8.94-3.695 3.216 0 5.799.813 7.749 2.44 1.95 1.625 3.07 3.653 3.355 6.084h-5.2zM155.42 60.588h-13.387v5.356h12.288v4.382h-12.288v6.488h14.003v4.535h-19.17V56.12h18.553zM165.793 60.502v6.778h5.689c1.13 0 1.978-.137 2.542-.41 1-.48 1.5-1.428 1.5-2.842 0-1.53-.483-2.556-1.45-3.08-.544-.297-1.359-.446-2.446-.446h-5.835zm10.925-3.731c.932.4 1.721.986 2.37 1.762.534.64.958 1.347 1.271 2.123.312.777.468 1.66.468 2.654 0 1.197-.303 2.376-.91 3.534-.605 1.158-1.607 1.976-3.003 2.456 1.168.468 1.994 1.132 2.48 1.994.487.861.73 2.176.73 3.945v1.695c0 1.152.047 1.933.14 2.344.138.65.464 1.129.976 1.438v.634h-5.836c-.161-.559-.275-1.011-.343-1.353a12.4 12.4 0 0 1-.224-2.173l-.034-2.345c-.022-1.609-.3-2.681-.836-3.218-.535-.536-1.54-.804-3.01-.804h-5.164v9.893h-5.166V56.12h12.1c1.73.034 3.06.252 3.991.65z" mask="url(#d)"/>
            <path fill="#512D6E" d="M167.69 25.598H164.627c.019.23.03.466.03.702 0 4.405-3.595 7.99-8.01 7.99-4.42-.001-8.015-3.585-8.015-7.99 0-.236.01-.471.031-.702h-3.309a11.02 11.02 0 0 0-.02.702c0 6.219 5.074 11.28 11.312 11.28 6.236 0 11.31-5.06 11.31-11.28 0-.236-.007-.47-.022-.702h-.246z" mask="url(#d)"/>
            <path fill="#512D6E" d="M174.108 25.599v2.82l-3.975.675-.285.992a13.668 13.668 0 0 1-1.213 2.904l-.51.908 2.313 3.256-2.931 2.923-3.27-2.312-.908.505c-.932.518-1.922.925-2.94 1.213l-1.005.282-.666 3.899h-4.145l-.666-3.9-1.004-.281a13.805 13.805 0 0 1-2.98-1.234l-.91-.51-3.2 2.267-2.932-2.926 2.274-3.196-.507-.906a13.58 13.58 0 0 1-1.235-3l-.277-1.009-3.85-.653v-2.717h-2.91c-.131 0-.263-.015-.39-.044v3.113c0 1.38 1.03 2.597 2.399 2.832l2.165.367c.208.604.453 1.198.73 1.775l-1.296 1.824a2.9 2.9 0 0 0 .316 3.691l3.431 3.425a2.922 2.922 0 0 0 3.707.309l1.813-1.285c.57.275 1.154.516 1.747.726l.382 2.234c.229 1.34 1.475 2.388 2.839 2.388h4.852c1.386 0 2.608-1.027 2.84-2.388l.381-2.234c.58-.204 1.149-.438 1.705-.704l1.886 1.335c1.132.802 2.728.67 3.707-.31l3.434-3.424c.977-.98 1.11-2.57.31-3.689l-1.333-1.878c.26-.54.493-1.097.696-1.666l2.316-.393a2.905 2.905 0 0 0 2.395-2.834v-3.214c-.126.03-.258.044-.39.044h-2.91z" mask="url(#d)"/>
            <path fill="#EA0A8B" d="M172.613 18.253c-.316-.21-.65-.455-1.005-.746a4.738 4.738 0 0 0-.511-.366.395.395 0 0 0-.448.025c-.69.541-1.398.914-2.108 1.124a5.035 5.035 0 0 1-.647.147 2.896 2.896 0 0 1 .795.919c.199.35.35.757.465 1.277.165.755.253 1.747.29 3.15a1.79 1.79 0 0 1-.046.461h7.62a.38.38 0 0 0 .388-.349l.001-.034c-.152-5.617-1.212-3.225-4.794-5.608m-27.6.08c-.764-.199-1.527-.587-2.269-1.167a.394.394 0 0 0-.446-.025c-.178.11-.35.233-.513.366-.323.265-.629.492-.917.688-3.607 2.45-4.7.064-4.876 5.459-.002.068-.005.137-.006.207v.013c0 .203.174.37.39.37h7.62a1.833 1.833 0 0 1-.047-.46c.047-1.71.166-2.81.414-3.615.093-.308.207-.574.343-.813a3.05 3.05 0 0 1 .447-.61c.11-.116.227-.219.348-.309a4.859 4.859 0 0 1-.489-.103M167.1 4.089c-1.71 0-2.983.766-3.824 1.93.377 1.442.435 3.092.15 4.694-.158.897-.424 1.779-.803 2.602.115.292.245.577.393.849.515.955 1.236 1.773 2.162 2.332 1.406.851 2.474.83 3.844 0 .5-.301.941-.69 1.323-1.143.728-.867 1.24-1.97 1.516-3.142.878-3.704-.567-8.122-4.761-8.122m-17.14 6.582c-.276-1.588-.215-3.222.158-4.652-.84-1.164-2.114-1.93-3.823-1.93-4.197 0-5.64 4.419-4.763 8.123.28 1.173.788 2.274 1.518 3.141.382.453.823.842 1.321 1.143 1.37.83 2.44.851 3.845 0 .95-.574 1.685-1.42 2.203-2.408.13-.25.248-.507.35-.773a10.822 10.822 0 0 1-.808-2.644m6.735-8.627c-4.074 0-5.898 3.947-5.509 7.726.128 1.247.497 2.474 1.104 3.536a6.715 6.715 0 0 0 1.729 2.02c.178.138.366.267.56.385.768.464 1.445.694 2.116.694.673 0 1.35-.23 2.118-.694.186-.113.364-.235.536-.366a6.709 6.709 0 0 0 1.736-2.01c.688-1.188 1.072-2.586 1.154-3.984.218-3.648-1.62-7.307-5.544-7.307m8.4 16.764c-.887-.311-2.011-.817-3.433-1.985a5.097 5.097 0 0 0-.564-.403.434.434 0 0 0-.492.026c-1.229.963-2.559 1.472-3.91 1.473-1.35 0-2.68-.51-3.91-1.473a.435.435 0 0 0-.493-.026c-.196.121-.384.255-.564.403-1.5 1.235-2.672 1.73-3.58 2.037-1.963.664-2.686.453-2.808 4.96a.41.41 0 0 0 .194.357c.069.042.15.067.237.067h21.849a.412.412 0 0 0 .142-.024.414.414 0 0 0 .288-.4c-.126-4.618-.882-4.282-2.957-5.012" mask="url(#d)"/>
        </g>
    </g>
</svg>
