<?xml version="1.0" encoding="UTF-8"?>
<svg width="171px" height="466px" viewBox="0 0 171 466" version="1.1" xmlns="http://www.w3.org/2000/svg" xmlns:xlink="http://www.w3.org/1999/xlink">
    <!-- Generator: Sketch 57.1 (83088) - https://sketch.com -->
    <title>Fill 1</title>
    <desc>Created with Sketch.</desc>
    <g id="SET-2" stroke="none" stroke-width="1" fill="none" fill-rule="evenodd">
        <g id="H_2.3-Gout-ComplicationsDefault" transform="translate(-466.000000, -668.000000)" fill="#FFFFFF">
            <g id="Group-6" transform="translate(461.000000, 668.000000)">
                <path d="M174.558927,236.121626 C173.595997,229.854575 173.029349,211.593463 171.923831,191.850228 C171.025713,175.787 168.824861,170.923872 165.908293,157.072327 C161.529737,142.507782 158.802977,133.725446 156.89656,118.012739 C154.995698,102.298191 156.394725,91.854333 151.057868,82.6717969 C147.869086,77.1885873 143.337757,76.3081458 139.889726,75.3890641 C139.661955,75.331104 135.145441,74.5803827 128.728065,73.1065401 C124.518022,72.1313384 120.078356,71.4900973 113.243402,68.9297328 C106.61307,66.4457285 107.180643,61.6424 107.776919,60.1538374 C108.376899,58.6588348 108.5843,58.9955554 109.177798,58.219994 C109.783333,57.4453527 111.559199,57.3993526 113.166552,57.2631924 C114.775757,57.1343921 115.634062,57.3791126 117.09142,57.3726726 C118.543223,57.3607125 119.895955,57.0819521 120.943142,56.0349902 C121.999588,55.0128684 121.972737,54.4829475 121.954219,53.2989054 C121.932924,52.0973833 121.601453,51.0817015 121.926442,50.20862 C122.252357,49.3162184 122.481053,48.4302569 122.956037,48.1395364 C123.42454,47.8405359 123.735641,47.1891747 123.63194,46.5148135 C123.514352,45.8367723 122.968074,44.9563308 123.190289,44.7953305 C123.410652,44.6343302 124.080073,43.4760482 124.114331,42.9856874 C124.141182,42.4925665 124.256919,42.6738068 124.009705,41.6967651 C123.769899,40.7215634 123.846748,39.8806819 124.420803,39.4206811 C124.993006,38.9551603 126.508695,39.3056809 126.997568,38.77576 C127.478107,38.243999 127.732728,37.5659579 127.375333,36.8998767 C127.022567,36.2402355 126.066118,34.2668321 124.984673,32.7092693 C123.906005,31.1507866 122.331984,28.6023821 122.419944,27.1285396 C122.505126,25.660217 123.273619,21.0362889 122.812524,17.9009234 C122.356057,14.7637179 122.134769,10.0505496 117.059014,5.68422198 C109.33983,-0.937029628 96.779142,-0.154108256 91.2089594,0.270932489 C85.9119158,0.672973193 81.6028018,3.94449893 79.0899236,7.50214516 C76.5844525,11.0441514 74.1771263,17.1833221 75.1215389,24.7411354 C76.0715068,32.3026286 80.3139564,38.0765587 81.1667054,42.9203672 C82.0259357,47.7706157 79.3825063,51.4294621 76.5464908,56.1959905 C74.8993241,58.9587553 70.7207613,63.5946435 66.6977488,65.9222475 C58.0110047,70.9472964 51.0334621,71.3539371 44.0624009,73.5085808 C42.6883731,73.9345416 40.0199446,74.5886627 37.2218908,76.0625053 C34.027554,77.7571483 32.0100294,79.5217114 29.9397289,82.6717969 C24.1038145,91.5636125 26.0102317,102.298191 24.1038145,118.012739 C22.2029527,133.725446 19.4687856,142.507782 15.094859,157.072327 C12.1736612,170.923872 9.97836485,175.787 9.07469161,191.850228 C7.96824744,211.593463 7.40808114,229.854575 6.44515064,236.121626 C5.48870141,242.394197 4.82576079,249.182889 5.04056837,252.786535 C5.25537594,256.381901 7.6941826,259.608347 9.39968065,262.174231 C11.1051787,264.743796 14.1661866,266.85888 17.5429246,267.879161 C22.3714655,269.334604 24.4019526,268.992363 24.8250865,268.157002 C25.6176524,266.574599 24.6436111,265.506477 20.9724386,264.361995 C19.0660214,263.778714 17.2818223,262.686672 15.8892767,260.570669 C14.144891,257.940384 14.092115,254.667018 14.0476721,252.366094 C13.995822,249.611609 16.4559242,249.500289 17.1512712,250.284131 C18.7132555,252.042254 18.5364096,257.029582 18.4790042,258.277105 C18.3410459,261.29011 19.6391502,264.328875 22.051106,262.803513 C24.1862192,261.44467 23.5223526,256.815222 23.3093969,253.032175 C23.1723644,250.510451 24.2584389,246.939925 23.6343859,241.235915 C23.1195884,236.548507 22.3010975,236.748147 21.003919,232.5511 C19.9243258,229.021973 20.1456146,226.88573 21.0428066,222.733762 C22.2399885,217.167753 29.5499272,205.112051 33.5062753,190.459186 C35.7524959,182.169051 38.2264865,169.577909 38.485737,162.600617 C38.7468393,155.616885 41.8689563,150.669116 44.1411019,142.320101 C44.4790535,141.066139 44.8383006,139.100096 45.1827335,137.211332 C46.8363814,145.212587 50.8843931,156.573686 52.0352802,165.833503 C52.8759926,172.636915 54.5203816,179.502887 54.0398422,186.781019 C53.7657774,190.969787 52.5685956,196.280956 50.5584781,215.70587 C48.2992951,237.555908 48.0391186,242.394197 47.6613536,257.138143 C47.2511822,272.87201 48.3076281,276.713017 49.2113013,295.027489 C50.0446066,311.789918 51.4047459,319.969653 50.3881135,332.468795 C49.3742588,344.964257 42.566155,363.166488 47.2780332,381.747761 C51.0908676,396.794387 54.5601951,404.372441 56.135142,415.729861 C57.1702923,423.113794 57.4962072,424.147875 57.4378758,426.51504 C57.3721373,429.251124 56.688827,430.939327 56.0703293,432.49137 C54.3398321,436.816298 55.6934902,438.822821 55.2759117,441.570866 C54.5546397,446.271154 54.6120452,447.196676 52.5750768,450.816882 C50.5464415,454.419608 50.0251628,457.497934 50.2270078,458.514536 C50.5399602,460.018738 52.1389804,460.039898 52.1389804,460.039898 C52.1389804,460.039898 51.7676966,461.314101 53.5065269,461.985702 C54.8472224,462.510103 55.7055268,461.779621 55.7055268,461.779621 C55.7055268,461.779621 56.0962544,463.595705 57.8008266,463.971065 C60.2229671,464.500986 60.9322025,463.238744 60.9322025,463.238744 C60.9322025,463.238744 61.1599726,464.921427 63.0210209,465.329908 C65.6894495,465.911349 66.3736857,463.861585 66.3736857,463.861585 C66.3736857,463.861585 67.0375522,465.206627 68.930081,465.742068 C71.6772106,466.51947 73.2271583,465.426508 74.1252762,463.971065 C75.3344947,462.004102 75.7705911,458.596416 75.7122597,455.37641 C75.648373,452.156404 75.1215389,450.816882 75.2039435,446.685155 C75.2956071,441.828466 75.3474572,436.649777 75.3474572,434.580694 C75.3474572,432.50977 74.4687831,427.958522 73.9095427,425.959359 C73.6039974,424.886637 72.1855267,420.365749 71.4364779,413.375576 C70.7263167,406.759845 69.6457976,403.81032 72.7512484,390.301936 C75.9798433,376.276511 74.7743284,364.945772 74.7743284,352.937911 C74.7743284,340.92729 78.3168015,336.602362 79.7084213,323.583419 C80.8343092,313.094481 83.6129192,300.653299 85.6313697,278.801421 C87.19428,261.859591 89.3988353,248.756008 89.2886538,249.197609 C89.7043805,249.300649 90.1414028,249.370569 90.5904618,249.398169 C91.0006331,249.423009 91.3913607,249.423009 91.7681998,249.398169 C93.0450086,254.700138 95.1125315,269.645565 96.6485908,284.18803 C98.0948384,297.905254 100.887337,314.583043 102.069704,325.071982 C103.944641,341.586931 108.513932,339.564767 107.862102,351.552388 C107.015834,367.060855 105.018679,376.276511 108.252829,390.301936 C111.35828,403.81032 109.762964,406.106644 109.112985,414.997539 C108.599114,422.015312 107.393599,424.886637 107.094535,425.959359 C106.527887,427.958522 105.650139,432.50977 105.65662,434.580694 C105.65662,436.649777 105.702915,441.828466 105.800134,446.685155 C105.878835,450.816882 105.358482,452.156404 105.290892,455.37641 C105.233487,458.596416 105.663102,462.004102 106.880653,463.971065 C107.776919,465.426508 109.321312,466.51947 112.068441,465.742068 C113.968377,465.206627 114.623911,463.861585 114.623911,463.861585 C114.623911,463.861585 115.308147,465.911349 117.976575,465.329908 C119.837624,464.921427 120.071875,463.238744 120.071875,463.238744 C120.071875,463.238744 120.781111,464.500986 123.203251,463.971065 C124.902268,463.595705 125.298551,461.779621 125.298551,461.779621 C125.298551,461.779621 126.1513,462.510103 127.491069,461.985702 C129.236381,461.314101 128.858616,460.039898 128.858616,460.039898 C128.858616,460.039898 130.460414,460.018738 130.771514,458.514536 C130.978915,457.497934 130.451155,454.419608 128.429001,450.816882 C126.385551,447.196676 126.443883,446.271154 125.721685,441.570866 C125.305032,438.822821 126.665171,436.816298 124.932822,432.49137 C124.308769,430.939327 123.63194,429.251124 123.559721,426.51504 C123.501389,424.147875 123.833785,423.113794 124.862454,415.729861 C126.443883,404.372441 129.905803,396.794387 133.725119,381.747761 C138.436997,363.166488 133.720489,350.156746 132.705708,337.662204 C131.68815,325.162142 132.503863,316.322766 133.530681,296.961332 C133.981591,288.534118 135.339879,275.153614 134.930633,259.427107 C134.553794,244.682241 133.992702,242.994038 131.58445,224.661166 C131.058542,220.684919 127.706803,192.96067 127.51792,190.137185 C127.043862,182.868253 128.12253,172.636915 128.968797,165.833503 C130.12061,156.573686 134.169548,145.212587 135.814863,137.211332 C136.159296,139.100096 137.175928,141.31178 137.520361,142.565742 C139.786025,150.914757 142.25909,155.616885 142.519267,162.600617 C142.780369,169.577909 145.246952,182.169051 147.492247,190.459186 C151.45415,205.112051 158.757608,217.167753 159.960345,222.733762 C160.852908,226.88573 161.139935,226.563729 159.960345,232.084659 C159.050191,236.378306 157.883563,236.548507 157.36321,241.235915 C156.739157,246.939925 157.832639,250.510451 157.689125,253.032175 C157.481725,256.815222 156.811377,261.44467 158.952972,262.803513 C161.359372,264.328875 162.656551,261.29011 162.518592,258.277105 C162.461187,257.029582 162.284341,252.042254 163.847251,250.284131 C164.542598,249.500289 167.0027,249.611609 166.95085,252.366094 C166.904555,254.667018 166.860113,257.940384 165.114801,260.570669 C163.715774,262.686672 161.933427,263.778714 160.033491,264.361995 C156.361392,265.506477 155.386425,266.574599 156.179917,268.157002 C156.595644,268.992363 158.632612,269.334604 163.457449,267.879161 C166.840669,266.85888 169.892418,264.743796 171.597916,262.174231 C173.308969,259.608347 175.749628,256.381901 175.959806,252.786535 C176.172761,249.182889 175.515376,242.394197 174.558927,236.121626" id="Fill-1"></path>
            </g>
        </g>
    </g>
</svg>