<svg xmlns="http://www.w3.org/2000/svg" width="110" height="68" viewBox="0 0 110 68">
    <g fill="none" fill-rule="evenodd">
        <path fill="#D51A7C" d="M64.123 2.955h.13v-.13h-.13zM63.743 4.492h.89v-.896h-.89zM62.73 4.356h.623V3.73h-.623zM61.756 4.184h.28v-.281h-.28zM63.672 5.715h1.032V4.678h-1.032zM61.412 5.683h.967V4.71h-.967zM60.401 5.546h.696v-.7h-.696zM59.456 5.345h.295v-.297h-.295zM63.672 6.87h1.032V5.83h-1.032zM62.526 6.87h1.031V5.83h-1.03zM61.38 6.87h1.031V5.83H61.38zM60.234 6.87h1.031V5.83h-1.03zM59.114 6.842h.979v-.984h-.98zM58.13 6.678h.652v-.655h-.651zM57.219 6.444h.185v-.187h-.185zM63.672 8.022h1.032V6.984h-1.032z"/>
        <path fill="#D51A7C" d="M62.18 5.9h1.224V4.67h-1.223zM61.38 8.022h1.031V6.984H61.38zM57.941 8.022h1.032V6.984h-1.032zM59.088 8.022h1.03V6.984h-1.03zM56.795 8.022h1.032V6.984h-1.032zM55.718 7.953h.893v-.9h-.893zM54.814 7.71h.41v-.412h-.41zM63.672 9.176h1.032V8.138h-1.032zM62.526 9.176h1.031V8.138h-1.03zM61.38 9.176h1.031V8.138H61.38zM60.234 9.176h1.031V8.138h-1.03zM37.311 9.176h1.031V8.138h-1.03zM25.85 9.176h1.03V8.138h-1.03zM56.795 9.176h1.032V8.138h-1.032zM24.724 9.155h.991v-.997h-.991zM23.763 8.969h.62v-.624h-.62zM22.873 8.71h.106v-.106h-.106zM67.937 11.225h1.032v-1.038h-1.032zM60.234 10.33h1.031V9.29h-1.03zM56.795 10.33h1.032V9.29h-1.032zM57.941 10.33h1.032V9.29h-1.032zM39.603 10.33h1.03V9.29h-1.03zM55.649 10.33h1.031V9.29h-1.031zM38.46 10.325h1.025v-1.03H38.46zM37.462 10.176h.73v-.732h-.73zM36.604 9.888h.153v-.155h-.153zM72.146 18.372h1.03v-1.038h-1.03zM69.779 10.716h1.03V9.678h-1.03zM66.36 13.078h1.03v-1.037h-1.03zM60.234 11.482h1.031v-1.037h-1.03zM59.088 11.482h1.03v-1.037h-1.03zM57.941 11.482h1.032v-1.037h-1.032zM56.795 11.482h1.032v-1.037h-1.032zM55.649 11.482h1.031v-1.037h-1.031zM54.503 11.482h1.032v-1.037h-1.032zM53.358 11.482h1.03v-1.037h-1.03zM52.33 11.362h.793v-.798h-.793zM51.492 11.053h.178v-.18h-.178zM59.088 12.636h1.03V11.6h-1.03zM57.941 12.636h1.032V11.6h-1.032zM56.795 12.636h1.032V11.6h-1.032zM55.649 12.636h1.031V11.6h-1.031zM17.826 12.636h1.032V11.6h-1.032zM16.68 12.636h1.031V11.6h-1.03zM7.51 12.636h1.032V11.6H7.51zM6.48 12.52h.8v-.806h-.8zM5.658 12.194h.153v-.155h-.153zM31.58 13.79h1.031v-1.038h-1.03zM44.188 13.79h1.03v-1.038h-1.03zM57.941 13.79h1.032v-1.038h-1.032zM56.795 13.79h1.032v-1.038h-1.032zM55.649 13.79h1.031v-1.038h-1.031zM54.503 13.79h1.032v-1.038h-1.032zM52.211 13.79h1.031v-1.038h-1.031zM7.51 13.79h1.032v-1.038H7.51zM49.919 13.79h1.03v-1.038h-1.03zM6.514 13.64h.732v-.737h-.732zM5.68 13.324h.106v-.107H5.68zM59.088 14.943h1.03v-1.038h-1.03zM57.941 14.943h1.032v-1.038h-1.032zM56.795 14.943h1.032v-1.038h-1.032zM55.649 14.943h1.031v-1.038h-1.031zM54.503 14.943h1.032v-1.038h-1.032zM20.119 14.943h1.031v-1.038h-1.031zM41.895 14.943h1.032v-1.038h-1.032zM51.064 14.943h1.032v-1.038h-1.032zM18.978 14.936h1.02V13.91h-1.02zM18.033 14.733h.616v-.619h-.616zM59.088 16.096h1.03v-1.039h-1.03zM57.941 16.096h1.032v-1.039h-1.032zM56.795 16.096h1.032v-1.039h-1.032zM55.649 16.096h1.031v-1.039h-1.031zM54.503 16.096h1.032v-1.039h-1.032zM53.358 16.096h1.03v-1.039h-1.03zM47.627 16.096h1.03v-1.039h-1.03zM51.064 16.096h1.032v-1.039h-1.032zM9.803 16.096h1.03v-1.039h-1.03zM8.677 16.076h.992v-.997h-.992zM7.828 15.777h.396v-.399h-.396zM36.165 17.249h1.031V16.21h-1.031zM67.168 17.249H68.2V16.21h-1.03zM47.627 17.249h1.03V16.21h-1.03zM56.795 17.249h1.032V16.21h-1.032zM55.649 17.249h1.031V16.21h-1.031zM54.503 17.249h1.032V16.21h-1.032zM53.358 17.249h1.03V16.21h-1.03zM52.211 17.249h1.031V16.21h-1.031zM51.064 17.249h1.032V16.21h-1.032zM49.919 17.249h1.03V16.21h-1.03zM48.772 17.249h1.031V16.21h-1.03zM35.092 17.176h.886v-.892h-.886zM34.303 16.816h.17v-.172h-.17zM63.672 18.403h1.032v-1.038h-1.032zM62.526 18.403h1.031v-1.038h-1.03zM31.58 18.403h1.031v-1.038h-1.03zM32.726 18.403h1.032v-1.038h-1.032zM56.795 18.403h1.032v-1.038h-1.032zM55.649 18.403h1.031v-1.038h-1.031zM54.503 18.403h1.032v-1.038h-1.032zM53.358 18.403h1.03v-1.038h-1.03zM30.434 18.403h1.03v-1.038h-1.03zM47.627 18.403h1.03v-1.038h-1.03zM44.188 18.403h1.03v-1.038h-1.03zM48.772 18.403h1.031v-1.038h-1.03zM29.29 18.4h1.027v-1.033H29.29zM28.34 18.204h.635v-.64h-.636zM63.672 19.556h1.032v-1.038h-1.032zM62.526 19.556h1.031v-1.038h-1.03zM61.38 19.556h1.031v-1.038H61.38zM52.211 19.556h1.031v-1.038h-1.031zM59.088 19.556h1.03v-1.038h-1.03zM57.941 19.556h1.032v-1.038h-1.032zM37.311 19.556h1.031v-1.038h-1.03zM36.165 19.556h1.031v-1.038h-1.031zM54.503 19.556h1.032v-1.038h-1.032zM53.358 19.556h1.03v-1.038h-1.03zM51.064 19.556h1.032v-1.038h-1.032zM21.265 19.556h1.03v-1.038h-1.03zM49.919 19.556h1.03v-1.038h-1.03zM20.119 19.556h1.031v-1.038h-1.031zM63.672 20.71h1.032v-1.038h-1.032zM41.895 20.71h1.032v-1.038h-1.032zM60.234 20.71h1.031v-1.038h-1.03zM73.987 31.342h1.032v-1.037h-1.032zM57.941 20.71h1.032v-1.038h-1.032zM56.795 20.71h1.032v-1.038h-1.032zM55.649 20.71h1.031v-1.038h-1.031zM54.503 20.71h1.032v-1.038h-1.032zM53.358 20.71h1.03v-1.038h-1.03zM30.434 20.71h1.03v-1.038h-1.03zM51.064 20.71h1.032v-1.038h-1.032zM49.919 20.71h1.03v-1.038h-1.03zM39.603 20.71h1.03v-1.038h-1.03zM.807 20.535h.683v-.688H.807zM71.336 15.196h1.031v-1.038h-1.03zM76.355 28.166h1.031v-1.038h-1.031zM68.727 18.108h1.031v-1.039h-1.031zM60.234 21.863h1.031v-1.038h-1.03zM59.088 21.863h1.03v-1.038h-1.03zM57.941 21.863h1.032v-1.038h-1.032zM56.795 21.863h1.032v-1.038h-1.032zM55.649 21.863h1.031v-1.038h-1.031zM54.503 21.863h1.032v-1.038h-1.032zM53.358 21.863h1.03v-1.038h-1.03zM52.211 21.863h1.031v-1.038h-1.031zM10.948 21.863h1.032v-1.038h-1.032zM49.919 21.863h1.03v-1.038h-1.03zM48.772 21.863h1.031v-1.038h-1.03zM47.627 21.863h1.03v-1.038h-1.03zM17.826 21.863h1.032v-1.038h-1.032zM55.649 23.016h1.031v-1.038h-1.031zM54.503 23.016h1.032v-1.038h-1.032zM53.358 23.016h1.03v-1.038h-1.03zM52.211 23.016h1.031v-1.038h-1.031zM51.064 23.016h1.032v-1.038h-1.032zM43.041 23.016h1.031v-1.038h-1.03zM48.772 23.016h1.031v-1.038h-1.03zM47.627 23.016h1.03v-1.038h-1.03zM45.334 23.016h1.031v-1.038h-1.031zM51.064 24.17h1.032v-1.038h-1.032zM55.649 24.17h1.031v-1.038h-1.031zM54.503 24.17h1.032v-1.038h-1.032zM16.68 24.17h1.031v-1.038h-1.03zM52.211 24.17h1.031v-1.038h-1.031zM30.434 24.17h1.03v-1.038h-1.03zM49.919 24.17h1.03v-1.038h-1.03zM33.872 24.17h1.031v-1.038h-1.03zM39.603 24.17h1.03v-1.038h-1.03zM63.672 25.323h1.032v-1.038h-1.032zM62.526 25.323h1.031v-1.038h-1.03zM65.834 22.078h1.03V21.04h-1.03zM60.234 25.323h1.031v-1.038h-1.03zM59.088 25.323h1.03v-1.038h-1.03zM47.627 25.323h1.03v-1.038h-1.03zM48.772 25.323h1.031v-1.038h-1.03zM39.603 25.323h1.03v-1.038h-1.03zM35.019 25.323h1.03v-1.038h-1.03zM53.358 25.323h1.03v-1.038h-1.03zM38.457 25.323h1.03v-1.038h-1.03zM51.064 25.323h1.032v-1.038h-1.032zM46.48 25.323h1.031v-1.038H46.48zM9.803 25.323h1.03v-1.038h-1.03zM45.334 25.323h1.031v-1.038h-1.031zM44.188 25.323h1.03v-1.038h-1.03zM43.041 25.323h1.031v-1.038h-1.03zM8.67 25.311h1.006v-1.013H8.669zM7.85 24.982h.352v-.355H7.85zM63.672 26.476h1.032V25.44h-1.032zM62.526 26.476h1.031V25.44h-1.03zM60.234 26.476h1.031V25.44h-1.03zM59.088 26.476h1.03V25.44h-1.03zM57.941 26.476h1.032V25.44h-1.032zM56.795 26.476h1.032V25.44h-1.032zM55.649 26.476h1.031V25.44h-1.031zM54.503 26.476h1.032V25.44h-1.032zM25.85 26.476h1.03V25.44h-1.03zM52.211 26.476h1.031V25.44h-1.031zM51.064 26.476h1.032V25.44h-1.032zM49.919 26.476h1.03V25.44h-1.03zM47.627 26.476h1.03V25.44h-1.03zM46.48 26.476h1.031V25.44H46.48zM24.703 26.476h1.03V25.44h-1.03zM44.188 26.476h1.03V25.44h-1.03zM73.441 23.136h1.031V22.1h-1.031zM68.727 29.49h1.031v-1.038h-1.031zM61.38 27.63h1.031v-1.037H61.38zM60.234 27.63h1.031v-1.037h-1.03zM59.088 27.63h1.03v-1.037h-1.03zM57.941 27.63h1.032v-1.037h-1.032zM46.48 27.63h1.031v-1.037H46.48zM55.649 27.63h1.031v-1.037h-1.031zM54.503 27.63h1.032v-1.037h-1.032zM53.358 27.63h1.03v-1.037h-1.03zM52.211 27.63h1.031v-1.037h-1.031zM49.919 27.63h1.03v-1.037h-1.03zM48.772 27.63h1.031v-1.037h-1.03zM47.627 27.63h1.03v-1.037h-1.03zM45.334 27.63h1.031v-1.037h-1.031zM28.141 27.63h1.031v-1.037h-1.03zM69.515 27.901h1.031v-1.037h-1.03zM73.199 28.166h1.03v-1.038H73.2zM51.064 28.784h1.032v-1.039h-1.032zM59.088 28.784h1.03v-1.039h-1.03zM57.941 28.784h1.032v-1.039h-1.032zM56.795 28.784h1.032v-1.039h-1.032zM48.772 28.784h1.031v-1.039h-1.03zM22.41 28.784h1.031v-1.039h-1.03zM53.358 28.784h1.03v-1.039h-1.03zM52.211 28.784h1.031v-1.039h-1.031zM49.919 28.784h1.03v-1.039h-1.03zM7.51 28.784h1.032v-1.039H7.51zM47.627 28.784h1.03v-1.039h-1.03zM41.895 28.784h1.032v-1.039h-1.032zM10.948 28.784h1.032v-1.039h-1.032zM24.703 28.784h1.03v-1.039h-1.03zM63.672 29.937h1.032v-1.038h-1.032zM74.363 26.76h1.032v-1.038h-1.032zM61.38 29.937h1.031v-1.038H61.38zM60.234 29.937h1.031v-1.038h-1.03zM59.088 29.937h1.03v-1.038h-1.03zM57.941 29.937h1.032v-1.038h-1.032zM56.795 29.937h1.032v-1.038h-1.032zM55.649 29.937h1.031v-1.038h-1.031zM54.503 29.937h1.032v-1.038h-1.032zM53.358 29.937h1.03v-1.038h-1.03zM14.387 29.937h1.032v-1.038h-1.032zM39.603 29.937h1.03v-1.038h-1.03zM49.919 29.937h1.03v-1.038h-1.03zM20.119 29.937h1.031v-1.038h-1.031zM47.627 29.937h1.03v-1.038h-1.03zM22.41 29.937h1.031v-1.038h-1.03zM32.726 29.937h1.032v-1.038h-1.032zM44.188 29.937h1.03v-1.038h-1.03zM63.672 31.09h1.032v-1.037h-1.032zM71.883 20.225h1.032v-1.038h-1.032zM60.234 31.09h1.031v-1.037h-1.03zM59.088 31.09h1.03v-1.037h-1.03zM57.941 31.09h1.032v-1.037h-1.032zM56.795 31.09h1.032v-1.037h-1.032zM55.649 31.09h1.031v-1.037h-1.031zM54.503 31.09h1.032v-1.037h-1.032zM53.358 31.09h1.03v-1.037h-1.03zM25.85 31.09h1.03v-1.037h-1.03zM41.895 31.09h1.032v-1.037h-1.032zM49.919 31.09h1.03v-1.037h-1.03zM23.556 31.09h1.032v-1.037h-1.032zM47.627 31.09h1.03v-1.037h-1.03zM46.48 31.09h1.031v-1.037H46.48zM45.334 31.09h1.031v-1.037h-1.031zM32.726 31.09h1.032v-1.037h-1.032zM17.83 31.086h1.024v-1.03H17.83zM16.985 30.783h.421v-.424h-.42zM63.672 32.243h1.032v-1.037h-1.032zM67.411 32.137h1.031v-1.038h-1.03zM68.99 46.43h1.03v-1.037h-1.03zM57.941 32.243h1.032v-1.037h-1.032zM56.795 32.243h1.032v-1.037h-1.032z"/>
        <path fill="#D51A7C" d="M68.2 46.96h1.031v-1.037h-1.03zM54.503 32.243h1.032v-1.037h-1.032zM25.85 32.243h1.03v-1.037h-1.03zM52.211 32.243h1.031v-1.037h-1.031zM35.019 32.243h1.03v-1.037h-1.03zM49.919 32.243h1.03v-1.037h-1.03zM45.334 32.243h1.031v-1.037h-1.031zM23.556 32.243h1.032v-1.037h-1.032zM44.188 32.243h1.03v-1.037h-1.03zM43.041 32.243h1.031v-1.037h-1.03zM41.895 32.243h1.032v-1.037h-1.032zM63.672 33.396h1.032V32.36h-1.032zM67.674 26.578h1.032V25.54h-1.032zM61.38 33.396h1.031V32.36H61.38zM60.234 33.396h1.031V32.36h-1.03zM59.088 33.396h1.03V32.36h-1.03zM37.311 33.396h1.031V32.36h-1.03zM56.795 33.396h1.032V32.36h-1.032zM55.649 33.396h1.031V32.36h-1.031zM22.41 33.396h1.031V32.36h-1.03zM52.211 33.396h1.031V32.36h-1.031zM51.064 33.396h1.032V32.36h-1.032zM33.872 33.396h1.031V32.36h-1.03zM17.826 33.396h1.032V32.36h-1.032zM31.58 33.396h1.031V32.36h-1.03zM44.188 33.396h1.03V32.36h-1.03zM43.041 33.396h1.031V32.36h-1.03zM42.12 33.171h.583v-.585h-.583zM71.753 34.55h1.032v-1.038h-1.032zM61.38 34.55h1.031v-1.038H61.38zM38.457 34.55h1.03v-1.038h-1.03zM59.088 34.55h1.03v-1.038h-1.03zM57.941 34.55h1.032v-1.038h-1.032zM56.795 34.55h1.032v-1.038h-1.032zM52.211 34.55h1.031v-1.038h-1.031zM54.503 34.55h1.032v-1.038h-1.032zM14.387 34.55h1.032v-1.038h-1.032zM51.064 34.55h1.032v-1.038h-1.032zM49.919 34.55h1.03v-1.038h-1.03zM48.772 34.55h1.031v-1.038h-1.03zM7.51 34.55h1.032v-1.038H7.51zM47.627 34.55h1.03v-1.038h-1.03zM46.48 34.55h1.031v-1.038H46.48zM44.188 34.55h1.03v-1.038h-1.03zM16.68 34.55h1.031v-1.038h-1.03zM18.036 34.339h.611v-.615h-.611zM63.672 35.703h1.032v-1.037h-1.032zM62.526 35.703h1.031v-1.037h-1.03zM61.38 35.703h1.031v-1.037H61.38zM60.234 35.703h1.031v-1.037h-1.03zM59.088 35.703h1.03v-1.037h-1.03zM57.941 35.703h1.032v-1.037h-1.032zM58.73 51.725h1.032v-1.038H58.73zM45.334 35.703h1.031v-1.037h-1.031zM31.58 35.703h1.031v-1.037h-1.03zM53.358 35.703h1.03v-1.037h-1.03zM52.211 35.703h1.031v-1.037h-1.031zM37.311 35.703h1.031v-1.037h-1.03zM49.919 35.703h1.03v-1.037h-1.03zM15.534 35.703h1.03v-1.037h-1.03zM40.749 35.703h1.031v-1.037H40.75zM14.387 35.703h1.032v-1.037h-1.032zM44.188 35.703h1.03v-1.037h-1.03zM43.041 35.703h1.031v-1.037h-1.03zM24.913 35.493h.612v-.615h-.612zM67.937 33.99h1.032v-1.038h-1.032zM75.04 38.225h1.03v-1.037h-1.03zM59.088 36.857h1.03v-1.038h-1.03zM57.941 36.857h1.032v-1.038h-1.032zM55.649 36.857h1.031v-1.038h-1.031zM54.503 36.857h1.032v-1.038h-1.032zM26.995 36.857h1.032v-1.038h-1.032zM48.772 36.857h1.031v-1.038h-1.03zM52.211 36.857h1.031v-1.038h-1.031zM51.064 36.857h1.032v-1.038h-1.032zM49.919 36.857h1.03v-1.038h-1.03zM41.895 36.857h1.032v-1.038h-1.032zM24.703 36.857h1.03v-1.038h-1.03zM45.334 36.857h1.031v-1.038h-1.031zM43.041 36.857h1.031v-1.038h-1.03zM40.975 36.63h.579v-.582h-.579zM63.672 38.01h1.032v-1.038h-1.032zM62.526 38.01h1.031v-1.038h-1.03zM68.727 39.019h1.031V37.98h-1.031zM60.234 38.01h1.031v-1.038h-1.03zM59.088 38.01h1.03v-1.038h-1.03zM57.941 38.01h1.032v-1.038h-1.032zM63.202 48.813h1.032v-1.038h-1.032zM45.334 38.01h1.031v-1.038h-1.031zM40.749 38.01h1.031v-1.038H40.75zM52.211 38.01h1.031v-1.038h-1.031zM49.919 38.01h1.03v-1.038h-1.03zM47.627 38.01h1.03v-1.038h-1.03zM46.48 38.01h1.031v-1.038H46.48zM31.58 38.01h1.031v-1.038h-1.03zM44.188 38.01h1.03v-1.038h-1.03zM35.019 38.01h1.03v-1.038h-1.03zM63.687 39.15h1.003v-1.01h-1.003zM61.38 39.164h1.031v-1.038H61.38zM60.234 39.164h1.031v-1.038h-1.03zM59.088 39.164h1.03v-1.038h-1.03zM57.941 39.164h1.032v-1.038h-1.032zM35.019 39.164h1.03v-1.038h-1.03zM54.503 39.164h1.032v-1.038h-1.032zM52.211 39.164h1.031v-1.038h-1.031zM49.919 39.164h1.03v-1.038h-1.03zM25.85 39.164h1.03v-1.038h-1.03zM38.457 39.164h1.03v-1.038h-1.03zM46.48 39.164h1.031v-1.038H46.48zM45.334 39.164h1.031v-1.038h-1.031zM44.188 39.164h1.03v-1.038h-1.03zM37.314 39.16h1.024v-1.03h-1.024zM63.91 40.08h.557v-.562h-.557zM62.541 40.303h1.003v-1.009H62.54zM61.38 40.317h1.031V39.28H61.38zM62.656 46.43h1.03v-1.037h-1.03zM57.941 40.317h1.032V39.28h-1.032zM56.795 40.317h1.032V39.28h-1.032zM55.649 40.317h1.031V39.28h-1.031zM54.503 40.317h1.032V39.28h-1.032zM53.358 40.317h1.03V39.28h-1.03zM52.211 40.317h1.031V39.28h-1.031zM51.064 40.317h1.032V39.28h-1.032zM49.919 40.317h1.03V39.28h-1.03zM48.772 40.317h1.031V39.28h-1.03zM38.457 40.317h1.03V39.28h-1.03zM28.158 40.301h1v-1.005h-1zM62.763 41.232h.558v-.561h-.558zM60.234 49.603h1.031v-1.039h-1.03zM59.088 41.471h1.03v-1.038h-1.03zM57.941 41.471h1.032v-1.038h-1.032zM23.556 41.471h1.032v-1.038h-1.032zM55.649 41.471h1.031v-1.038h-1.031zM54.503 41.471h1.032v-1.038h-1.032zM26.995 41.471h1.032v-1.038h-1.032zM47.627 41.471h1.03v-1.038h-1.03zM46.48 41.471h1.031v-1.038H46.48zM45.334 41.471h1.031v-1.038h-1.031zM43.088 41.425h.938v-.945h-.938zM60.248 42.61h1.004V41.6h-1.004zM59.088 42.624h1.03v-1.038h-1.03zM57.941 42.624h1.032v-1.038h-1.032zM55.649 42.624h1.031v-1.038h-1.031zM54.503 42.624h1.032v-1.038h-1.032zM53.358 42.624h1.03v-1.038h-1.03zM52.211 42.624h1.031v-1.038h-1.031zM45.334 42.624h1.031v-1.038h-1.031zM46.48 42.624h1.031v-1.038H46.48zM44.188 42.624h1.03v-1.038h-1.03zM43.151 42.515h.813v-.819h-.813zM57.03 43.541h.562v-.565h-.562zM38.471 43.763h1.003v-1.01h-1.003zM43.041 43.778h1.031V42.74h-1.03zM55.649 43.778h1.031V42.74h-1.031zM54.503 43.778h1.032V42.74h-1.032zM53.358 43.778h1.03V42.74h-1.03zM52.211 43.778h1.031V42.74h-1.031zM51.064 43.778h1.032V42.74h-1.032zM29.288 43.778h1.031V42.74h-1.031zM46.48 43.778h1.031V42.74H46.48zM47.627 43.778h1.03V42.74h-1.03zM45.334 43.778h1.031V42.74h-1.031zM44.188 43.778h1.03V42.74h-1.03zM42.105 43.566h.612v-.615h-.612zM57.956 44.916h1.003v-1.01h-1.003zM48.772 44.93h1.031v-1.037h-1.03zM55.649 44.93h1.031v-1.037h-1.031zM54.503 44.93h1.032v-1.037h-1.032zM53.358 44.93h1.03v-1.037h-1.03zM49.919 44.93h1.03v-1.037h-1.03zM39.603 44.93h1.03v-1.037h-1.03zM47.627 44.93h1.03v-1.037h-1.03zM45.334 44.93h1.031v-1.037h-1.031zM58.176 45.848h.563v-.566h-.563zM56.81 46.07h1.003v-1.01H56.81zM47.627 46.084h1.03v-1.037h-1.03zM54.503 46.084h1.032v-1.037h-1.032zM32.726 46.084h1.032v-1.037h-1.032zM38.457 46.084h1.03v-1.037h-1.03zM49.919 46.084h1.03v-1.037h-1.03zM37.311 46.084h1.031v-1.037h-1.03zM40.749 46.084h1.031v-1.037H40.75zM45.334 46.084h1.031v-1.037h-1.031zM36.236 46.014h.89v-.896h-.89zM57.03 47h.562v-.565h-.562zM55.661 47.225h1.008v-1.013H55.66zM30.434 47.238h1.03V46.2h-1.03zM24.703 47.238h1.03V46.2h-1.03zM52.211 47.238h1.031V46.2h-1.031zM38.457 47.238h1.03V46.2h-1.03zM49.919 47.238h1.03V46.2h-1.03zM48.772 47.238h1.031V46.2h-1.03zM46.48 47.238h1.031V46.2H46.48zM45.334 47.238h1.031V46.2h-1.031zM44.394 47.031h.619v-.623h-.62zM55.885 48.155h.562v-.566h-.562zM54.515 48.379h1.007v-1.014h-1.007zM53.358 48.391h1.03v-1.037h-1.03zM52.211 48.391h1.031v-1.037h-1.031zM51.064 48.391h1.032v-1.037h-1.032zM48.772 48.391h1.031v-1.037h-1.03zM39.603 48.391h1.03v-1.037h-1.03zM45.366 48.359h.967v-.973h-.967zM53.371 49.53h1.003v-1.009h-1.003zM51.064 49.544h1.032v-1.038h-1.032zM49.919 49.544h1.03v-1.038h-1.03zM48.772 49.544h1.031v-1.038h-1.03zM47.627 49.544h1.03v-1.038h-1.03zM45.504 49.373h.691v-.696h-.691zM53.59 50.461h.564v-.565h-.563zM51.064 50.698h1.032v-1.039h-1.032zM24.703 50.698h1.03v-1.039h-1.03zM48.772 50.698h1.031v-1.039h-1.03zM47.627 50.698h1.03v-1.039h-1.03zM52.448 51.613h.557v-.561h-.557zM51.077 51.84h1.006v-1.015h-1.006zM37.311 51.85h1.031v-1.037h-1.03zM47.627 51.85h1.03v-1.037h-1.03zM46.672 51.658h.648v-.65h-.648zM49.947 52.976h.975v-.981h-.975zM48.779 52.999h1.02v-1.026h-1.02zM47.73 52.9h.824v-.83h-.825zM46.91 52.571h.17V52.4h-.17zM39.938 53.821h.36v-.362h-.36zM38.906 53.706h.133v-.134h-.133zM40.749 58.772h1.031v-1.038H40.75zM39.617 58.757h1.004v-1.01h-1.004zM38.701 58.526h.542v-.546h-.542zM37.311 59.925h1.031v-1.038h-1.03zM49.919 59.925h1.03v-1.038h-1.03zM36.193 59.897h.975v-.982h-.975zM35.402 59.539h.264v-.265h-.264zM45.334 61.078h1.031v-1.037h-1.031zM44.193 61.073h1.02v-1.026h-1.02zM43.381 60.736h.352v-.354h-.352z"/>
        <path stroke="#D61A7D" stroke-linecap="round" stroke-linejoin="round" stroke-width="2.7" d="M63.7 4.362a31.819 31.819 0 0 1 12.942-2.753c17.55 0 31.99 14.532 31.99 32.192s-14.44 32.192-31.99 32.192c-10.171 0-19.756-4.883-25.778-13.133"/>
    </g>
</svg>
