<svg xmlns="http://www.w3.org/2000/svg" xmlns:xlink="http://www.w3.org/1999/xlink" width="68" height="65" viewBox="0 0 68 65">
    <defs>
        <path id="a" d="M0 .75h64.25V65H0z"/>
        <path id="c" d="M0 65h68V1H0z"/>
    </defs>
    <g fill="none" fill-rule="evenodd">
        <mask id="b" fill="#fff">
            <use xlink:href="#a"/>
        </mask>
        <path fill="#D51A7C" d="M32.125.75C14.41.75 0 15.16 0 32.875 0 50.589 14.41 65 32.125 65c.712 0 1.293-.58 1.293-1.293V58.89a1.294 1.294 0 0 0-2.586 0v3.497c-15.2-.658-27.56-13.02-28.218-28.218h3.497c.712 0 1.293-.58 1.293-1.293 0-.712-.58-1.293-1.293-1.293H2.614c.658-15.198 13.019-27.56 28.218-28.218v3.497a1.294 1.294 0 0 0 2.586 0V3.364c15.199.658 27.56 13.02 28.217 28.218H58.14c-.713 0-1.293.58-1.293 1.293 0 .712.58 1.293 1.293 1.293h4.818c.712 0 1.293-.58 1.293-1.293C64.25 15.16 49.839.75 32.125.75" mask="url(#b)"/>
        <path fill="#D51A7C" d="M40.257 60v-2.404l7.261-9.185c.41-.526.735-1.07.973-1.63.239-.563.359-1.092.359-1.59v-.027c0-.797-.244-1.418-.731-1.862-.487-.444-1.179-.666-2.076-.666-.84 0-1.526.24-2.056.72s-.852 1.164-.966 2.052v.013H40v-.013c.257-1.72.911-3.052 1.961-3.995 1.05-.942 2.401-1.413 4.054-1.413 1.87 0 3.316.454 4.338 1.359 1.021.906 1.532 2.183 1.532 3.832v.014c0 .697-.153 1.428-.457 2.193a8.972 8.972 0 0 1-1.276 2.195l-6.028 7.772H52V60H40.257z"/>
        <mask id="d" fill="#fff">
            <use xlink:href="#c"/>
        </mask>
        <path fill="#D51A7C" d="M63.718 60h2.767V48.814h-2.767V60zM55 57.073V54.76L61.786 41h2.919l-6.618 13.603H68v2.47H55zM33.995 33.387a1.501 1.501 0 0 0-.497-1.012l-10.165-9.023a1.365 1.365 0 0 0-1.033-.347c-.378.033-.72.218-.965.522a1.521 1.521 0 0 0-.33 1.084c.031.396.207.754.496 1.011l10.166 9.024c.11.098.233.178.364.235v.001a1.372 1.372 0 0 0 1.633-.41c.245-.303.362-.689.331-1.085" mask="url(#d)"/>
        <path fill="#D51A7C" d="M41.287 17.658L31.249 32.692A1.487 1.487 0 0 0 32.481 35a1.48 1.48 0 0 0 1.232-.659L43.75 19.308a1.483 1.483 0 0 0-2.464-1.65z" mask="url(#d)"/>
        <path fill="#D51A7C" d="M32 35a2 2 0 1 1 0-4 2 2 0 0 1 0 4z" mask="url(#d)"/>
    </g>
</svg>
