<svg xmlns="http://www.w3.org/2000/svg" width="166" height="166" viewBox="0 0 166 166">
    <g fill="none" fill-rule="evenodd">
        <circle cx="83" cy="83" r="83" fill="#FFF"/>
        <g fill-rule="nonzero" stroke="#FFF" stroke-width=".8">
            <path fill="#512D6E" d="M113.386 42.526A1.6 1.6 0 0 0 112.2 42H54.6a1.6 1.6 0 0 0-1.592 1.758l7.373 74.107a6.698 6.698 0 0 0 6.687 6.055h32.664a6.699 6.699 0 0 0 6.687-6.055l2.184-21.95a1.6 1.6 0 0 0-3.185-.317l-2.183 21.95a3.509 3.509 0 0 1-3.503 3.172H67.068a3.509 3.509 0 0 1-3.503-3.172L56.367 45.2h3.216l6.83 68.638a1.6 1.6 0 0 0 1.591 1.442h30.792a1.6 1.6 0 0 0 1.592-1.442l6.829-68.638h3.216l-3.585 36.034a1.6 1.6 0 0 0 3.184.317l3.76-37.793a1.6 1.6 0 0 0-.406-1.232zm-16.04 69.554H69.454l-4.968-49.926c5.433-3.621 12.691-3.454 17.952.508A18.58 18.58 0 0 0 93.7 66.428c2.954 0 5.801-.68 8.387-1.982l-4.74 47.634zm5.132-51.574c-5.45 3.734-12.802 3.602-18.115-.4A18.58 18.58 0 0 0 73.1 56.34c-3.176 0-6.23.786-8.967 2.286L62.8 45.2H104l-1.523 15.306z"/>
            <path fill="#D61A7D" d="M85.38 74.529a2.468 2.468 0 0 0-1.98-1.001c-.778 0-1.518.374-1.98 1.001l-6.631 9.01a10.695 10.695 0 0 0 1.051 13.898 10.62 10.62 0 0 0 7.56 3.131c2.856 0 5.541-1.112 7.56-3.131a10.697 10.697 0 0 0 3.101-6.754 10.698 10.698 0 0 0-2.05-7.144l-6.631-9.01zm3.317 20.645a7.442 7.442 0 0 1-5.297 2.194 7.442 7.442 0 0 1-5.297-2.194 7.449 7.449 0 0 1-.737-9.738l6.034-8.198 6.034 8.198a7.449 7.449 0 0 1-.737 9.738z"/>
            <path fill="#512D6E" d="M107.724 86.992c-.421 0-.834.171-1.132.469-.297.297-.468.71-.468 1.131 0 .42.17.834.468 1.131.298.298.71.469 1.132.469.42 0 .833-.171 1.13-.469.298-.297.47-.71.47-1.131 0-.42-.172-.834-.47-1.131a1.612 1.612 0 0 0-1.13-.469z"/>
        </g>
    </g>
</svg>
