<svg xmlns="http://www.w3.org/2000/svg" width="166" height="166" viewBox="0 0 166 166">
    <g fill="none" fill-rule="evenodd">
        <circle cx="83" cy="83" r="83" fill="#FFF"/>
        <path fill="#D51A7C" d="M71.958 68.694l6.524 17.955 1.496-7.697 9.452 7.98 2.703-3.395-9.17-7.755 7.244-2.632z"/>
        <path stroke="#512D6E" stroke-linecap="round" stroke-linejoin="round" stroke-width="2" d="M117.114 56.647a6.947 6.947 0 0 0-6.947-6.947H54.593a6.947 6.947 0 0 0-6.947 6.947v45.154h69.468V56.647zM89.327 105.274v1.737c0 .96-.777 1.737-1.737 1.737H77.17c-.96 0-1.737-.777-1.737-1.737v-1.737H40.7v3.474a3.472 3.472 0 0 0 3.473 3.473h76.415a3.472 3.472 0 0 0 3.473-3.473v-3.474H89.327z"/>
        <path fill="#512D6E" d="M115.378 110.918a2.17 2.17 0 1 1 0-4.34 2.17 2.17 0 0 1 0 4.34"/>
    </g>
</svg>
