<?xml version="1.0" encoding="utf-8"?>
<!-- Generator: Adobe Illustrator 23.0.6, SVG Export Plug-In . SVG Version: 6.00 Build 0)  -->
<svg version="1.1" id="Layer_1" xmlns="http://www.w3.org/2000/svg" xmlns:xlink="http://www.w3.org/1999/xlink" x="0px" y="0px"
	 viewBox="0 0 301 409" style="enable-background:new 0 0 301 409;" xml:space="preserve">
<style type="text/css">
	.st0{fill-rule:evenodd;clip-rule:evenodd;fill:url(#Rectangle_1_);}
	.st1{fill-rule:evenodd;clip-rule:evenodd;fill:#979797;fill-opacity:0.8;}
	.st2{fill-rule:evenodd;clip-rule:evenodd;fill:#7C2468;}
	.st3{fill:#D61A7D;}
	.st4{font-family:'Lato-Regular';}
	.st5{font-size:12px;}
	.st6{font-size:18px;}
	.st7{fill:#FFFFFF;}
	.st8{font-family:'Lato-Italic';}
	.st9{font-size:15px;}
	.st10{fill:#354154;}
	.st11{fill:none;stroke:#979797;stroke-linecap:square;}
</style>
<title>Group 16</title>
<desc>Created with Sketch.</desc>
<g id="SET-2">
	<g id="A_1.1-How-KRYSTEXXA-Works_MOA_1---Frame1" transform="translate(-45.000000, -4533.000000)">
		<g id="Group-24" transform="translate(13.000000, 3578.000000)">
			<g id="Group-12" transform="translate(2.000000, 929.000000)">
				<g id="Group-16" transform="translate(15.000000, 26.000000)">
					
						<radialGradient id="Rectangle_1_" cx="-515.5324" cy="591.8987" r="3.4083" gradientTransform="matrix(1.132798e-14 185 185 -1.132798e-14 -109335.7578 95365.9141)" gradientUnits="userSpaceOnUse">
						<stop  offset="0" style="stop-color:#EEEEEE"/>
						<stop  offset="1" style="stop-color:#4A4A4A;stop-opacity:0.8"/>
					</radialGradient>
					<rect id="Rectangle" x="73" class="st0" width="185" height="329"/>
					<polygon id="Triangle" class="st1" points="166,409 282,328 50,328 					"/>
					<polygon class="st2" points="15,131 316,131 316,152 15,152 					"/>
					<text transform="matrix(1 0 0 1 104.7662 46)" class="st3 st4 st5">URIC ACID CRYSTALS</text>
					<text transform="matrix(1 0 0 1 227.2329 46)" class="st3 st4 st5"> </text>
					<text transform="matrix(1 0 0 1 122.6885 66)" class="st3 st4 st6">BUILD UP</text>
					<text transform="matrix(1 0 0 1 110.7993 145)" class="st7 st8 st9">MINIMUM GOAL</text>
					<g id="Group-15" transform="translate(0.000000, 22.000000)">
						<text transform="matrix(1 0 0 1 19.362 18.5)" class="st10 st4 st5">10 mg/dL</text>
						<text transform="matrix(1 0 0 1 22.492 44.5)" class="st10 st4 st5">9 mg/dL</text>
						<text transform="matrix(1 0 0 1 22.492 70.5)" class="st10 st4 st5">8 mg/dL</text>
						<text transform="matrix(1 0 0 1 22.492 96.5)" class="st10 st4 st5">7 mg/dL</text>
						<text transform="matrix(1 0 0 1 22.492 122.5)" class="st7 st4 st5">6 mg/dL</text>
						<text transform="matrix(1 0 0 1 22.492 148.5)" class="st10 st4 st5">5 mg/dL</text>
						<text transform="matrix(1 0 0 1 22.492 174.5)" class="st10 st4 st5">4 mg/dL</text>
						<text transform="matrix(1 0 0 1 22.492 200.5)" class="st10 st4 st5">3 mg/dL</text>
						<text transform="matrix(1 0 0 1 22.492 226.5)" class="st10 st4 st5">2 mg/dL</text>
						<text transform="matrix(1 0 0 1 22.492 252.5)" class="st10 st4 st5">1 mg/dL</text>
						<text transform="matrix(1 0 0 1 22.492 278.5)" class="st10 st4 st5">0 mg/dL</text>
						<path id="Line" class="st11" d="M73,14h-6.6"/>
						<path class="st11" d="M73,40h-6.6"/>
						<path class="st11" d="M73,65.5h-6.6"/>
						<path class="st11" d="M73,92h-6.6"/>
						<path class="st11" d="M73,145h-6.6"/>
						<path class="st11" d="M73,171h-6.6"/>
						<path class="st11" d="M73,197h-6.6"/>
						<path class="st11" d="M73,223h-6.6"/>
						<path class="st11" d="M73,249h-6.6"/>
						<path class="st11" d="M73,275h-6.6"/>
					</g>
					<text transform="matrix(1 0 0 1 85 91)" class="st10 st4 st5">Increased risk of future flares </text>
					<text transform="matrix(1 0 0 1 118.5156 105)" class="st10 st4 st5">and joint damage</text>
					<text transform="matrix(1 0 0 1 82.1077 248)" class="st10 st4 st5">Decreased risk of future flares </text>
					<text transform="matrix(1 0 0 1 118.1073 262)" class="st10 st4 st5">and joint damage</text>
					<text transform="matrix(1 0 0 1 126.4811 204)" class="st3 st4 st5">GET INTO THE</text>
					<text transform="matrix(1 0 0 1 208.4294 204)" class="st3 st4 st5"> </text>
					<text transform="matrix(1 0 0 1 96 224)" class="st3 st4 st6">DISSOLVE ZONE</text>
				</g>
			</g>
		</g>
	</g>
</g>
</svg>
