<svg xmlns="http://www.w3.org/2000/svg" width="196" height="196" viewBox="0 0 196 196">
    <g fill="none" fill-rule="evenodd">
        <circle cx="98" cy="98" r="98" fill="#FFF"/>
        <g fill-rule="nonzero">
            <path fill="#D61A7D" d="M68.309 79.124v-2.881a1.337 1.337 0 1 0-2.673 0v2.881a1.337 1.337 0 1 0 2.673 0zM100.157 79.124v-2.881a1.337 1.337 0 1 0-2.673 0v2.881a1.336 1.336 0 1 0 2.673 0zM82.897 82c1.917 0 3.716-.8 4.936-2.196a1.337 1.337 0 0 0-2.013-1.76c-.712.815-1.778 1.282-2.923 1.282-1.146 0-2.212-.467-2.925-1.282a1.336 1.336 0 1 0-2.012 1.76C79.18 81.2 80.978 82 82.897 82z"/>
            <path fill="#512D6E" d="M127.189 53.264H67.995c-8.839 0-16.031 7.191-16.031 16.031v13.09a1.337 1.337 0 0 0 2.673 0v-13.09c0-7.366 5.993-13.358 13.358-13.358h50.337c-.02.013-.037.027-.057.039-4.387 2.955-7.12 8.02-7.12 13.319v36.648H54.637v-18.21a1.337 1.337 0 0 0-2.673 0v37.055a6.757 6.757 0 0 0 6.748 6.75h13.4v5.45a6.757 6.757 0 0 0 6.748 6.749h57.611a6.757 6.757 0 0 0 6.75-6.75v-26.44a1.337 1.337 0 0 0-2.674 0v6.856H113.83V69.295c0-7.366 5.993-13.358 13.359-13.358 7.365 0 13.358 5.992 13.358 13.358v35.904a1.336 1.336 0 1 0 2.674 0V69.295c0-8.84-7.192-16.031-16.032-16.031zm-16.034 55.352v8.787H54.637v-8.787h56.518zm-56.518 16.172v-4.71h56.518v4.71a4.08 4.08 0 0 1-4.075 4.075H58.712a4.08 4.08 0 0 1-4.075-4.075zm85.91 12.2a4.08 4.08 0 0 1-4.075 4.075H78.86a4.08 4.08 0 0 1-4.076-4.075v-5.45h65.762v5.45zm0-16.91v8.785h-28.09l.016-.023a6.76 6.76 0 0 0 1.356-4.052v-4.71h26.718z"/>
        </g>
    </g>
</svg>
