<svg xmlns="http://www.w3.org/2000/svg" width="196" height="196" viewBox="0 0 196 196">
    <g fill="none" fill-rule="evenodd">
        <circle cx="98" cy="98" r="98" fill="#FFF"/>
        <path fill="#D51A7C" d="M83 78l10.024 26.58 2.3-11.395L109.846 105 114 99.973l-14.089-11.48 11.13-3.897z"/>
        <path stroke="#512D6E" stroke-linecap="round" stroke-linejoin="round" stroke-width="2" d="M152.032 59.589c0-5.756-4.72-10.42-10.543-10.42H57.148c-5.822 0-10.543 4.664-10.543 10.42v67.731h105.427V59.589z"/>
        <path stroke="#512D6E" stroke-linecap="round" stroke-linejoin="round" stroke-width="1.4" d="M109.861 132.53v2.605c0 1.44-1.179 2.605-2.636 2.605H91.411c-1.457 0-2.636-1.165-2.636-2.605v-2.606H36.063v5.211c0 2.88 2.36 5.21 5.27 5.21h115.972c2.91 0 5.27-2.33 5.27-5.21v-5.21h-52.714z"/>
        <path fill="#FFF" d="M149.397 140.996c-1.82 0-3.294-1.458-3.294-3.256 0-1.799 1.474-3.257 3.294-3.257s3.294 1.458 3.294 3.257c0 1.798-1.475 3.256-3.294 3.256"/>
    </g>
</svg>
