<svg xmlns="http://www.w3.org/2000/svg" width="166" height="166" viewBox="0 0 166 166">
    <g fill="none" fill-rule="evenodd">
        <circle cx="83" cy="83" r="83" fill="#FFF"/>
        <g transform="translate(27 36)">
            <path fill="#512D6E" fill-rule="nonzero" stroke="#EFEFEF" stroke-width=".55" d="M105.612 36.953c-.662 0-1.197.536-1.197 1.196v46.676c0 1.979-1.611 3.59-3.59 3.59H72.1V85.66c1.745-.61 6.29-2.033 10.771-2.033 10.426 0 17.505 2.308 17.575 2.332a1.196 1.196 0 0 0 1.574-1.136V32.165c0-.56-.389-1.047-.937-1.168 0 0-.938-.21-2.542-.504a1.197 1.197 0 1 0-.433 2.354 98.81 98.81 0 0 1 1.518.291v50.096c-2.712-.711-8.734-2-16.755-2-5.214 0-10.336 1.713-11.921 2.293-1.409-.622-5.667-2.293-10.818-2.293-8.244 0-15.034 1.36-17.952 2.05V33.092c2.39-.588 9.449-2.123 17.952-2.123 4.364 0 8.106 1.358 9.574 1.972v47.096a1.197 1.197 0 0 0 1.814 1.026c.118-.07 11.976-7.153 22.5-10.661.49-.164.82-.62.82-1.136V20.197a1.196 1.196 0 0 0-1.619-1.121c-9.575 3.592-19.265 9.621-19.362 9.68a1.197 1.197 0 0 0 1.269 2.03c.088-.055 8.518-5.3 17.318-8.839V68.41c-8.17 2.84-16.7 7.474-20.346 9.55V32.165c0-.453-.256-.867-.662-1.07-.206-.102-5.11-2.52-11.306-2.52-10.814 0-19.128 2.34-19.478 2.44a1.196 1.196 0 0 0-.868 1.15v52.66a1.196 1.196 0 0 0 1.525 1.15c.083-.023 8.359-2.347 18.82-2.347 4.376 0 8.115 1.362 9.575 1.973v2.814H40.984c-1.98 0-3.59-1.61-3.59-3.59V38.149a1.197 1.197 0 0 0-2.394 0v46.676a5.99 5.99 0 0 0 5.984 5.984h59.84a5.99 5.99 0 0 0 5.984-5.984V38.149c0-.66-.535-1.196-1.196-1.196z"/>
            <path fill="#D61A7D" fill-rule="nonzero" stroke="#EFEFEF" stroke-width=".5" d="M63.996 69.934a1.197 1.197 0 1 1-.545 2.33c-6.81-1.598-14.896.53-14.976.552a1.198 1.198 0 0 1-.62-2.312c.353-.095 8.751-2.304 16.141-.57zm-16.14-6.611c.352-.096 8.75-2.304 16.14-.57a1.197 1.197 0 1 1-.545 2.33c-6.81-1.597-14.896.53-14.976.552a1.198 1.198 0 0 1-.62-2.312zm16.14-7.75a1.197 1.197 0 1 1-.545 2.33c-6.81-1.598-14.896.529-14.976.551a1.198 1.198 0 0 1-.62-2.312c.353-.096 8.751-2.302 16.141-.57zm0-7.181a1.197 1.197 0 1 1-.545 2.33c-6.81-1.598-14.896.529-14.976.551a1.197 1.197 0 0 1-.62-2.312c.353-.094 8.751-2.302 16.141-.57zm0-7.181a1.197 1.197 0 1 1-.545 2.33c-6.81-1.598-14.896.529-14.976.552a1.197 1.197 0 0 1-.62-2.312c.353-.095 8.751-2.304 16.141-.57zM87.298 60.944a1.197 1.197 0 1 1 .723 2.283c-3.474 1.097-10.519 4.676-10.59 4.712a1.2 1.2 0 0 1-1.61-.523c-.3-.59-.065-1.31.524-1.61.297-.15 7.293-3.705 10.953-4.862zm1.502-6.4c.2.63-.15 1.302-.779 1.502-3.278 1.036-9.733 4.279-10.512 4.673l-.077.039a1.2 1.2 0 0 1-1.61-.523c-.3-.59-.066-1.31.523-1.61.297-.15 7.293-3.705 10.953-4.862a1.196 1.196 0 0 1 1.502.781zm0-7.18c.2.629-.15 1.302-.779 1.501-3.278 1.036-9.733 4.28-10.512 4.673l-.077.04a1.2 1.2 0 0 1-1.61-.523c-.3-.59-.066-1.311.523-1.61.297-.151 7.293-3.706 10.953-4.863a1.196 1.196 0 0 1 1.502.781zm0-7.181c.2.63-.15 1.302-.779 1.502-3.205 1.012-9.447 4.135-10.452 4.642l-.137.07a1.2 1.2 0 0 1-1.61-.523c-.3-.59-.066-1.311.523-1.61.297-.151 7.293-3.705 10.953-4.863a1.196 1.196 0 0 1 1.502.782zm0-7.181c.2.63-.15 1.302-.779 1.502-3.474 1.097-10.519 4.676-10.59 4.712a1.2 1.2 0 0 1-1.61-.523c-.3-.59-.065-1.31.524-1.61.297-.15 7.293-3.705 10.953-4.862a1.196 1.196 0 0 1 1.502.781z"/>
            <circle cx="41" cy="35" r="10" fill="#FFF"/>
            <path fill="#512D6E" fill-rule="nonzero" d="M50.66.249a1.012 1.012 0 0 0-.789-.241l-31 4.011A1 1 0 0 0 18 5.01v35.613C16.174 38.428 13.273 37 10 37c-5.514 0-10 4.037-10 9s4.486 9 10 9 10-4.037 10-9c0-.232-.019-.46-.039-.687.013-.065.039-.124.039-.192V16.118l29-3.753v18.257C47.174 28.428 44.273 27 41 27c-5.514 0-10 4.037-10 9s4.486 9 10 9c5.464 0 9.913-3.966 9.993-8.867 0-.013.007-.024.007-.037V1a.998.998 0 0 0-.34-.751zM10 53c-4.411 0-8-3.141-8-7s3.589-7 8-7 8 3.141 8 7-3.589 7-8 7zm31-10c-4.411 0-8-3.141-8-7s3.589-7 8-7 8 3.141 8 7-3.589 7-8 7zM20 14.101V5.889l29-3.752V10.348l-29 3.753z"/>
        </g>
    </g>
</svg>
