<svg xmlns="http://www.w3.org/2000/svg" width="166" height="166" viewBox="0 0 166 166">
    <g fill="none" fill-rule="evenodd">
        <circle cx="83" cy="83" r="83" fill="#FFF"/>
        <g fill-rule="nonzero">
            <path fill="#512D6E" d="M96.165 58.663l2.88-.016.016 2.88-2.88.016z"/>
            <path fill="#512D6E" stroke="#FFF" stroke-width=".8" d="M124.97 85.973h-20.447l1.728-25.825a1.454 1.454 0 0 0-.388-1.083 1.575 1.575 0 0 0-1.052-.452l-2.88.016.014 2.88h1.333l-.344 5.15-4.176 2.318a15.9 15.9 0 0 1-14.112.62v-8l8.648-.045-.015-2.88-8.628.045v-6.514l15.173-9.648-1.547-2.437-15.84 10.08a1.44 1.44 0 0 0-.666 1.215v7.318l-20.153.104a1.44 1.44 0 0 0-1.429 1.536l1.603 24.034a24.574 24.574 0 0 0-2.016 4.817 14.313 14.313 0 0 0-12.479-7.33 1.44 1.44 0 0 0-1.44 1.44 14.217 14.217 0 0 0 2.362 7.858 7.974 7.974 0 0 0-1.728 1.152l-.418.369a17.856 17.856 0 0 0-5.486 17.952l.88 3.4a17.913 17.913 0 0 0 7.415 10.426 10.089 10.089 0 0 0 10.58.41l-.08-.144a35.002 35.002 0 0 0 8.285 1.4c.288.014.576.014.874.02v.118h18.99c21.453.019 38.86-17.357 38.88-38.811v-.07a1.44 1.44 0 0 0-1.44-1.44zm-20.998 3.665v-.785h14.341a30.888 30.888 0 0 1-18.335 26.772 30.544 30.544 0 0 1-8.378 2.349 33.047 33.047 0 0 0 5.672-6.41 39 39 0 0 0 6.7-21.926zM81.771 61.61v6.962a18.764 18.764 0 0 0-14.065 1.646l-3.833 2.13-.709-10.643 18.607-.095zm-15.633 21.4l.175-.228-1.838-1.418-.39-5.834 5.013-2.795a15.893 15.893 0 0 1 14.23-.576 18.768 18.768 0 0 0 16.821-.676l2.545-1.413-.645 9.683a4.805 4.805 0 0 0-1.046-.612l-2.151-.898a4.081 4.081 0 0 0-3.547.188 4.167 4.167 0 0 0-2.108 2.962 38.003 38.003 0 0 1-13.01 22.64 17.829 17.829 0 0 0-5.922-11.326l-.417-.369a7.834 7.834 0 0 0-10.252-.144l-1.813 1.512a21.592 21.592 0 0 1 4.355-10.696zm-7.511 11.647a11.452 11.452 0 0 1-9.782-9.782 11.458 11.458 0 0 1 9.782 9.782zm-8.148 27.436a15.044 15.044 0 0 1-6.225-8.752l-.881-3.399a14.992 14.992 0 0 1 4.615-15.075l.418-.369a5.002 5.002 0 0 1 1.746-.966 14.256 14.256 0 0 0 10.018 4.104c.092-.01.183-.028.271-.055a3.906 3.906 0 0 0 2.234-.883l2.757-2.304a4.97 4.97 0 0 1 6.503.094l.418.369a14.968 14.968 0 0 1 5.074 11.253 38.034 38.034 0 0 1-18.985 6.79l-6.377.48a1.44 1.44 0 0 0-1.332 1.44v5.245c.001.513.275.987.72 1.243l.2.118c1.178.684 2.396 1.3 3.646 1.842a7.24 7.24 0 0 1-4.82-1.175zm17.324 1.184l-.002.001a32.277 32.277 0 0 1-14.184-4.05v-3.077l5.04-.38c18.748-1.403 34.147-15.362 37.377-33.883.064-.394.305-.736.655-.929a1.2 1.2 0 0 1 1.053-.056l2.151.899a1.934 1.934 0 0 1 1.194 1.791v6.048a36.144 36.144 0 0 1-6.207 20.316 30.593 30.593 0 0 1-27.077 13.32zm19.728.135h-4.59a33.117 33.117 0 0 0 4.59-2.418v.134a33.41 33.41 0 0 0 13.613-2.871 33.768 33.768 0 0 0 20.05-29.405h2.308c-.754 19.315-16.642 34.58-35.971 34.56z"/>
            <path fill="#D61A7D" d="M106.251 91.733h2.88v2.88h-2.88zM101.931 106.133h2.88v2.88h-2.88zM106.251 100.373h2.88v2.88h-2.88z"/>
        </g>
    </g>
</svg>
