<svg xmlns="http://www.w3.org/2000/svg" width="45" height="52" viewBox="0 0 45 52">
    <g fill="none" fill-rule="evenodd">
        <path stroke="#D61A7D" stroke-width="1.8" d="M42.164 16.259l-14.408-3.13a2.237 2.237 0 0 0-.557-.123h-.01L27.158 13h-9.315l-.032.006h-.012c-.196.015-.38.062-.558.124l-6.234 1.354c-.698-.605-1.589-.982-2.572-.982-1.586 0-2.947.952-3.596 2.323l-2.003.434c-1.25.272-2.05 1.53-1.784 2.809.266 1.28 1.497 2.09 2.746 1.826l1.807-.393a3.95 3.95 0 0 0 2.83 1.2c1.7 0 3.146-1.094 3.729-2.625l3.708-.805.628 8.34-.37 9.685a4.097 4.097 0 0 0-2.16 3.615 4.11 4.11 0 0 0 1.89 3.468l-.197 5.158c-.05 1.308.945 2.41 2.223 2.46a2.1 2.1 0 0 0 .092.003c1.238 0 2.265-1.002 2.313-2.277l.216-5.658a4.115 4.115 0 0 0 .232-6.108l.093-2.4c.08-.877.791-1.565 1.668-1.565.87 0 1.577.676 1.667 1.541l.542 14.19C24.757 49.999 25.783 51 27.021 51l.092-.003c1.278-.05 2.274-1.152 2.224-2.46l-.838-21.925.151-2.014c1.827-.682 3.136-2.472 3.136-4.572 0-.419-.058-.824-.155-1.21l9.571 2.078c.162.034.325.052.484.052 1.07 0 2.03-.764 2.263-1.878.266-1.28-.534-2.537-1.785-2.81z"/>
        <path fill="#D61A7D" d="M8.5 20C7.12 20 6 18.88 6 17.5 6 16.122 7.12 15 8.5 15c1.378 0 2.5 1.122 2.5 2.5 0 1.38-1.122 2.5-2.5 2.5M18 42a2.001 2.001 0 1 1 2-2.001A2.003 2.003 0 0 1 18 42M27 23c-1.653 0-3-1.346-3-3s1.347-3 3-3c1.655 0 3 1.346 3 3s-1.345 3-3 3"/>
        <path stroke="#D61A7D" stroke-width="1.8" d="M22.5 10c2.486 0 4.5-2.014 4.5-4.5S24.986 1 22.5 1a4.5 4.5 0 1 0 0 9z"/>
    </g>
</svg>
