<svg xmlns="http://www.w3.org/2000/svg" width="137" height="137" viewBox="0 0 137 137">
    <g fill="none" fill-rule="evenodd">
        <path fill="#FFF" stroke="#EA0A8B" stroke-width="2" d="M68.5 136C31.22 136 1 105.78 1 68.5S31.22 1 68.5 1 136 31.22 136 68.5 105.78 136 68.5 136z"/>
        <g stroke="#512D6E" stroke-linecap="round" stroke-linejoin="round" stroke-width="2.5">
            <path d="M48.944 86.225c.316-10.855 9.613-19.618 20.814-19.618 11.423 0 20.821 9.112 20.821 20.187M79.224 50.836c0 5.923-4.518 10.725-10.093 10.725-5.574 0-10.094-4.802-10.094-10.725 0-5.921 4.52-10.724 10.094-10.724 5.575 0 10.093 4.803 10.093 10.724zM90.58 74.163a15.592 15.592 0 0 1 8.492-2.509c8.492 0 15.48 6.834 15.48 15.14M106.981 59.037a7.57 7.57 0 1 1-15.14 0 7.57 7.57 0 1 1 15.14 0zM47.682 74.163a15.592 15.592 0 0 0-8.493-2.509c-8.492 0-15.479 6.834-15.479 15.14M32.542 59.037a7.57 7.57 0 1 0 15.14 0 7.57 7.57 0 0 0-15.14 0z"/>
        </g>
    </g>
</svg>
