<svg xmlns="http://www.w3.org/2000/svg" xmlns:xlink="http://www.w3.org/1999/xlink" width="137" height="137" viewBox="0 0 137 137">
    <defs>
        <path id="a" d="M0 .011h60.957v60.957H0z"/>
    </defs>
    <g fill="none" fill-rule="evenodd">
        <path fill="#FFF" stroke="#EA0A8B" stroke-width="2" d="M68.5 136C31.22 136 1 105.78 1 68.5S31.22 1 68.5 1 136 31.22 136 68.5 105.78 136 68.5 136z"/>
        <g transform="translate(38.742 39.742)">
            <mask id="b" fill="#fff">
                <use xlink:href="#a"/>
            </mask>
            <path fill="#D61A7D" d="M30.478 2.873c-15.227 0-27.616 12.389-27.616 27.616 0 15.228 12.389 27.616 27.616 27.616 15.228 0 27.616-12.388 27.616-27.616 0-15.227-12.388-27.616-27.616-27.616m0 58.095c-8.14 0-15.795-3.17-21.551-8.927C3.17 46.284 0 38.63 0 30.489c0-8.14 3.17-15.794 8.927-21.551C14.683 3.181 22.337.011 30.478.011c8.141 0 15.795 3.17 21.552 8.927 5.756 5.757 8.927 13.41 8.927 21.551 0 8.141-3.17 15.795-8.927 21.552-5.757 5.756-13.41 8.927-21.552 8.927" mask="url(#b)"/>
        </g>
        <path fill="#D61A7D" d="M77.936 67.323c-2.402 0-4.355-2.28-4.355-5.081 0-2.802 1.953-5.08 4.355-5.08 2.4 0 4.354 2.278 4.354 5.08 0 2.801-1.953 5.08-4.354 5.08M60.516 67.323c-2.401 0-4.355-2.28-4.355-5.081 0-2.802 1.954-5.08 4.355-5.08 2.401 0 4.355 2.278 4.355 5.08 0 2.801-1.954 5.08-4.355 5.08M85.063 74.58c-.472 0-.915.2-1.217.55-3.622 4.186-8.951 6.587-14.62 6.587-5.67 0-10.998-2.401-14.62-6.587a1.605 1.605 0 0 0-1.217-.55c-.619 0-1.167.334-1.43.871a1.444 1.444 0 0 0 .21 1.603c4.225 4.886 10.442 7.688 17.057 7.688 6.614 0 12.831-2.802 17.056-7.688a1.444 1.444 0 0 0 .211-1.603 1.573 1.573 0 0 0-1.43-.87"/>
    </g>
</svg>
