<svg xmlns="http://www.w3.org/2000/svg" xmlns:xlink="http://www.w3.org/1999/xlink" width="30" height="38" viewBox="0 0 30 38">
    <defs>
        <path id="a" d="M0 0h30v38H0z"/>
    </defs>
    <g fill="none" fill-rule="evenodd">
        <mask id="b" fill="#fff">
            <use xlink:href="#a"/>
        </mask>
        <path fill="#7C2468" d="M26.356 36.205H3.644c-1.025 0-1.859-.84-1.859-1.871v-18.48c0-.528.425-.955.948-.955h2.042c.013 0 .025.007.031.017v.001c1.217 1.973 1.455 4.247.621 5.936-1.17 2.21-1.396 4.81-.618 7.134a2.733 2.733 0 0 0 2.59 1.872h15.202a2.733 2.733 0 0 0 2.59-1.872 9.123 9.123 0 0 0-.574-7.118c-.787-1.771-.562-4.106.577-5.953a.037.037 0 0 1 .031-.017h2.042c.523 0 .949.427.949.954v18.48a1.868 1.868 0 0 1-1.86 1.872zM23.14 2.713c.434.099.737.482.737.93l-.035 10.101c-.06.07-.115.146-.165.226a8.868 8.868 0 0 0-1.269 3.766 8.03 8.03 0 0 0 .138 2.51c-3.28-.367-6.25-.533-9.048-.503-2.006.02-4.015.236-5.967.458.437-1.973.017-4.243-1.208-6.23v-.001a1.871 1.871 0 0 0-.2-.266V3.643c0-.448.303-.831.737-.93a36.548 36.548 0 0 1 16.28 0zM7.4 28.064a.949.949 0 0 1-.9-.65c-.576-1.722-.46-3.637.309-5.322l.456-.053c2.053-.236 4.177-.48 6.252-.502 2.976-.03 6.164.166 9.73.6a7.31 7.31 0 0 1 .253 5.277.948.948 0 0 1-.899.65H7.4zM30 15.853a2.744 2.744 0 0 0-2.733-2.75h-1.638l.033-9.458v-.002a2.731 2.731 0 0 0-2.125-2.68 38.325 38.325 0 0 0-17.074 0h-.001a2.732 2.732 0 0 0-2.124 2.68v9.46H2.733A2.745 2.745 0 0 0 0 15.854v18.48C0 36.356 1.635 38 3.644 38H26.356C28.366 38 30 36.355 30 34.334V15.853z" mask="url(#b)"/>
    </g>
</svg>
