<?xml version="1.0" encoding="UTF-8"?>
<svg width="23px" height="20px" viewBox="0 0 23 20" version="1.1" xmlns="http://www.w3.org/2000/svg" xmlns:xlink="http://www.w3.org/1999/xlink">
    <!-- Generator: sketchtool 56.3 (101010) - https://sketch.com -->
    <title>AED49808-02FF-4F87-B5AE-8188A39E23BB</title>
    <desc>Created with sketchtool.</desc>
    <defs>
        <polygon id="path-1" points="1.18801653e-05 0.0422817661 22.9625775 0.0422817661 22.9625775 11.2822211 1.18801653e-05 11.2822211"></polygon>
    </defs>
    <g id="Symbols" stroke="none" stroke-width="1" fill="none" fill-rule="evenodd">
        <g id="Navigation" transform="translate(-209.000000, -16.000000)">
            <g id="MENU">
                <g id="Group-6" transform="translate(209.000000, 16.000000)">
                    <g id="Group-3">
                        <mask id="mask-2" fill="white">
                            <use xlink:href="#path-1"></use>
                        </mask>
                        <g id="Clip-2"></g>
                        <path d="M0.620643595,11.2822211 C0.461829545,11.2822211 0.302967975,11.2263566 0.181742769,11.1146714 C-0.0605650826,10.8911257 -0.0605650826,10.5288608 0.181742769,10.3053589 L11.1310733,0.209787664 C11.3734762,-0.0135827435 11.7664246,-0.0135827435 12.0088275,0.209787664 L22.780811,10.1418841 C23.0231663,10.3653859 23.0231663,10.7276508 22.780811,10.9511527 C22.5384081,11.1745231 22.1455072,11.1745231 21.9030568,10.9511527 L11.5699267,1.4236906 L1.0594969,11.1146714 C0.938319215,11.2263566 0.779410124,11.2822211 0.620643595,11.2822211" id="Fill-1" fill="#979797" mask="url(#mask-2)"></path>
                    </g>
                    <path d="M19.7330438,20 L13.7772389,20 C13.43862,20 13.1641289,19.7305405 13.1641289,19.3981288 L13.1641289,14.7264842 L9.83587112,14.7264842 L9.83587112,19.3981288 C9.83587112,19.7305405 9.56142694,20 9.22276112,20 L3.26695615,20 C2.92833728,20 2.65384615,19.7305405 2.65384615,19.3981288 L2.65384615,9.29752333 C2.65384615,8.96511164 2.92833728,8.69565217 3.26695615,8.69565217 C3.60557502,8.69565217 3.88006615,8.96511164 3.88006615,9.29752333 L3.88006615,18.7963038 L8.60969807,18.7963038 L8.60969807,14.1246591 C8.60969807,13.7922474 8.88414225,13.5227879 9.22276112,13.5227879 L13.7772389,13.5227879 C14.1158577,13.5227879 14.3903019,13.7922474 14.3903019,14.1246591 L14.3903019,18.7963038 L19.1199339,18.7963038 L19.1199339,9.29752333 C19.1199339,8.96511164 19.394425,8.69565217 19.7330438,8.69565217 C20.0716627,8.69565217 20.3461538,8.96511164 20.3461538,9.29752333 L20.3461538,19.3981288 C20.3461538,19.7305405 20.0716627,20 19.7330438,20" id="Fill-4" fill="#979797"></path>
                </g>
            </g>
        </g>
    </g>
</svg>