<svg xmlns="http://www.w3.org/2000/svg" width="29" height="40" viewBox="0 0 29 40">
    <g fill="none" fill-rule="evenodd" stroke="#7C2468" stroke-width="1.5">
        <path d="M6.7 11.605c-.72.83-1.237 1.47-1.237 1.47-1.01 1.391-1.765 2.922-2.154 4.411-.004.01-.005.023-.008.036-.38 1.873-.103 3.48.826 4.777 1.185 1.654 3.399 2.723 6.405 3.087a.503.503 0 0 0 .047.001c.202.17.407.324.618.464v1.713c-3.919.606-7.231 2.428-8.931 4.936-1.207 1.781-1.56 3.756-1.02 5.712l.087.315a.64.64 0 0 0 .616.473h24.613a.64.64 0 0 0 .617-.473l.087-.315c.54-1.956.186-3.931-1.022-5.712-1.698-2.508-5.01-4.33-8.93-4.936v-1.611c.293-.174.573-.373.843-.592 2.915-.384 5.068-1.442 6.227-3.062.928-1.298 1.206-2.904.827-4.777l-.008-.036c-.388-1.49-1.142-3.02-2.154-4.41l-1.011-1.359"/>
        <path d="M8.07 17.72c3.236-.377 5.845-1.949 7.272-4.348.91 1.738 2.462 3.146 4.197 3.765.012.206.02.413.02.618 0 2.796-1.041 5.257-2.615 6.684-.013.013-.028.024-.041.038-.898.8-1.965 1.267-3.109 1.267-2.925 0-5.505-3.687-5.724-8.024zM4.693 7.53c-.328-.928-.132-2.05.453-2.611 5.45-5.224 12.771-5.226 18.221-.002.585.561.78 1.683.45 2.622l-1.665 4.95c-2.09-2.328-4.923-4.038-7.885-4.088h-.022c-2.96.05-5.793 1.76-7.883 4.086L4.693 7.53z"/>
    </g>
</svg>
