<svg xmlns="http://www.w3.org/2000/svg" xmlns:xlink="http://www.w3.org/1999/xlink" width="137" height="137" viewBox="0 0 137 137">
    <defs>
        <path id="a" d="M0 .01h59.989V60H0z"/>
    </defs>
    <g fill="none" fill-rule="evenodd">
        <path fill="#FFF" stroke="#EA0A8B" stroke-width="2" d="M68.5 136C31.22 136 1 105.78 1 68.5S31.22 1 68.5 1 136 31.22 136 68.5 105.78 136 68.5 136z"/>
        <g transform="translate(39 39)">
            <mask id="b" fill="#fff">
                <use xlink:href="#a"/>
            </mask>
            <path fill="#D61A7D" d="M29.994 2.828C15.01 2.828 2.817 15.02 2.817 30.005c0 14.986 12.192 27.178 27.177 27.178 14.986 0 27.178-12.192 27.178-27.178 0-14.985-12.192-27.177-27.178-27.177m0 57.172c-8.011 0-15.544-3.12-21.209-8.785C3.12 45.55 0 38.017 0 30.005c0-8.011 3.12-15.544 8.785-21.209C14.45 3.131 21.983.011 29.995.011c8.011 0 15.544 3.12 21.209 8.785 5.665 5.665 8.785 13.198 8.785 21.21 0 8.011-3.12 15.544-8.785 21.209C45.539 56.88 38.006 60 29.994 60" mask="url(#b)"/>
        </g>
        <path fill="#D61A7D" d="M52.15 81.857c-.95 0-1.721-.95-1.721-2.117v-.051c0-1.168.772-2.118 1.72-2.118h33.702c.948 0 1.72.95 1.72 2.118v.05c0 1.168-.772 2.118-1.72 2.118H52.149zM77.571 66.143c-2.363 0-4.285-2.243-4.285-5s1.922-5 4.285-5c2.364 0 4.286 2.243 4.286 5s-1.922 5-4.286 5M60.429 66.143c-2.364 0-4.286-2.243-4.286-5s1.922-5 4.286-5c2.363 0 4.285 2.243 4.285 5s-1.922 5-4.285 5"/>
    </g>
</svg>
