<svg xmlns="http://www.w3.org/2000/svg" xmlns:xlink="http://www.w3.org/1999/xlink" width="230" height="284" viewBox="0 0 230 284">
    <defs>
        <path id="a" d="M.051.146h48.477V147.14H.05z"/>
        <path id="c" d="M.22.086h6.541V10H.221z"/>
        <path id="e" d="M0 .323h9.11V15H0z"/>
        <path id="g" d="M.333.475h6.539v9.915H.333z"/>
        <path id="i" d="M.523.604h9.111V15.28H.524z"/>
    </defs>
    <g fill="none" fill-rule="evenodd">
        <text fill="#555" font-family="Lato-Regular, Lato" font-size="15" letter-spacing=".045" transform="translate(147 238)">
            <tspan x=".201" y="15">ALLANTOIN</tspan> <tspan x=".021" y="33">EXCRETION</tspan>
        </text>
        <path stroke="#354154" stroke-width="3" d="M80.886 55.646c1.279-1.558 7.096-8.65 8.394-11.246 2.465-4.926 3.26-9.82 2.364-14.547-1.665-8.79-6.397-19.25-19.337-25.382-10.014-4.744-23.91-1.972-34.269 2.552C27.417 11.66 18.193 20.802 11.364 33.46-.295 55.069-1.17 88.695 9.322 111.674c4.906 10.742 10.913 19.166 17.855 25.038 5.683 4.81 11.99 7.93 18.75 9.27a38.94 38.94 0 0 0 7.586.745c7.143 0 12.188-1.946 13.037-2.296 10.195-3.653 16.869-9.396 19.84-17.072 2.057-5.312-2.175-23.344-3.915-29.957"/>
        <g transform="translate(72.8 53.86)">
            <mask id="b" fill="#fff">
                <use xlink:href="#a"/>
            </mask>
            <path fill="#354154" d="M27.404 84.01c0-9.47.119-18.5-4.419-27.2-3.851-7.388-11.26-11.047-15.386-17.717-6.992-11.299-5.718-25.82.84-36.775h-2.49l20.832 33.707c6.34 10.259 6.815 19.807 6.823 31.333.013 26.022 2.49 51.64 3.822 77.625.095 1.86 2.98 1.87 2.883 0-1.376-26.849-3.81-53.342-3.825-80.228-.007-10.79-.814-19.652-6.61-29.222C22.83 23.91 15.581 12.41 8.438.85c-.575-.928-1.92-.951-2.49 0-7.493 12.514-8.542 30.843.923 43.051 3.567 4.6 8.952 6.658 12.287 12.023 3.551 5.71 5.093 12.077 5.362 18.753.098 2.449 0 4.923 0 7.374l-5.434 63.297c0 1.869 2.883 1.872 2.883 0l5.434-61.34z" mask="url(#b)"/>
        </g>
        <path fill="#354154" d="M56.009 37.153c.438 4.316 1.93 8.778 4.383 12.34 4.708 6.827 12.262 7.978 19.804 5.746 1.762-.522 1.012-3.316-.76-2.791-7.173 2.124-13.815.73-17.642-6.137-1.523-2.732-2.613-6.056-2.929-9.158-.186-1.835-3.045-1.854-2.856 0M81.68 95.495c-8.586-4.43-18.118-.277-24.1 6.51-1.22 1.38.784 3.438 2.01 2.047 5.057-5.734 13.24-9.883 20.655-6.055 1.63.84 3.07-1.658 1.435-2.502"/>
        <g fill="#D6197D">
            <path d="M98 204.4h8.4V184H98z"/>
            <path d="M101.6 216.4L93.2 202H110z"/>
        </g>
        <g>
            <path fill="#499CD5" d="M113.648 268.119c.017-.02.032-.043.047-.065.129-.16.255-.32.383-.48a7.581 7.581 0 0 0 1.31-2.27c.03-.086.063-.175.11-.304.132.327.242.613.368.894.381.837.948 1.563 1.53 2.281.495.61 1.002 1.216 1.291 1.949.37.936.443 1.884.047 2.834-.56 1.363-2.157 2.23-3.686 2.007-1.492-.222-2.474-1.02-2.9-2.378-.294-.95-.131-1.886.32-2.772.187-.359.427-.692.645-1.04l.439-.541c.021-.027.043-.05.062-.08.013-.01.023-.023.034-.035M85.12 273.368c.02-.03.041-.058.061-.09l.492-.672a10.95 10.95 0 0 0 1.684-3.174l.138-.432c.176.458.312.86.476 1.253.488 1.173 1.22 2.187 1.968 3.192.636.856 1.286 1.705 1.658 2.727.478 1.315.569 2.64.065 3.97-.725 1.906-2.776 3.124-4.742 2.808-1.919-.308-3.183-1.429-3.729-3.33-.379-1.328-.17-2.64.411-3.876.24-.507.552-.973.83-1.457.188-.254.376-.505.563-.759.028-.036.056-.07.081-.107a1.02 1.02 0 0 1 .044-.053"/>
            <g transform="translate(95 274)">
                <mask id="d" fill="#fff">
                    <use xlink:href="#c"/>
                </mask>
                <path fill="#499CD5" d="M1.76 3.178l.045-.064.358-.476A7.64 7.64 0 0 0 3.387.388l.102-.302c.124.324.228.608.346.886.352.83.884 1.55 1.43 2.26.462.606.934 1.208 1.204 1.934.346.928.414 1.868.046 2.81-.526 1.352-2.016 2.212-3.446 1.99C1.675 9.746.757 8.954.36 7.608.083 6.666.237 5.738.659 4.86c.174-.356.4-.688.602-1.032l.41-.536.058-.078.032-.036" mask="url(#d)"/>
            </g>
            <g transform="translate(71 245)">
                <mask id="f" fill="#fff">
                    <use xlink:href="#e"/>
                </mask>
                <path fill="#499CD5" d="M2.145 4.903l.062-.094.498-.705A11.621 11.621 0 0 0 4.41.776c.042-.132.082-.262.144-.453.174.48.312.901.478 1.313.494 1.23 1.234 2.293 1.992 3.347.644.897 1.302 1.787 1.678 2.858.486 1.38.576 2.77.066 4.163-.734 1.998-2.81 3.273-4.8 2.943-1.942-.325-3.222-1.498-3.774-3.49-.384-1.393-.172-2.77.418-4.064.24-.531.556-1.02.838-1.528l.57-.795c.028-.038.056-.074.082-.112.014-.02.03-.036.044-.055" mask="url(#f)"/>
            </g>
            <path fill="#499CD5" d="M73.648 266.12l.047-.064c.129-.16.255-.32.384-.482a7.495 7.495 0 0 0 1.307-2.267c.033-.087.065-.178.11-.307.134.327.246.613.37.894.379.839.948 1.565 1.53 2.28.497.612 1.002 1.22 1.291 1.95.37.937.443 1.885.05 2.835-.564 1.364-2.158 2.231-3.689 2.005-1.492-.22-2.476-1.018-2.898-2.376-.297-.95-.133-1.888.319-2.771.186-.361.428-.696.644-1.041l.44-.54.061-.08c.013-.011.024-.023.034-.036M117.88 232.368l-.06-.089-.493-.673a10.95 10.95 0 0 1-1.683-3.174l-.14-.432c-.174.458-.31.861-.475 1.253-.488 1.173-1.219 2.187-1.967 3.194-.637.854-1.287 1.703-1.658 2.725-.48 1.315-.57 2.64-.065 3.97.725 1.906 2.776 3.124 4.741 2.808 1.919-.31 3.183-1.429 3.729-3.33.38-1.328.17-2.64-.413-3.876-.237-.507-.55-.973-.828-1.457l-.563-.759c-.028-.036-.055-.07-.081-.107l-.044-.053M122.881 251.368l-.061-.089-.492-.673c-.73-.965-1.3-2.017-1.685-3.174-.042-.126-.081-.25-.14-.432-.173.458-.311.864-.475 1.253-.488 1.173-1.217 2.189-1.966 3.194-.636.854-1.286 1.703-1.658 2.725-.48 1.315-.569 2.64-.067 3.97.727 1.908 2.778 3.124 4.742 2.808 1.92-.308 3.185-1.429 3.729-3.33.381-1.328.17-2.638-.411-3.876-.237-.507-.55-.973-.828-1.457-.188-.254-.376-.505-.563-.759-.028-.036-.056-.07-.081-.107-.014-.016-.03-.034-.044-.053M111.352 250.12l-.047-.064-.383-.482a7.546 7.546 0 0 1-1.31-2.267c-.03-.09-.062-.178-.107-.307-.135.327-.246.613-.37.894-.382.839-.949 1.565-1.529 2.28-.499.612-1.004 1.22-1.293 1.95-.37.937-.443 1.883-.05 2.833.564 1.366 2.159 2.233 3.69 2.007 1.491-.22 2.474-1.018 2.898-2.378.295-.948.133-1.886-.32-2.77-.185-.36-.427-.695-.643-1.04l-.44-.54a2.679 2.679 0 0 1-.061-.08.533.533 0 0 1-.035-.036"/>
            <g transform="translate(122 236)">
                <mask id="h" fill="#fff">
                    <use xlink:href="#g"/>
                </mask>
                <path fill="#499CD5" d="M5.334 3.567c-.016-.02-.03-.042-.044-.064l-.358-.476A7.64 7.64 0 0 1 3.708.777L3.604.475c-.124.324-.226.608-.344.886-.356.83-.884 1.55-1.43 2.26C1.368 4.227.896 4.83.626 5.555.28 6.483.212 7.423.58 8.365c.526 1.352 2.016 2.212 3.446 1.99 1.394-.22 2.312-1.012 2.708-2.358.276-.942.122-1.87-.298-2.748-.174-.356-.4-.686-.602-1.032l-.41-.536c-.02-.026-.04-.05-.058-.078l-.032-.036" mask="url(#h)"/>
            </g>
            <path fill="#499CD5" d="M106.881 236.368c-.02-.03-.041-.059-.06-.089l-.493-.673a10.992 10.992 0 0 1-1.685-3.172l-.14-.434c-.172.458-.31.864-.474 1.253-.488 1.173-1.217 2.189-1.966 3.194-.636.854-1.286 1.703-1.66 2.727-.478 1.313-.569 2.639-.065 3.969.727 1.907 2.778 3.123 4.742 2.807 1.92-.308 3.184-1.429 3.728-3.33.381-1.328.17-2.638-.411-3.876-.237-.507-.55-.973-.828-1.457l-.563-.759-.083-.107c-.014-.016-.028-.034-.042-.053M91.881 243.368l-.061-.089-.492-.673c-.73-.963-1.3-2.015-1.683-3.172l-.143-.434c-.172.458-.31.861-.474 1.255-.488 1.171-1.217 2.187-1.966 3.19-.636.856-1.286 1.705-1.658 2.729-.48 1.313-.569 2.639-.067 3.969.727 1.907 2.778 3.123 4.742 2.807 1.92-.308 3.185-1.429 3.729-3.33.381-1.328.17-2.64-.411-3.874-.237-.509-.55-.975-.828-1.457-.188-.256-.376-.507-.563-.76-.028-.037-.056-.072-.081-.108-.014-.018-.03-.034-.044-.053M95.881 262.368c-.02-.03-.041-.059-.06-.089l-.493-.673c-.729-.965-1.3-2.017-1.685-3.174-.042-.126-.081-.25-.14-.432-.172.458-.31.861-.475 1.253-.488 1.173-1.217 2.189-1.965 3.192-.637.856-1.287 1.705-1.658 2.727-.48 1.315-.571 2.64-.067 3.97.727 1.908 2.778 3.124 4.742 2.808 1.92-.308 3.184-1.429 3.728-3.33.381-1.328.17-2.64-.411-3.876-.237-.507-.55-.973-.828-1.457l-.563-.759-.083-.107-.042-.053M85.35 260.119a1.23 1.23 0 0 1-.047-.065 75.18 75.18 0 0 0-.383-.48 7.531 7.531 0 0 1-1.307-2.27 15.69 15.69 0 0 1-.11-.304c-.134.327-.244.611-.37.892-.379.839-.948 1.565-1.53 2.284-.494.609-1.002 1.216-1.29 1.946-.37.938-.443 1.887-.047 2.837.56 1.364 2.157 2.231 3.685 2.005 1.491-.22 2.476-1.019 2.902-2.376.293-.95.13-1.889-.324-2.772-.184-.361-.428-.694-.644-1.041l-.438-.541a2.679 2.679 0 0 1-.063-.079c-.012-.01-.023-.024-.034-.036M101.352 250.119l-.047-.065-.384-.48a7.53 7.53 0 0 1-1.307-2.27 15.684 15.684 0 0 1-.11-.304c-.134.327-.246.613-.37.894-.379.837-.948 1.563-1.53 2.279-.497.611-1.002 1.218-1.291 1.95-.37.937-.443 1.885-.05 2.835.564 1.363 2.158 2.23 3.689 2.007 1.492-.222 2.476-1.02 2.898-2.378.297-.95.133-1.886-.319-2.772-.186-.359-.428-.696-.644-1.04l-.44-.541a2.679 2.679 0 0 1-.061-.08.533.533 0 0 1-.034-.035M107.881 263.368l-.061-.089-.492-.673a10.95 10.95 0 0 1-1.683-3.174 23.67 23.67 0 0 0-.143-.432c-.172.458-.31.86-.474 1.253-.488 1.173-1.217 2.187-1.966 3.192-.636.856-1.286 1.705-1.658 2.727-.48 1.315-.569 2.64-.067 3.97.727 1.906 2.778 3.124 4.742 2.808 1.92-.308 3.185-1.429 3.729-3.33.381-1.328.17-2.64-.411-3.876-.237-.507-.55-.973-.828-1.457l-.563-.759c-.028-.036-.056-.07-.081-.107-.014-.018-.03-.034-.044-.053"/>
            <g transform="translate(90 223)">
                <mask id="j" fill="#fff">
                    <use xlink:href="#i"/>
                </mask>
                <path fill="#499CD5" d="M7.49 5.182c-.02-.032-.043-.062-.063-.093l-.498-.706a11.582 11.582 0 0 1-1.704-3.326L5.081.603c-.174.48-.312.903-.478 1.313C4.11 3.146 3.37 4.21 2.611 5.263 1.967 6.16 1.31 7.05.933 8.123.447 9.5.355 10.89.865 12.283c.736 2 2.812 3.275 4.802 2.944 1.942-.323 3.222-1.498 3.772-3.491.386-1.392.174-2.767-.416-4.063-.24-.532-.556-1.02-.838-1.528l-.57-.795-.084-.113-.042-.055" mask="url(#j)"/>
            </g>
            <path fill="#499CD5" d="M82.352 235.12l-.047-.064-.383-.482a7.546 7.546 0 0 1-1.31-2.267 13.44 13.44 0 0 0-.11-.307c-.132.327-.241.613-.367.894-.382.839-.949 1.565-1.531 2.28-.495.612-1.002 1.22-1.291 1.95-.37.937-.443 1.883-.05 2.833.564 1.366 2.16 2.233 3.69 2.007 1.491-.22 2.474-1.018 2.898-2.378.295-.948.133-1.886-.32-2.77-.185-.36-.427-.695-.643-1.04l-.44-.54a2.679 2.679 0 0 1-.061-.08.533.533 0 0 1-.035-.036"/>
        </g>
    </g>
</svg>
