<svg xmlns="http://www.w3.org/2000/svg" xmlns:xlink="http://www.w3.org/1999/xlink" width="42" height="43" viewBox="0 0 42 43">
    <defs>
        <path id="a" d="M.915.841h19.683V19.83H.915z"/>
        <path id="c" d="M.945.552h9.477v10.206H.945z"/>
        <path id="e" d="M0 .551h9.476v10.207H0z"/>
    </defs>
    <g fill="none" fill-rule="evenodd">
        <path fill="#221E1F" d="M31.498 26.5h.004-.004z"/>
        <g transform="translate(9.947)">
            <mask id="b" fill="#fff">
                <use xlink:href="#a"/>
            </mask>
            <path fill="#D61A7D" d="M14.442 19.83a6.232 6.232 0 0 1-3.78-1.292 6.06 6.06 0 0 1-3.74 1.292c-3.313 0-6.007-2.706-6.007-6.032 0-3.325 1.74-5.723 4.712-5.954V1.707c0-.47.364-.867.836-.867s.837.397.837.867V8.69c0 1.047-1.025.911-1.21.911-2.225 0-3.468 1.755-3.468 4.262a4.29 4.29 0 0 0 4.3 4.294 4.325 4.325 0 0 0 3.117-1.338.853.853 0 0 1 1.241-.012c.784.828 1.967 1.32 3.162 1.32 2.418 0 4.463-1.983 4.463-4.328 0-2.438-1.738-4.225-3.9-4.323-.55-.017-.96-.164-.953-.865.002-.3 0-6.904 0-6.904 0-.47.363-.867.835-.867s.775.397.775.867v6.137c2.415.577 4.997 2.26 4.935 5.954-.053 3.269-2.81 6.032-6.155 6.032" mask="url(#b)"/>
        </g>
        <path fill="#D61A7D" d="M24.39 24.026a6.232 6.232 0 0 0-3.78 1.292 6.06 6.06 0 0 0-3.74-1.292c-3.313 0-6.008 2.706-6.008 6.032 0 3.324 1.74 5.722 4.713 5.954v6.137c0 .47.363.85.835.85a.838.838 0 0 0 .837-.85v-6.944c0-.923-.728-.98-1.21-.98-2.225 0-3.467-1.74-3.467-4.247 0-2.386 1.928-4.326 4.3-4.326 1.182 0 2.318.52 3.116 1.362.161.17.386.286.62.286.235 0 .46-.087.621-.258.785-.828 1.968-1.316 3.162-1.316 2.419 0 4.463 1.906 4.463 4.252 0 2.436-1.551 4.147-3.714 4.247-.365.01-1.149-.058-1.139.98.002.3 0 6.944 0 6.944 0 .47.325.85.797.85.47 0 .814-.38.814-.85v-6.137c2.415-.577 4.996-2.262 4.934-5.954-.053-3.27-2.81-6.032-6.155-6.032M28.687 22.577H12.741a.839.839 0 0 1-.855-.835c0-.47.384-.834.855-.834h15.946c.472 0 .855.363.855.834 0 .47-.383.835-.855.835"/>
        <g transform="translate(30.947 12.128)">
            <mask id="d" fill="#fff">
                <use xlink:href="#c"/>
            </mask>
            <path fill="#D61A7D" d="M1.8 10.758a.852.852 0 0 1-.368-1.622l4.636-2.209-3.04-1.847a.893.893 0 0 1-.42-.807c.04-.585.058-.828 6.62-3.65a.853.853 0 1 1 .677 1.564c-1.742.749-3.635 1.601-4.79 2.164L8.303 6.29a.852.852 0 0 1-.076 1.497l-6.06 2.888a.845.845 0 0 1-.368.083" mask="url(#d)"/>
        </g>
        <g transform="translate(0 12.128)">
            <mask id="f" fill="#fff">
                <use xlink:href="#e"/>
            </mask>
            <path fill="#D61A7D" d="M8.621 10.758a.876.876 0 0 1-.338-.069c-6.563-2.825-6.58-3.067-6.62-3.653a.89.89 0 0 1 .419-.806l3.04-1.848-4.635-2.21a.85.85 0 0 1-.404-1.135.855.855 0 0 1 1.14-.402l6.06 2.888a.853.853 0 0 1 .485.726.854.854 0 0 1-.409.77L4.17 6.959c1.155.563 3.049 1.416 4.792 2.166a.851.851 0 0 1-.34 1.634" mask="url(#f)"/>
        </g>
    </g>
</svg>
