<?xml version="1.0" encoding="UTF-8"?>
<svg xmlns="http://www.w3.org/2000/svg" xmlns:xlink="http://www.w3.org/1999/xlink" width="30pt" height="30pt" viewBox="0 0 30 30" version="1.1">
<g id="surface3">
<path style=" stroke:none;fill-rule:nonzero;fill:rgb(100%,1.568627%,0%);fill-opacity:0.2;" d="M 30 15 C 30 23.285156 23.285156 30 15 30 C 6.714844 30 0 23.285156 0 15 C 0 6.714844 6.714844 0 15 0 C 23.285156 0 30 6.714844 30 15 Z M 30 15 "/>
<path style=" stroke:none;fill-rule:nonzero;fill:rgb(100%,1.568627%,0%);fill-opacity:0.301961;" d="M 25.863281 15 C 25.863281 21 21 25.863281 15 25.863281 C 9 25.863281 4.136719 21 4.136719 15 C 4.136719 9 9 4.136719 15 4.136719 C 21 4.136719 25.863281 9 25.863281 15 Z M 25.863281 15 "/>
<path style=" stroke:none;fill-rule:nonzero;fill:rgb(100%,1.568627%,0%);fill-opacity:0.501961;" d="M 20.691406 15 C 20.691406 18.140625 18.140625 20.691406 15 20.691406 C 11.859375 20.691406 9.308594 18.140625 9.308594 15 C 9.308594 11.859375 11.859375 9.308594 15 9.308594 C 18.140625 9.308594 20.691406 11.859375 20.691406 15 Z M 20.691406 15 "/>
<path style=" stroke:none;fill-rule:nonzero;fill:rgb(100%,1.568627%,0%);fill-opacity:1;" d="M 17.585938 15 C 17.585938 16.429688 16.429688 17.585938 15 17.585938 C 13.570312 17.585938 12.414062 16.429688 12.414062 15 C 12.414062 13.570312 13.570312 12.414062 15 12.414062 C 16.429688 12.414062 17.585938 13.570312 17.585938 15 Z M 17.585938 15 "/>
</g>
</svg>
