<svg xmlns="http://www.w3.org/2000/svg" xmlns:xlink="http://www.w3.org/1999/xlink" width="43" height="42" viewBox="0 0 43 42">
    <defs>
        <path id="a" d="M.444.207h.525v1.275H.444z"/>
    </defs>
    <g fill="none" fill-rule="evenodd">
        <g transform="rotate(45 -24.627 48.385)">
            <mask id="b" fill="#fff">
                <use xlink:href="#a"/>
            </mask>
            <path fill="#221E1F" d="M1.079.844h.005-.005z" mask="url(#b)"/>
        </g>
        <path fill="#D61A7D" stroke="#D61A7D" stroke-width=".4" d="M26.465 28.73l.066.584c.264 2.303-.478 4.548-2.037 6.161-3.41 3.523-7.25 2.168-9.125 1.14l-.117-.066-5.115 5.115L9.473 41l4.287-4.288-.02-.021 1.357-1.358.325.2c1.794 1.106 5.266 2.48 8.375-.733 1.158-1.197 1.8-2.799 1.82-4.491l-.002-.3-.94.292-2.4 1.26-.414-4.458-2.126.729-.782-2.792-3.126-.976.16-2.102-2.682-1.18-.322-3.484a6.497 6.497 0 0 0-4.779 1.899c-2.572 2.572-2.987 5.601-1.113 7.958l.145.175.292.341-5.692 5.692-.686-.686 5.074-5.073c-2.043-2.718-1.559-6.24 1.295-9.093a7.454 7.454 0 0 1 5.683-2.17l.29.02.489.046-.063.633.296 3.089 2.788 1.228-.152 2.017 2.889.904.645 2.308 2.324-.797.394 4.247 1.199-.624 2.164-.683zm-5.146-5.432l.63.987-.05.757-1.438-.278.858-1.466zM19.8 21.004l-.007.723-1.155.44-.662-.947 1.824-.216zm6.5 6.607l-1.977.134-.038-1.217 2.015 1.083zM17.37 17.8l-.698 1.627-.948-1.375 1.645-.252zM34.361.836l-5.69 5.69-.34-.29c-2.381-2.04-5.497-1.67-8.133.967-2.544 2.544-2.538 6.69.013 9.24a6.64 6.64 0 0 0 3.868 1.895l.375.045.05.376a6.867 6.867 0 0 0 1.928 3.906c2.533 2.532 6.823 2.593 9.368.13 3.213-3.107 1.839-6.58.734-8.374l-.202-.325 1.407-1.407.022.022L42 8.473l.664.664-5.114 5.114c1.033 1.829 2.523 5.763-1.074 9.24-2.964 2.868-7.773 2.801-10.722-.147a7.893 7.893 0 0 1-2.149-4.103 7.622 7.622 0 0 1-4.072-2.119c-2.93-2.93-2.939-7.686-.02-10.605 2.853-2.852 6.375-3.337 9.091-1.295L33.677.15l.685.686z"/>
    </g>
</svg>
