<svg id="Group_3050" data-name="Group 3050" xmlns="http://www.w3.org/2000/svg" width="13.316" height="13.327" viewBox="0 0 13.316 13.327">
  <path id="Path_1675" data-name="Path 1675" d="M177.084,209.555a25.589,25.589,0,0,1-.024,3.234,3.553,3.553,0,0,1-3.824,3.353c-1.831.028-3.663.033-5.493,0a3.691,3.691,0,0,1-3.88-3.893q-.047-2.746,0-5.493a3.691,3.691,0,0,1,3.881-3.892c1.83-.034,3.662-.031,5.493,0a3.71,3.71,0,0,1,3.91,3.92c.019.924,0,1.848,0,2.773Zm-1.129-.048h.032c0-.907.022-1.814,0-2.72-.048-1.631-.78-2.6-2.379-2.7a49.632,49.632,0,0,0-6.216,0,2.15,2.15,0,0,0-2.3,2.3,51.286,51.286,0,0,0,0,6.217,2.181,2.181,0,0,0,2.341,2.321,51.853,51.853,0,0,0,6.166,0c1.511-.092,2.174-.822,2.339-2.333A28.463,28.463,0,0,0,175.955,209.507Z" transform="translate(-163.84 -202.839)"/>
  <path id="Path_1676" data-name="Path 1676" d="M201.748,237.325a3.409,3.409,0,1,1-3.423-3.4A3.392,3.392,0,0,1,201.748,237.325Zm-1.161,0a2.248,2.248,0,1,0-2.243,2.265A2.235,2.235,0,0,0,200.587,237.322Z" transform="translate(-191.676 -230.676)"/>
  <path id="Path_1677" data-name="Path 1677" d="M255.687,225.741a.79.79,0,0,1-.757.777.823.823,0,0,1-.8-.8.791.791,0,0,1,.822-.764A.767.767,0,0,1,255.687,225.741Z" transform="translate(-244.675 -222.641)"/>
</svg>
