<svg xmlns="http://www.w3.org/2000/svg" width="25.489" height="20.866" viewBox="0 0 25.489 20.866">
  <path id="Path_176" data-name="Path 176" d="M-528.623,196.7A10.636,10.636,0,0,0-521,194.536a5.35,5.35,0,0,1-4.874-3.643c.414.018.783.058,1.15.044a7.186,7.186,0,0,0,1.112-.153,5.463,5.463,0,0,1-2.948-1.894,5.173,5.173,0,0,1-1.139-3.34,5.463,5.463,0,0,0,2.336.641,5.3,5.3,0,0,1-2.166-3.219,5.243,5.243,0,0,1,.577-3.778,14.968,14.968,0,0,0,10.751,5.485,13.317,13.317,0,0,1-.038-1.613,4.992,4.992,0,0,1,3.275-4.453,5.035,5.035,0,0,1,5.6,1.111.377.377,0,0,0,.392.107,10.73,10.73,0,0,0,2.829-1.08c.072-.04.146-.075.269-.138a5.669,5.669,0,0,1-2.147,2.878c.307-.055.616-.1.919-.169.323-.075.643-.167.959-.268s.6-.217.978-.352a7.446,7.446,0,0,1-.589.785c-.6.6-1.208,1.19-1.828,1.767a.473.473,0,0,0-.185.4A15.147,15.147,0,0,1-508.2,192.3a13.986,13.986,0,0,1-9.217,6.427,14.921,14.921,0,0,1-9.453-1.017c-.609-.277-1.188-.619-1.781-.93Z" transform="translate(528.649 -178.202)" fill="#fff"/>
</svg>
