<?xml version="1.0" encoding="UTF-8"?>
<svg width="171px" height="466px" viewBox="0 0 171 466" version="1.1" xmlns="http://www.w3.org/2000/svg" xmlns:xlink="http://www.w3.org/1999/xlink">
    <!-- Generator: Sketch 57.1 (83088) - https://sketch.com -->
    <title>Fill 1</title>
    <desc>Created with Sketch.</desc>
    <g id="SET-2" stroke="none" stroke-width="1" fill="none" fill-rule="evenodd">
        <g id="H_2.3-Gout-ComplicationsDefault" transform="translate(-775.000000, -668.000000)" fill="#FFFFFF">
            <g id="Group-8" transform="translate(775.000000, 668.000000)">
                <g id="Group-2">
                    <g id="Group-3">
                        <path d="M169.267169,235.893323 C168.305872,229.632336 167.745731,211.388896 166.642088,191.664767 C165.739948,175.617083 163.548375,170.75866 160.631207,156.92052 C156.265623,142.370069 153.535169,133.596232 151.638456,117.89873 C149.735272,102.199389 151.638456,91.4751982 145.812439,82.5919872 C143.74565,79.44495 141.731548,77.6820945 138.542629,75.9890914 C135.748396,74.5166751 133.084494,73.8631869 131.713721,73.4376384 C124.754483,71.2850796 117.788775,70.8788324 109.116764,65.8586464 C105.100575,63.5332947 100.929099,58.9018927 99.2847259,56.1418014 C96.4535205,51.3798856 93.8145746,47.7245799 94.6723476,42.8781059 C95.5236503,38.0399039 99.7589043,32.2715612 100.707261,24.7173852 C101.650072,17.1668856 99.2468286,11.0336557 96.745607,7.49507713 C94.2369908,3.94087363 89.9351854,0.672513758 84.6471259,0.270862108 C79.0863908,-0.153767325 66.547007,-0.935931064 58.8399908,5.67891315 C53.7737692,10.0410155 53.5528557,14.7496228 53.0962395,17.8837925 C52.6368503,21.0161239 53.4031151,25.6355774 53.488153,27.1024791 C53.5768881,28.5748954 52.0055368,31.1208338 50.9286989,32.6778084 C49.8490881,34.2338638 48.8933368,36.2053576 48.5420935,36.8643605 C48.1862286,37.5297971 48.4385692,38.2071821 48.9192178,38.7384285 C49.4072611,39.2678366 50.92038,38.9176552 51.4916124,39.3827255 C52.0656178,39.8422812 52.1414124,40.6823489 51.9010881,41.6566069 C51.6552178,42.6327031 51.7707584,42.4516382 51.7975638,42.9442819 C51.8308395,43.4341682 52.5000503,44.5913294 52.7200395,44.7521739 C52.940953,44.9130184 52.3974503,45.7926079 52.2791368,46.4699929 C52.1746881,47.1437015 52.4852611,47.7944324 52.9538935,48.0931435 C53.4280719,48.3835827 53.65638,49.2686869 53.9808178,50.1602249 C54.30618,51.0324616 53.9752719,52.0471605 53.9540124,53.2475199 C53.9355259,54.4304161 53.9077962,54.9598243 54.9633746,55.9809569 C56.0087854,57.0269056 57.3592232,57.3053964 58.8085638,57.3173448 C60.2625259,57.3237786 61.1202989,57.079295 62.7258503,57.2079706 C64.3314016,57.343999 66.1042557,57.3899546 66.7087638,58.1638463 C67.3012557,58.9386572 67.5083043,58.6022624 68.1072665,60.0958184 C68.7025314,61.5829405 69.2682178,66.3816207 62.6491314,68.8632213 C55.8257692,71.4211081 51.3945584,72.0617287 47.1916557,73.0359867 C40.7851638,74.5084031 36.2763097,75.2583979 36.0489259,75.3163019 C32.6058178,76.2344941 28.0830989,77.1140837 24.8997259,82.5919872 C19.5719205,91.7656373 20.9685746,102.199389 19.0709368,117.89873 C17.1668286,133.596232 14.4456178,142.370069 10.0735638,156.92052 C7.16286649,170.75866 4.96574757,175.617083 4.06822865,191.664767 C2.96550973,211.388896 2.39982324,229.632336 1.43852595,235.893323 C0.482774595,242.159824 -0.172571351,248.941946 0.0400232432,252.542105 C0.249844865,256.133992 2.68543946,259.357316 4.39451514,261.920717 C6.09712054,264.487795 9.14369351,266.600832 12.5211746,267.620127 C17.3378286,269.074161 19.3713422,268.732251 19.7854395,267.897698 C20.5785097,266.316827 19.6051962,265.249738 15.9393259,264.106364 C14.0416881,263.523647 12.2632881,262.432662 10.8666341,260.318706 C9.1242827,257.690967 9.07899081,254.420769 9.03277459,252.122071 C8.98193676,249.370252 11.4378665,249.25904 12.1320341,250.042122 C13.6922935,251.798544 13.5157476,256.781047 13.4584395,258.027362 C13.3207151,261.037451 14.6166178,264.073276 17.0180124,262.549389 C19.1559746,261.191862 18.4867638,256.566894 18.2787908,252.787508 C18.1364449,250.268224 19.2289962,246.701153 18.6050773,241.002663 C18.0846827,236.31979 16.9209584,236.149755 16.0114232,231.860262 C14.8356827,226.344675 15.1203746,226.666364 16.0114232,222.518415 C17.2130449,216.957791 24.5041151,204.913756 28.4592989,190.27507 C30.7007854,181.992958 33.1631854,169.414 33.4238449,162.44346 C33.6826557,155.466486 36.1515259,150.768908 38.4142719,142.427973 C38.7581205,141.175224 39.7721043,138.96568 40.115953,137.078745 C41.7594016,145.072256 45.8014719,156.422362 46.9513314,165.673217 C47.7961638,172.470046 48.8730016,182.691483 48.3988232,189.953381 C48.2102611,192.774134 44.8651314,220.471554 44.3401151,224.443953 C41.9350232,242.759084 41.375807,244.445654 40.9986827,259.176251 C40.8027259,266.733184 41.1595151,279.927027 41.1595151,279.927027 C41.5606719,283.374614 42.1429962,287.300138 43.0081638,291.842386 C45.4770341,304.796341 47.1935043,319.559108 47.3247584,321.851371 C47.5826449,326.400972 45.9539854,330.927596 46.0704503,335.704217 C46.1813692,340.484515 47.1093908,346.65451 46.7119314,348.870487 C46.3181692,351.091979 42.0561097,363.153477 41.7621746,373.381348 C41.6253746,377.889589 41.3111043,383.434587 41.7621746,386.444677 C42.2539151,389.733257 43.9445043,397.059494 44.3096124,399.501573 C45.3078827,406.277261 47.4329043,414.812129 48.3812611,421.258776 C49.7732935,430.673233 52.7810449,446.249413 51.7282395,448.399214 C51.1653259,449.549942 49.8065692,449.808212 47.6159205,449.969976 C45.6387908,450.118872 43.9445043,450.487435 43.4102449,450.829345 C42.6273422,451.328422 42.607007,451.941469 42.6772557,452.555436 C42.7354881,453.038888 43.7956881,455.273248 44.2717151,455.732804 C46.198007,457.548048 49.6318719,459.274139 50.6301422,460.002995 C52.8679314,461.625226 55.3534395,462.853159 56.4219584,463.445986 C59.1561097,464.971711 61.8237097,465.552589 64.9386827,465.217113 C67.6728341,464.912887 69.90138,462.472647 69.8181908,459.163846 C69.7978557,458.381682 68.9197476,449.853248 68.7210178,442.566534 C68.3725476,429.697137 69.2709908,416.505132 69.8181908,413.623718 C70.6759638,409.120073 71.6409584,395.831561 72.0966503,389.065983 C72.36378,385.191009 72.0153097,379.57432 71.6973422,376.121219 C71.5919692,374.970491 71.403407,373.500832 71.1741746,371.655257 C70.7702449,368.408956 70.1509476,362.474254 70.5308449,358.902587 C71.0198124,354.237178 72.3000016,351.11128 73.5718719,346.983551 C75.2818719,341.427523 75.3521205,334.237316 75.3447259,327.964381 C75.3401043,321.690527 76.4751746,312.212651 77.2044665,304.739357 C77.5418449,301.235704 78.6889314,290.873643 79.9136611,279.927027 C79.9136611,279.927027 82.9306557,253.969485 84.0888341,249.157018 C84.4650341,249.181834 84.8550989,249.181834 85.2645746,249.157018 C85.7110232,249.129445 86.14638,249.060512 86.559553,248.957571 C86.5956016,249.368414 88.7058341,262.154171 90.2152557,278.531816 C90.2577746,279.00332 90.4370935,279.927027 90.4370935,279.927027 C91.6516557,290.872724 92.7663908,301.236623 93.1083908,304.739357 C93.8339854,312.212651 94.9644341,321.690527 94.9598124,327.964381 C94.9598124,334.237316 95.0226665,341.427523 96.7372881,346.983551 C98.01378,351.11128 99.2930449,354.237178 99.7783151,358.902587 C100.16838,362.594657 99.4954719,368.812445 99.0943151,371.975107 C98.8863422,373.611126 98.6857638,374.963138 98.5461908,376.044013 C98.1561259,379.063294 97.6837962,383.698372 97.942607,387.503493 C98.4029205,394.259881 99.3965692,401.97582 101.223958,410.801127 C101.811829,413.668755 102.300796,426.163154 101.948629,439.038065 C101.749899,446.319265 99.9936827,458.834804 99.9724232,459.608696 C99.8892341,462.916578 102.640023,464.912887 105.374175,465.217113 C108.480829,465.552589 111.157672,464.971711 113.891823,463.445986 C114.952023,462.853159 117.44585,461.625226 119.674396,460.002995 C120.680985,459.274139 124.110229,457.548048 126.032823,455.732804 C126.517169,455.273248 127.573672,453.038888 127.627283,452.555436 C127.697531,451.941469 127.677196,451.328422 126.897991,450.829345 C126.35911,450.487435 124.669445,450.118872 122.689542,449.969976 C120.506288,449.808212 119.140137,449.549942 118.579996,448.399214 C117.524418,446.249413 120.531245,430.673233 121.923277,421.258776 C122.876256,414.812129 124.064937,407.711075 125.05951,400.935386 C125.344202,399.025473 126.277769,393.398673 126.911856,388.472237 C127.395277,384.706638 127.459056,382.679997 127.507121,381.611071 C127.613418,379.343623 127.622661,376.794927 127.536699,373.728772 C127.241839,363.515607 123.986369,351.091979 123.597229,348.870487 C123.195148,346.65451 124.123169,340.484515 124.243331,335.704217 C124.350553,330.927596 123.190526,323.571948 123.447488,319.021427 C123.579666,316.720892 127.492331,279.927027 127.492331,279.927027 C128.027515,272.402263 128.388926,267.203769 128.119948,256.889502 C127.742823,242.159824 127.484012,237.326217 125.227737,215.497323 C123.221953,196.091207 122.026802,190.785177 121.753202,186.600463 C121.272553,179.329373 122.915077,172.470046 123.754364,165.673217 C124.903299,156.422362 128.944445,145.072256 130.595288,137.078745 C130.938212,138.96568 131.297775,140.929821 131.635153,142.18257 C133.902521,150.523505 137.019342,155.466486 137.280926,162.44346 C137.539737,169.414 140.009531,181.992958 142.251018,190.27507 C146.20158,204.913756 153.498196,216.957791 154.693348,222.518415 C155.589942,226.666364 155.809931,228.800541 154.732169,232.326252 C153.438115,236.519237 152.620088,236.31979 152.107088,241.002663 C151.484094,246.701153 152.56925,250.268224 152.431526,252.787508 C152.218931,256.566894 151.556191,261.191862 153.687683,262.549389 C156.095548,264.073276 157.390526,261.037451 157.253726,258.027362 C157.195494,256.781047 157.019872,251.798544 158.579207,250.042122 C159.27245,249.25904 161.729304,249.370252 161.677542,252.122071 C161.63225,254.420769 161.580488,257.690967 159.839061,260.318706 C158.448877,262.432662 156.667704,263.523647 154.764521,264.106364 C151.100499,265.249738 150.127185,266.316827 150.917483,267.897698 C151.339899,268.732251 153.367866,269.074161 158.188218,267.620127 C161.559229,266.600832 164.615045,264.487795 166.31765,261.920717 C168.019331,259.357316 170.454926,256.133992 170.669369,252.542105 C170.883812,248.941946 170.221072,242.159824 169.267169,235.893323" id="Fill-1"></path>
                    </g>
                </g>
            </g>
        </g>
    </g>
</svg>