<svg xmlns="http://www.w3.org/2000/svg" xmlns:xlink="http://www.w3.org/1999/xlink" width="54" height="40" viewBox="0 0 54 40">
    <defs>
        <path id="a" d="M0 0h54v50H0z"/>
    </defs>
    <g fill="none" fill-rule="evenodd">
        <mask id="b" fill="#fff">
            <use xlink:href="#a"/>
        </mask>
        <path fill="#512D6E" d="M9.273 18.673c-.68-.679-1.555-.944-2.397-.729-.842.216-1.48.868-1.749 1.788L.121 36.878c-.275.943-.076 1.839.545 2.458A2.288 2.288 0 0 0 2.314 40c.266 0 .541-.04.82-.12l13.964-4.045a.671.671 0 1 0-.377-1.29L2.76 38.589c-.468.136-.872.064-1.14-.202-.267-.266-.339-.67-.203-1.134l5.006-17.145c.135-.46.415-.767.789-.863.375-.097.768.038 1.109.377l12.14 12.091c.34.34.475.732.378 1.105-.095.373-.403.652-.865.785l-.734.213a.671.671 0 1 0 .377 1.29l.733-.213c.925-.268 1.58-.902 1.795-1.741.217-.84-.05-1.71-.731-2.388L9.273 18.673zm1.61-7.674l.627.235-.353.448a.673.673 0 1 0 1.062.828l.39-.497.395.499a.675.675 0 0 0 .947.111.67.67 0 0 0 .112-.943l-.36-.454.6-.229a.671.671 0 1 0-.483-1.254l-.538.206v-.661a.673.673 0 0 0-.674-.672c-.373 0-.675.301-.675.672v.67l-.578-.216a.675.675 0 0 0-.867.393.67.67 0 0 0 .394.864zm-8.861-1.03c.07 0 .14-.01.21-.033l2.193-.716.181 2.3a.673.673 0 0 0 .725.617.673.673 0 0 0 .62-.722l-.177-2.243 2.333.526a.673.673 0 0 0 .806-.507.671.671 0 0 0-.509-.803l-2.268-.511 1.397-2.08a.67.67 0 0 0-.186-.932.676.676 0 0 0-.935.185L5.011 7.137l-1.4-1.945a.676.676 0 0 0-.941-.154.67.67 0 0 0-.156.937l1.432 1.988-2.134.697a.67.67 0 0 0 .21 1.31zm51.605 9.826l-2.02-1.008 1.658-1.718a.67.67 0 0 0-.02-.95.676.676 0 0 0-.953.02l-1.61 1.67-1.068-2.264a.675.675 0 0 0-.897-.323.67.67 0 0 0-.324.893l1.07 2.272-2.394.19a.673.673 0 1 0 .107 1.339l2.449-.194-.503 2.18a.671.671 0 0 0 .658.822c.307 0 .585-.21.657-.521l.516-2.24 2.07 1.032a.675.675 0 0 0 .905-.3.67.67 0 0 0-.3-.9zm-12.323-9.639a.676.676 0 0 0-.953-.007l-1.796 1.762-.977-2.186a.675.675 0 0 0-1.232.546l1 2.235-2.232.254a.672.672 0 1 0 .153 1.334l2.293-.26-.289 2.288a.672.672 0 0 0 .67.756.674.674 0 0 0 .668-.588l.282-2.233 2.178.985a.675.675 0 0 0 .893-.334.671.671 0 0 0-.336-.89l-2.118-.956 1.79-1.756a.67.67 0 0 0 .006-.95zM26.054-5.976l2.886 1.08-1.747 2.222a.67.67 0 0 0 .53 1.085c.2 0 .399-.088.532-.257l1.785-2.27 1.8 2.272a.673.673 0 0 0 1.058-.831l-1.764-2.228 2.806-1.074a.67.67 0 0 0 .387-.868.674.674 0 0 0-.87-.385l-2.745 1.05V-9.33a.673.673 0 0 0-.674-.671c-.372 0-.674.3-.674.671v3.157l-2.836-1.06a.67.67 0 1 0-.474 1.257zM37.351 36.78l-1.922-1.182 1.803-1.565a.67.67 0 0 0 .065-.947.675.675 0 0 0-.95-.065l-1.754 1.52-.861-2.35a.675.675 0 0 0-1.267.461l.864 2.358-2.403-.022h-.006c-.37 0-.67.297-.674.665a.672.672 0 0 0 .667.678l2.457.023-.695 2.127a.672.672 0 0 0 .641.88c.284 0 .549-.181.641-.464l.714-2.186 1.971 1.212a.674.674 0 0 0 .928-.219.67.67 0 0 0-.22-.924zM18.362 2.23l.63.236-.353.448a.669.669 0 0 0 .115.942.674.674 0 0 0 .946-.115l.39-.496.395.498a.673.673 0 0 0 1.059-.83l-.36-.455.6-.229a.67.67 0 0 0 .388-.868.675.675 0 0 0-.871-.385l-.538.205V.52a.673.673 0 0 0-.674-.671c-.373 0-.675.3-.675.671v.67l-.577-.216a.67.67 0 1 0-.474 1.257zM40.799 23.87l-.538.206v-.662a.673.673 0 0 0-.674-.671c-.373 0-.675.3-.675.671v.67l-.577-.216a.67.67 0 1 0-.474 1.257l.628.235-.352.448a.67.67 0 0 0 .53 1.086c.2 0 .398-.088.531-.257l.39-.497.395.498a.674.674 0 0 0 1.059-.83l-.36-.455.6-.23a.67.67 0 0 0 .388-.867.675.675 0 0 0-.87-.386zM14.37 34.307a.675.675 0 0 0 .625-.924l-4.159-10.221a.676.676 0 0 0-.878-.37.671.671 0 0 0-.372.874l4.159 10.221c.106.261.359.42.625.42zm-3.355 1.173a.673.673 0 0 0 .625-.924L7.48 24.335a.675.675 0 0 0-1.25.504l4.16 10.222c.106.26.358.419.624.419zm-5.99-5.733a.67.67 0 0 0-.371.874l2.322 5.708a.675.675 0 0 0 1.25-.505l-2.322-5.707a.676.676 0 0 0-.879-.37zm11.822-11.24l.057-.003a.672.672 0 0 0 .615-.726L16.04.322a.67.67 0 0 0-.728-.612.672.672 0 0 0-.615.725l1.478 17.456c.03.35.325.615.672.615zm1.114 3.298a.673.673 0 0 0 .88-.363L27.549.498a.67.67 0 0 0-.365-.877.675.675 0 0 0-.88.363L17.594 20.93a.67.67 0 0 0 .365.876zm-9.227-8.708l6.637 8.778a.673.673 0 0 0 1.077-.807L9.81 12.289a.676.676 0 0 0-.944-.132.67.67 0 0 0-.133.94zM29.025 29.8l-9.367-5.782a.675.675 0 0 0-.928.217.67.67 0 0 0 .218.924l9.367 5.782a.674.674 0 0 0 .928-.217.67.67 0 0 0-.218-.924zm10.713-1.348l-14.994-3.877a.672.672 0 1 0-.339 1.3L39.4 29.75a.673.673 0 0 0 .822-.48.67.67 0 0 0-.483-.82zm4.04-9.993l-24.25 3.86a.672.672 0 1 0 .212 1.326l24.252-3.86a.671.671 0 1 0-.213-1.326zm-10.231-3.905l-11.058 5.471a.67.67 0 0 0 .3 1.273.67.67 0 0 0 .3-.07l11.058-5.472a.67.67 0 0 0 .303-.9.675.675 0 0 0-.903-.302zm-11.063 2.75L40.224-.109a.676.676 0 0 1 .953.007.669.669 0 0 1-.008.95L23.43 18.26a.673.673 0 0 1-.952-.007.67.67 0 0 1 .007-.95z" mask="url(#b)"/>
    </g>
</svg>
