<svg xmlns="http://www.w3.org/2000/svg" width="196" height="196" viewBox="0 0 196 196">
    <g fill="none" fill-rule="evenodd">
        <circle cx="98" cy="98" r="98" fill="#FFF"/>
        <g fill-rule="nonzero" stroke="#FFF">
            <path fill="#512D6E" d="M135.483 47.658A2 2 0 0 0 134 47H62a2 2 0 0 0-1.99 2.198l9.216 92.634a8.373 8.373 0 0 0 8.36 7.568h40.829a8.373 8.373 0 0 0 8.359-7.568l2.73-27.438a2 2 0 0 0-3.981-.396l-2.73 27.438a4.386 4.386 0 0 1-4.378 3.964h-40.83a4.386 4.386 0 0 1-4.378-3.964L64.209 51h4.02l8.536 85.798a2 2 0 0 0 1.99 1.802h38.49a2 2 0 0 0 1.99-1.802L127.77 51h4.02l-4.481 45.042a2 2 0 0 0 3.98.396l4.7-47.24a2 2 0 0 0-.507-1.54zm-20.05 86.942H80.567l-6.21-62.408c6.792-4.526 15.864-4.317 22.44.635a23.225 23.225 0 0 0 14.078 4.708c3.692 0 7.251-.85 10.484-2.478l-5.924 59.543zm6.415-64.468c-6.813 4.668-16.002 4.502-22.645-.5a23.225 23.225 0 0 0-14.077-4.708c-3.97 0-7.786.983-11.208 2.859L72.248 51h51.504l-1.904 19.132z"/>
            <path fill="#D61A7D" d="M100.475 87.661A3.084 3.084 0 0 0 98 86.41c-.973 0-1.898.468-2.475 1.251l-8.289 11.263a13.369 13.369 0 0 0 1.314 17.372A13.276 13.276 0 0 0 98 120.21c3.57 0 6.926-1.39 9.45-3.914a13.372 13.372 0 0 0 3.877-8.443c.24-3.185-.67-6.356-2.563-8.929l-8.29-11.263zm4.147 25.807A9.303 9.303 0 0 1 98 116.21a9.303 9.303 0 0 1-6.622-2.743 9.311 9.311 0 0 1-.92-12.173L98 91.047l7.542 10.248a9.31 9.31 0 0 1-.92 12.173z"/>
            <path fill="#512D6E" d="M128.404 103.24c-.526 0-1.042.214-1.413.586a2.015 2.015 0 0 0-.587 1.414c0 .526.214 1.042.587 1.414.371.372.887.586 1.413.586s1.042-.214 1.414-.586c.372-.372.586-.888.586-1.414 0-.526-.213-1.042-.586-1.414a2.015 2.015 0 0 0-1.414-.586z"/>
        </g>
    </g>
</svg>
