<svg xmlns="http://www.w3.org/2000/svg" width="166" height="166" viewBox="0 0 166 166">
    <g fill="none" fill-rule="evenodd">
        <circle cx="83" cy="83" r="83" fill="#FFF"/>
        <g fill-rule="nonzero">
            <path fill="#D61A7D" d="M57.854 67.013v-2.44a1.132 1.132 0 1 0-2.264 0v2.44a1.132 1.132 0 1 0 2.264 0zM84.827 67.013v-2.44a1.132 1.132 0 1 0-2.264 0v2.44a1.132 1.132 0 1 0 2.264 0zM70.208 69.45c1.624 0 3.148-.68 4.181-1.86a1.132 1.132 0 0 0-1.704-1.492c-.604.69-1.507 1.086-2.477 1.086s-1.873-.395-2.476-1.086a1.131 1.131 0 1 0-1.705 1.491c1.033 1.182 2.557 1.86 4.181 1.86z"/>
            <path fill="#512D6E" d="M107.721 45.111H57.588c-7.486 0-13.578 6.09-13.578 13.578v11.086a1.132 1.132 0 0 0 2.264 0V58.69c0-6.239 5.076-11.313 11.314-11.313h42.632l-.048.032c-3.716 2.503-6.03 6.793-6.03 11.28v31.039H46.274V74.304a1.132 1.132 0 0 0-2.264 0v31.384a5.723 5.723 0 0 0 5.716 5.716h11.348v4.616a5.722 5.722 0 0 0 5.716 5.716h48.793a5.723 5.723 0 0 0 5.716-5.716V93.626a1.133 1.133 0 0 0-2.264 0v5.807H96.407V58.69c0-6.239 5.076-11.313 11.314-11.313s11.314 5.074 11.314 11.313v30.408a1.132 1.132 0 1 0 2.264 0V58.69c0-7.487-6.09-13.578-13.578-13.578zm-13.58 46.88v7.442H46.275v-7.442h47.868zm-47.867 13.697v-3.99h47.868v3.99a3.456 3.456 0 0 1-3.452 3.451H49.726a3.456 3.456 0 0 1-3.452-3.451zm72.76 10.332a3.455 3.455 0 0 1-3.45 3.452H66.79a3.456 3.456 0 0 1-3.452-3.452v-4.616h55.697v4.616zm0-14.322v7.441h-23.79l.014-.02a5.726 5.726 0 0 0 1.148-3.431v-3.99h22.629z"/>
        </g>
    </g>
</svg>
