<svg xmlns="http://www.w3.org/2000/svg" width="166" height="166" viewBox="0 0 166 166">
    <g fill="none" fill-rule="evenodd">
        <circle cx="83" cy="83" r="83" fill="#FFF"/>
        <g fill-rule="nonzero">
            <path fill="#D61A7D" d="M97.822 42.748a1.748 1.748 0 0 1 2.473 2.471l-4.445 4.449a1.742 1.742 0 0 1-1.236.512 1.748 1.748 0 0 1-1.236-2.983zm-28.295-.118l.125.113 4.181 4.178a1.748 1.748 0 0 1-2.337 2.592l-.133-.12-4.181-4.177a1.748 1.748 0 0 1 2.345-2.586zM83.736 32c.916 0 1.668.706 1.741 1.604l.006.144v10.396a1.748 1.748 0 0 1-3.49.144l-.005-.144V33.748c0-.966.783-1.748 1.748-1.748z"/>
            <path fill="#512D6E" stroke="#FFF" stroke-width="1.2" d="M86.363 58.9l.14.132 13.148 13.147v-1.917c0-4.909 3.993-8.903 8.902-8.903 4.822 0 8.76 3.853 8.9 8.641l.003.262v2.466a8.85 8.85 0 0 1-1.639 5.14l-.198.268h1.41c6.213 0 11.286 4.976 11.443 11.152l.004.295v23.155c0 .917-.707 1.669-1.605 1.742l-.143.005h-7.383c-.175 0-.344-.026-.503-.074a1.758 1.758 0 0 1-.33.066l-.172.008H98.767a1.748 1.748 0 0 1-1.742-1.604l-.006-.143V91.61L85.88 75.067a22.86 22.86 0 0 1-2.142-3.986 22.91 22.91 0 0 1-1.83 3.509l-.312.477-11.14 16.544v1.38a1.748 1.748 0 0 1-3.489.143l-.006-.144v-1.913c0-.29.072-.574.209-.827l.09-.149 11.437-16.986a19.24 19.24 0 0 0 3.262-9.675l.021-.473L63.828 81.12l-.003.003a1.743 1.743 0 0 1-1.055.5l-.178.01H50.447c-4.302 0-7.817 3.433-7.948 7.703l-.004.248v21.407h4.893V91.077a1.748 1.748 0 0 1 3.49-.143l.005.143v19.913h16.078v-4.194a1.748 1.748 0 0 1 3.49-.143l.005.143v5.942c0 .917-.706 1.669-1.604 1.742l-.143.005H49.136c-.175 0-.343-.026-.503-.074a1.758 1.758 0 0 1-.33.066l-.172.008h-7.383a1.748 1.748 0 0 1-1.742-1.604l-.006-.143V89.583c0-6.214 4.976-11.286 11.152-11.443l.295-.004h1.41a8.855 8.855 0 0 1-1.83-5.05l-.007-.358v-2.466c0-4.909 3.993-8.903 8.902-8.903 4.822 0 8.76 3.853 8.9 8.64l.003.263v1.917l13.147-13.147a2.635 2.635 0 0 1 2.766-.616 2.634 2.634 0 0 1 2.625.485zm17.285 22.22L85.496 62.967a19.236 19.236 0 0 0 3.023 9.75l.26.397 11.438 16.986c.161.24.26.517.289.803l.009.173v19.913h16.077V98.058a1.748 1.748 0 0 1 3.49-.143l.005.143v12.932h4.894V89.583c0-4.302-3.434-7.817-7.705-7.948l-.247-.004h-12.146c-.45 0-.86-.172-1.17-.452l-.032-.028-.033-.032-18.152-18.151zm-34.94 17.463c.46 0 .911.187 1.236.512.325.325.512.775.512 1.235 0 .46-.187.91-.512 1.236a1.76 1.76 0 0 1-1.235.512c-.46 0-.91-.187-1.236-.512a1.76 1.76 0 0 1-.512-1.236c0-.46.187-.91.512-1.235a1.76 1.76 0 0 1 1.236-.512zm49.632-9.254c.46 0 .91.187 1.235.512.325.327.512.776.512 1.236 0 .46-.187.91-.512 1.235a1.76 1.76 0 0 1-1.235.512c-.46 0-.91-.187-1.236-.512a1.76 1.76 0 0 1-.512-1.235c0-.46.187-.91.512-1.236a1.76 1.76 0 0 1 1.236-.512zM58.922 64.854a5.414 5.414 0 0 0-5.403 5.19l-.004.218v2.466a5.414 5.414 0 0 0 5.407 5.408 5.414 5.414 0 0 0 5.404-5.19l.004-.218v-2.466a5.414 5.414 0 0 0-5.408-5.408zm49.631 0a5.414 5.414 0 0 0-5.403 5.19l-.004.218v2.466a5.414 5.414 0 0 0 5.407 5.408 5.414 5.414 0 0 0 5.404-5.19l.004-.218v-2.466a5.414 5.414 0 0 0-5.408-5.408z"/>
        </g>
    </g>
</svg>
