<svg xmlns="http://www.w3.org/2000/svg" width="196" height="196" viewBox="0 0 196 196">
    <g fill="none" fill-rule="evenodd">
        <circle cx="98" cy="98" r="98" fill="#FFF"/>
        <g transform="translate(31.88 42.506)">
            <path fill="#512D6E" fill-rule="nonzero" stroke="#EFEFEF" stroke-width=".649" d="M124.698 43.63c-.782 0-1.413.634-1.413 1.414v55.11a4.244 4.244 0 0 1-4.24 4.24H85.133v-3.252c2.06-.72 7.427-2.4 12.717-2.4 12.31 0 20.668 2.725 20.752 2.753a1.412 1.412 0 0 0 1.858-1.341V37.978a1.41 1.41 0 0 0-1.107-1.379s-1.108-.247-3.001-.595a1.413 1.413 0 1 0-.512 2.78c.722.133 1.327.25 1.793.343v59.15c-3.202-.84-10.312-2.362-19.783-2.362-6.157 0-12.205 2.022-14.076 2.707-1.663-.734-6.69-2.707-12.773-2.707-9.733 0-17.75 1.605-21.196 2.42V39.073c2.822-.694 11.156-2.507 21.196-2.507 5.153 0 9.571 1.604 11.305 2.329v55.608a1.413 1.413 0 0 0 2.14 1.211c.14-.083 14.142-8.446 26.568-12.588.578-.193.967-.732.967-1.34V23.846a1.413 1.413 0 0 0-1.91-1.324c-11.307 4.241-22.747 11.36-22.861 11.43a1.413 1.413 0 0 0 1.497 2.398c.105-.067 10.057-6.259 20.448-10.437v54.859c-9.646 3.351-19.717 8.824-24.023 11.274V37.978c0-.535-.302-1.024-.781-1.264-.243-.12-6.034-2.975-13.35-2.975-12.768 0-22.585 2.763-22.998 2.881a1.412 1.412 0 0 0-1.024 1.358v62.176a1.412 1.412 0 0 0 1.8 1.358c.098-.026 9.87-2.77 22.222-2.77 5.167 0 9.581 1.607 11.305 2.33v3.322H48.391a4.244 4.244 0 0 1-4.24-4.24v-55.11a1.414 1.414 0 0 0-2.825 0v55.11a7.074 7.074 0 0 0 7.065 7.066h70.655a7.074 7.074 0 0 0 7.065-7.066v-55.11c0-.78-.632-1.413-1.413-1.413z"/>
            <path fill="#D61A7D" fill-rule="nonzero" stroke="#EFEFEF" stroke-width=".59" d="M75.562 82.573a1.413 1.413 0 1 1-.644 2.75c-8.04-1.886-17.587.626-17.682.652a1.415 1.415 0 0 1-.732-2.73c.417-.111 10.332-2.72 19.058-.672zm-19.058-7.806c.417-.113 10.332-2.72 19.058-.673a1.413 1.413 0 1 1-.644 2.751c-8.04-1.886-17.587.625-17.682.652a1.415 1.415 0 0 1-.732-2.73zm19.058-9.151a1.413 1.413 0 1 1-.644 2.75c-8.04-1.886-17.587.625-17.682.652a1.415 1.415 0 0 1-.732-2.73c.417-.113 10.332-2.718 19.058-.672zm0-8.479a1.413 1.413 0 1 1-.644 2.751c-8.04-1.886-17.587.625-17.682.652a1.413 1.413 0 0 1-.732-2.73c.417-.112 10.332-2.719 19.058-.673zm0-8.478a1.413 1.413 0 1 1-.644 2.75c-8.04-1.886-17.587.625-17.682.652a1.413 1.413 0 0 1-.732-2.73c.417-.111 10.332-2.72 19.058-.672zM103.075 71.957a1.413 1.413 0 1 1 .853 2.696c-3.96 1.252-11.85 5.234-12.465 5.545l-.038.019a1.417 1.417 0 0 1-1.902-.618 1.414 1.414 0 0 1 .62-1.9c.35-.178 8.61-4.375 12.932-5.742zm1.773-7.555a1.413 1.413 0 0 1-.92 1.773c-3.96 1.251-11.85 5.233-12.465 5.544l-.038.02a1.417 1.417 0 0 1-1.902-.618 1.414 1.414 0 0 1 .62-1.9l.065-.034c.86-.436 8.697-4.39 12.867-5.708.75-.235 1.539.18 1.773.923zm0-8.479a1.413 1.413 0 0 1-.92 1.773c-3.96 1.252-11.85 5.234-12.465 5.545l-.038.019a1.417 1.417 0 0 1-1.902-.618 1.414 1.414 0 0 1 .62-1.9l.065-.033c.86-.436 8.697-4.39 12.867-5.709.75-.234 1.539.18 1.773.923zm0-8.478a1.413 1.413 0 0 1-.92 1.773c-3.96 1.251-11.85 5.233-12.465 5.544l-.038.02a1.417 1.417 0 0 1-1.902-.618 1.414 1.414 0 0 1 .62-1.9l.065-.034c.86-.436 8.697-4.39 12.867-5.708.75-.235 1.539.18 1.773.923zm0-8.479a1.413 1.413 0 0 1-.92 1.774c-3.96 1.25-11.85 5.233-12.465 5.544l-.038.019a1.418 1.418 0 0 1-1.902-.618 1.414 1.414 0 0 1 .62-1.9c.35-.178 8.61-4.375 12.932-5.741.75-.235 1.539.179 1.773.922z"/>
            <circle cx="48.41" cy="41.325" r="11.807" fill="#FFF"/>
            <path fill="#512D6E" fill-rule="nonzero" d="M59.815.294a1.195 1.195 0 0 0-.931-.285L22.28 4.745a1.18 1.18 0 0 0-1.028 1.17v42.05c-2.156-2.592-5.581-4.278-9.446-4.278C5.297 43.687 0 48.453 0 54.313c0 5.86 5.297 10.627 11.807 10.627 6.51 0 11.807-4.767 11.807-10.627 0-.274-.022-.543-.046-.81.016-.078.046-.147.046-.228V19.031L57.855 14.6v21.556c-2.156-2.59-5.58-4.276-9.445-4.276-6.51 0-11.808 4.766-11.808 10.626 0 5.86 5.297 10.627 11.808 10.627 6.451 0 11.704-4.683 11.799-10.47 0-.015.008-.028.008-.044V1.181c0-.34-.147-.664-.402-.887zM11.807 62.578c-5.208 0-9.446-3.708-9.446-8.265 0-4.556 4.238-8.265 9.446-8.265 5.208 0 9.446 3.709 9.446 8.265 0 4.557-4.238 8.265-9.446 8.265zM48.41 50.771c-5.209 0-9.446-3.709-9.446-8.265 0-4.556 4.237-8.265 9.446-8.265 5.208 0 9.445 3.709 9.445 8.265 0 4.556-4.237 8.265-9.445 8.265zM23.614 16.65V6.953l34.241-4.43v9.695l-34.24 4.431z"/>
        </g>
    </g>
</svg>
