<svg xmlns="http://www.w3.org/2000/svg" width="196" height="196" viewBox="0 0 196 196">
    <g fill="none" fill-rule="evenodd">
        <circle cx="98" cy="98" r="98" fill="#FFF"/>
        <g fill-rule="nonzero">
            <path fill="#512D6E" stroke="#FFF" stroke-width=".945" d="M147.556 101.51h-24.144l2.04-30.492a1.717 1.717 0 0 0-.457-1.279 1.86 1.86 0 0 0-1.243-.533l-3.4.018.017 3.4h1.574l-.406 6.083-4.93 2.735a18.772 18.772 0 0 1-16.663.733v-9.447l20.21-.052-.017-3.4-20.188.052v-7.69l17.915-11.392-1.826-2.878-18.702 11.901a1.7 1.7 0 0 0-.788 1.435v8.641l-23.794.122a1.7 1.7 0 0 0-1.687 1.815l1.892 28.377a29.015 29.015 0 0 0-2.38 5.687 16.9 16.9 0 0 0-14.734-8.654 1.7 1.7 0 0 0-1.7 1.7c-.003 3.3.967 6.527 2.788 9.278a9.415 9.415 0 0 0-2.04 1.36l-.494.436a21.083 21.083 0 0 0-6.477 21.197l1.038 4.014a21.15 21.15 0 0 0 8.757 12.31 11.912 11.912 0 0 0 12.491.484l-.095-.17a41.328 41.328 0 0 0 9.783 1.653c.34.017.68.017 1.032.023v.14h22.421c25.331.022 45.884-20.494 45.907-45.825v-.082a1.7 1.7 0 0 0-1.7-1.7zm-24.793 4.327v-.926h16.932a36.47 36.47 0 0 1-21.649 31.61 36.064 36.064 0 0 1-9.892 2.774 39.02 39.02 0 0 0 6.697-7.568 46.047 46.047 0 0 0 7.912-25.89zM96.548 72.745v8.221a22.155 22.155 0 0 0-16.606 1.944l-4.526 2.514-.836-12.566 21.968-.113zM78.09 98.013l.208-.269-2.171-1.675-.461-6.887 5.92-3.3a18.766 18.766 0 0 1 16.802-.68 22.16 22.16 0 0 0 19.86-.8l3.005-1.668-.762 11.433a5.673 5.673 0 0 0-1.234-.723l-2.54-1.059a4.82 4.82 0 0 0-4.188.221 4.92 4.92 0 0 0-2.49 3.497 44.871 44.871 0 0 1-15.361 26.732 21.05 21.05 0 0 0-6.991-13.373l-.493-.435a9.25 9.25 0 0 0-12.105-.17l-2.14 1.785a25.494 25.494 0 0 1 5.141-12.63zm-8.868 13.751a13.522 13.522 0 0 1-11.55-11.55 13.53 13.53 0 0 1 11.55 11.55zm-9.62 32.395a17.763 17.763 0 0 1-7.35-10.334l-1.04-4.013a17.701 17.701 0 0 1 5.449-17.8l.493-.435a5.907 5.907 0 0 1 2.062-1.14 16.832 16.832 0 0 0 11.829 4.845c.108-.01.215-.033.32-.064A4.612 4.612 0 0 0 74 114.175l3.256-2.72a5.868 5.868 0 0 1 7.679.11l.493.436c3.815 3.36 5.999 8.202 5.991 13.287a44.907 44.907 0 0 1-22.416 8.017l-7.53.566a1.7 1.7 0 0 0-1.573 1.7v6.194a1.7 1.7 0 0 0 .85 1.467l.237.14a41.405 41.405 0 0 0 4.305 2.174 8.55 8.55 0 0 1-5.691-1.387zm20.454 1.398l-.002.001a38.11 38.11 0 0 1-16.747-4.78v-3.634l5.95-.449c22.137-1.657 40.319-18.139 44.132-40.007.076-.465.361-.87.774-1.096.382-.213.84-.237 1.243-.067l2.54 1.061a2.284 2.284 0 0 1 1.41 2.115v7.141a42.676 42.676 0 0 1-7.329 23.987 36.122 36.122 0 0 1-31.97 15.728zm23.293.16h-5.418a39.102 39.102 0 0 0 5.418-2.855v.158a39.448 39.448 0 0 0 16.074-3.39 39.87 39.87 0 0 0 23.673-34.72h2.725c-.89 22.807-19.648 40.83-42.472 40.806z"/>
            <path fill="#D61A7D" d="M125.453 108.31h3.4v3.4h-3.4zM120.352 125.314h3.4v3.4h-3.4zM125.453 118.513h3.4v3.4h-3.4z"/>
        </g>
    </g>
</svg>
