<svg xmlns="http://www.w3.org/2000/svg" width="196" height="196" viewBox="0 0 196 196">
    <g fill="none" fill-rule="evenodd">
        <circle cx="98" cy="98" r="98" fill="#FFF"/>
        <g fill-rule="nonzero">
            <path fill="#D61A7D" d="M115.501 50.474a2.064 2.064 0 0 1 2.92 2.917l-5.249 5.253a2.057 2.057 0 0 1-1.46.605 2.064 2.064 0 0 1-1.46-3.522zm-33.386-.12l.125.114 4.937 4.933a2.064 2.064 0 0 1-2.778 3.046l-.14-.127-4.936-4.933a2.064 2.064 0 0 1 2.792-3.034zm16.754-12.57c1.09 0 1.982.844 2.058 1.915l.005.148v12.275a2.063 2.063 0 0 1-4.122.148l-.005-.148V39.847c0-1.14.924-2.064 2.064-2.064z"/>
            <path fill="#512D6E" stroke="#FFF" stroke-width="1.417" d="M98.871 68.973a3.11 3.11 0 0 1 3.266.727l15.523 15.524V82.96c0-5.796 4.715-10.512 10.511-10.512 5.797 0 10.512 4.716 10.512 10.512v2.912c0 2.4-.81 4.613-2.17 6.385l1.666 1c7.452 0 13.515 5.063 13.515 12.515v27.34c0 1.14-.924 2.064-2.063 2.064h-8.718c-.206 0-.405-.032-.593-.088a2.063 2.063 0 0 1-.593.088h-23.11a2.063 2.063 0 0 1-2.064-2.064v-24.945l-13.152-19.534a26.992 26.992 0 0 1-2.53-4.706 27.006 27.006 0 0 1-2.529 4.706L83.19 108.167v8.629c0 .298-.064.582-.178.838.116.26.177.542.177.828a2.08 2.08 0 0 1-.604 1.459 2.078 2.078 0 0 1-1.459.604 2.08 2.08 0 0 1-1.459-.604 2.078 2.078 0 0 1-.604-1.459c0-.286.061-.57.175-.83a2.071 2.071 0 0 1-.175-.836v-9.259c0-.41.122-.812.352-1.152l13.504-20.056a22.72 22.72 0 0 0 3.877-11.982L75.363 95.78l-.004.003c-.373.371-.887.6-1.455.6h-14.34c-5.177 0-9.389 4.212-9.389 9.39v25.276h5.778v-23.512a2.063 2.063 0 0 1 4.126 0v23.512h18.984v-4.952a2.063 2.063 0 0 1 4.126 0v7.015c0 1.14-.924 2.064-2.063 2.064h-23.11c-.206 0-.405-.032-.593-.088a2.063 2.063 0 0 1-.594.088h-8.717a2.063 2.063 0 0 1-2.064-2.064v-27.34c0-7.452 6.063-13.515 13.515-13.515h1.666a10.456 10.456 0 0 1-2.17-6.385V82.96c0-5.796 4.716-10.512 10.512-10.512s10.512 4.716 10.512 10.512v2.264L95.606 69.7a3.11 3.11 0 0 1 3.265-.727zm2.076 5.374a22.72 22.72 0 0 0 3.877 11.982l13.504 20.056c.23.34.352.741.352 1.152v23.512h18.983v-15.27a2.063 2.063 0 0 1 4.127 0v15.27h5.777v-25.276c0-5.177-4.211-9.389-9.388-9.389h-14.34a2.053 2.053 0 0 1-1.382-.534 1.086 1.086 0 0 1-.078-.07zm-31.376 2.228a6.392 6.392 0 0 0-6.385 6.385v2.912a6.392 6.392 0 0 0 6.385 6.385 6.392 6.392 0 0 0 6.385-6.385V82.96a6.392 6.392 0 0 0-6.385-6.385zm58.6 0a6.392 6.392 0 0 0-6.384 6.385v2.912a6.392 6.392 0 0 0 6.384 6.385 6.392 6.392 0 0 0 6.385-6.385V82.96a6.392 6.392 0 0 0-6.385-6.385z"/>
        </g>
    </g>
</svg>
