<svg xmlns="http://www.w3.org/2000/svg" xmlns:xlink="http://www.w3.org/1999/xlink" width="45" height="45" viewBox="0 0 45 45">
    <defs>
        <path id="a" d="M0 .491h10.374v1.702H0z"/>
    </defs>
    <g fill="none" fill-rule="evenodd">
        <path fill="#D51A7C" d="M22.425 10.374c-.47 0-.85-.154-.85-.344V.344c0-.19.38-.344.85-.344s.852.154.852.344v9.686c0 .19-.382.344-.852.344"/>
        <path fill="#D51A7C" d="M19.14 8.667l3.283 4.299 3.287-4.299zM22.048 34.146c.47 0 .852.154.852.344v9.686c0 .19-.382.344-.852.344s-.85-.154-.85-.344V34.49c0-.19.38-.344.85-.344"/>
        <path fill="#D51A7C" d="M25.333 35.853l-3.283-4.299-3.286 4.299zM34.146 23.74c0-.47.154-.852.344-.852h9.686c.19 0 .344.381.344.851s-.154.851-.344.851H34.49c-.19 0-.344-.38-.344-.85"/>
        <path fill="#D51A7C" d="M35.853 20.455l-4.299 3.282 4.299 3.287z"/>
        <g transform="translate(0 22.02)">
            <mask id="b" fill="#fff">
                <use xlink:href="#a"/>
            </mask>
            <path fill="#D51A7C" d="M10.374 1.342c0 .47-.154.851-.344.851H.344c-.19 0-.344-.381-.344-.851S.154.49.344.49h9.686c.19 0 .344.38.344.85" mask="url(#b)"/>
        </g>
        <path fill="#D51A7C" d="M8.667 26.647l4.299-3.283-4.299-3.287zM30.805 13.903c-.333-.332-.493-.711-.359-.845l6.849-6.85c.135-.134.513.027.845.36.333.332.493.71.359.844l-6.849 6.85c-.134.134-.513-.027-.845-.359"/>
        <path fill="#D51A7C" d="M29.69 10.374l-.72 5.36 5.364-.715zM13.729 30.446c.332.331.493.71.359.844l-6.85 6.85c-.134.134-.512-.026-.845-.359-.332-.332-.493-.71-.358-.845l6.849-6.849c.134-.134.512.026.845.359"/>
        <path fill="#D51A7C" d="M14.845 33.975l.718-5.36-5.364.715zM29.642 31.641c.332-.332.71-.493.845-.358l6.85 6.848c.134.135-.027.513-.36.846-.332.332-.71.493-.845.359l-6.849-6.85c-.134-.134.027-.512.359-.845"/>
        <path fill="#D51A7C" d="M33.171 30.525l-5.36-.718.715 5.364zM13.1 14.565c-.333.332-.711.493-.846.359l-6.85-6.849c-.133-.134.027-.513.36-.846.332-.332.71-.493.845-.358l6.849 6.85c.134.133-.026.512-.359.844"/>
        <path fill="#D51A7C" d="M9.57 15.681l5.36.718-.715-5.363z"/>
    </g>
</svg>
