<svg xmlns="http://www.w3.org/2000/svg" width="52" height="25" viewBox="0 0 52 25">
    <g fill="none" fill-rule="evenodd">
        <path fill="#7C2468" d="M10 15.057A3.947 3.947 0 0 0 6.057 19 3.948 3.948 0 0 0 10 22.944 3.948 3.948 0 0 0 13.943 19 3.947 3.947 0 0 0 10 15.057M10 24c-2.757 0-5-2.243-5-5s2.243-5 5-5 5 2.243 5 5-2.243 5-5 5"/>
        <path stroke="#7C2468" stroke-width=".3" d="M10 15.057A3.947 3.947 0 0 0 6.057 19 3.948 3.948 0 0 0 10 22.944 3.948 3.948 0 0 0 13.943 19 3.947 3.947 0 0 0 10 15.057zM10 24c-2.757 0-5-2.243-5-5s2.243-5 5-5 5 2.243 5 5-2.243 5-5 5z"/>
        <path fill="#7C2468" d="M38 15.057A3.947 3.947 0 0 0 34.057 19 3.948 3.948 0 0 0 38 22.944 3.95 3.95 0 0 0 41.944 19 3.948 3.948 0 0 0 38 15.057M38 24c-2.757 0-5-2.243-5-5s2.243-5 5-5 5 2.243 5 5-2.243 5-5 5"/>
        <path stroke="#7C2468" stroke-width=".3" d="M38 15.057A3.947 3.947 0 0 0 34.057 19 3.948 3.948 0 0 0 38 22.944 3.95 3.95 0 0 0 41.944 19 3.948 3.948 0 0 0 38 15.057zM38 24c-2.757 0-5-2.243-5-5s2.243-5 5-5 5 2.243 5 5-2.243 5-5 5z"/>
        <path fill="#7C2468" d="M5.66 20c-2.686 0-4.238-1.692-4.613-5.031-.531-4.72 3.556-5.691 6.84-6.472l.443-.105c2.378-.572 4.914-1.174 7.457-1.701.447-.094 1.391-1.115 1.898-1.664.236-.257.44-.478.61-.637.247-.235.499-.501.765-.784.884-.936 1.887-1.998 3.217-2.312 1.717-.405 3.57-.304 5.362-.208.516.028 1.004.055 1.486.07 1.934.057 4.43.3 6.594 1.683.943.602 1.73 1.366 2.49 2.105.638.62 1.24 1.206 1.928 1.702.923.668 2.48.957 3.984 1.238 1.839.342 3.74.696 4.905 1.76 1.384 1.265 1.547 2.627 1.719 4.069.048.404.098.821.176 1.249.252 1.38-.072 3.163-1.378 3.82-1.033.517-2.337.547-3.6.575-1.163.026-2.364.053-3.191.481a.521.521 0 0 1-.702-.217.514.514 0 0 1 .22-.697c1.042-.54 2.367-.57 3.649-.599 1.146-.025 2.333-.052 3.154-.465.786-.394 1.01-1.693.825-2.714-.085-.46-.137-.893-.186-1.312-.162-1.354-.29-2.424-1.391-3.43-.945-.864-2.697-1.19-4.392-1.506-1.618-.301-3.292-.613-4.404-1.418-.749-.54-1.407-1.18-2.044-1.798-.757-.736-1.472-1.431-2.325-1.975-1.949-1.245-4.263-1.466-6.063-1.52a69.603 69.603 0 0 1-1.511-.07c-1.718-.093-3.495-.19-5.064.182-1.026.241-1.876 1.142-2.7 2.014-.275.293-.536.568-.806.824-.142.134-.335.344-.56.587-.95 1.029-1.733 1.828-2.453 1.977-2.527.524-5.053 1.125-7.425 1.694L8.13 9.5c-3.331.792-6.476 1.492-6.048 5.305.32 2.843 1.496 4.065 3.669 4.065h.008c.284 0 .516.273.52.556.005.285-.224.544-.51.548-.037 0-.073.025-.108.025"/>
        <path stroke="#7C2468" stroke-width=".3" d="M5.66 20c-2.686 0-4.238-1.692-4.613-5.031-.531-4.72 3.556-5.691 6.84-6.472l.443-.105c2.378-.572 4.914-1.174 7.457-1.701.447-.094 1.391-1.115 1.898-1.664.236-.257.44-.478.61-.637.247-.235.499-.501.765-.784.884-.936 1.887-1.998 3.217-2.312 1.717-.405 3.57-.304 5.362-.208.516.028 1.004.055 1.486.07 1.934.057 4.43.3 6.594 1.683.943.602 1.73 1.366 2.49 2.105.638.62 1.24 1.206 1.928 1.702.923.668 2.48.957 3.984 1.238 1.839.342 3.74.696 4.905 1.76 1.384 1.265 1.547 2.627 1.719 4.069.048.404.098.821.176 1.249.252 1.38-.072 3.163-1.378 3.82-1.033.517-2.337.547-3.6.575-1.163.026-2.364.053-3.191.481a.521.521 0 0 1-.702-.217.514.514 0 0 1 .22-.697c1.042-.54 2.367-.57 3.649-.599 1.146-.025 2.333-.052 3.154-.465.786-.394 1.01-1.693.825-2.714-.085-.46-.137-.893-.186-1.312-.162-1.354-.29-2.424-1.391-3.43-.945-.864-2.697-1.19-4.392-1.506-1.618-.301-3.292-.613-4.404-1.418-.749-.54-1.407-1.18-2.044-1.798-.757-.736-1.472-1.431-2.325-1.975-1.949-1.245-4.263-1.466-6.063-1.52a69.603 69.603 0 0 1-1.511-.07c-1.718-.093-3.495-.19-5.064.182-1.026.241-1.876 1.142-2.7 2.014-.275.293-.536.568-.806.824-.142.134-.335.344-.56.587-.95 1.029-1.733 1.828-2.453 1.977-2.527.524-5.053 1.125-7.425 1.694L8.13 9.5c-3.331.792-6.476 1.492-6.048 5.305.32 2.843 1.496 4.065 3.669 4.065h.008c.284 0 .516.273.52.556.005.285-.224.544-.51.548-.037 0-.073.025-.108.025z"/>
        <path fill="#7C2468" d="M33.467 21H14.533c-.294 0-.533-.267-.533-.5 0-.233.239-.5.533-.5h18.934c.294 0 .533.267.533.5 0 .233-.239.5-.533.5"/>
        <path stroke="#7C2468" stroke-width=".3" d="M33.467 21H14.533c-.294 0-.533-.267-.533-.5 0-.233.239-.5.533-.5h18.934c.294 0 .533.267.533.5 0 .233-.239.5-.533.5z"/>
        <path fill="#7C2468" d="M19.11 11a.393.393 0 0 1-.294-.135L16.1 7.747a.409.409 0 0 1 .032-.568c.163-.148.413-.263.558-.098l2.598 2.853h9.833l8.38-.262 2.847-2.456c.164-.145.413-.096.556.073a.429.429 0 0 1-.04.583l-2.948 2.622a.393.393 0 0 1-.241.103l-8.536.4L19.11 11z"/>
        <path stroke="#7C2468" stroke-width=".3" d="M19.11 11a.393.393 0 0 1-.294-.135L16.1 7.747a.409.409 0 0 1 .032-.568c.163-.148.413-.263.558-.098l2.598 2.853h9.833l8.38-.262 2.847-2.456c.164-.145.413-.096.556.073a.429.429 0 0 1-.04.583l-2.948 2.622a.393.393 0 0 1-.241.103l-8.536.4L19.11 11z"/>
    </g>
</svg>
