<svg xmlns="http://www.w3.org/2000/svg" width="82" height="82" viewBox="0 0 82 82">
    <defs>
        <linearGradient id="a" x1="26.483%" x2="106.762%" y1="26.822%" y2="93.488%">
            <stop offset="0%" stop-color="#D6197D"/>
            <stop offset="100%" stop-color="#662B79"/>
        </linearGradient>
    </defs>
    <g fill="none" fill-rule="evenodd">
        <path stroke="url(#a)" stroke-width="2" d="M40 80C17.909 80 0 62.091 0 40S17.909 0 40 0s40 17.909 40 40-17.909 40-40 40z" transform="translate(1 1)"/>
        <g stroke="#354154" stroke-linecap="round" stroke-linejoin="round" stroke-width="1.5">
            <path d="M56.874 59.947c-2.903 0-5.464-2.036-6.228-4.95l-3.101-11.812c-.938-3.577 1.088-7.284 4.518-8.262a6.126 6.126 0 0 1 1.695-.239c2.902 0 5.463 2.035 6.227 4.95l3.1 11.812a6.932 6.932 0 0 1-.622 5.105c-.856 1.563-2.238 2.687-3.895 3.16a6.196 6.196 0 0 1-1.694.236zM52.016 30.993c1.113-2.84 1.685-6.352.657-8.207a7.898 7.898 0 0 0-4.75-3.788 7.97 7.97 0 0 0-1.799-.303c-3.656-.19-7.051 2.201-8.073 5.687L35.526 33M38.1 56.579a7.491 7.491 0 0 1-4.8-1.743L22.24 45.58a7.563 7.563 0 0 1-2.68-5.139 7.579 7.579 0 0 1 1.697-5.548 7.486 7.486 0 0 1 5.8-2.734c1.755 0 3.46.62 4.803 1.744l11.06 9.257a7.554 7.554 0 0 1 2.678 5.138 7.574 7.574 0 0 1-1.697 5.549 7.485 7.485 0 0 1-5.8 2.733zM27.105 49.842l9.263-10.947M49 48.158l12.632-2.526M36.368 29.632l10.106 4.21"/>
        </g>
    </g>
</svg>
