<svg xmlns="http://www.w3.org/2000/svg" xmlns:xlink="http://www.w3.org/1999/xlink" width="34" height="43" viewBox="0 0 34 43">
    <defs>
        <path id="a" d="M0 0h35v44H0z"/>
    </defs>
    <g fill="none" fill-rule="evenodd">
        <mask id="b" fill="#fff">
            <use xlink:href="#a"/>
        </mask>
        <path fill="#7C2468" stroke="#7C2468" stroke-width=".5" d="M31.837 28.438c0 .312-.213.576-.465.576s-.465-.264-.465-.576v-3.222c0-.312.213-.576.465-.576s.465.264.465.576v3.222zM7.8 29.36h3.351v1.431H7.8V29.36zm-5.637-6.33v-6.596h14.625v6.596c0 2.856-2.348 5.18-5.234 5.18H7.397c-2.886 0-5.234-2.324-5.234-5.18zM4.78 5.756h9.391c1.443 0 2.617 1.162 2.617 2.59v.78h-2.762a.434.434 0 0 0-.436.431c0 .239.195.432.436.432h2.762v2.36h-2.762a.434.434 0 0 0-.436.43c0 .24.195.432.436.432h2.762v2.36H2.163V8.346c0-1.428 1.174-2.59 2.617-2.59zm4.696-3.605c.606 0 1.1.488 1.1 1.088 0 .6-.494 1.088-1.1 1.088-.607 0-1.1-.488-1.1-1.088 0-.6.493-1.088 1.1-1.088zm22.477 21.453v-2.986c0-2.22-1.826-4.028-4.07-4.028h-1.088c-2.245 0-4.07 1.807-4.07 4.028V35.9c0 2.73-2.244 4.95-5.002 4.95h-2.665c-2.757 0-5-2.22-5-4.95v-3.958h1.093c.642 0 1.163-.516 1.163-1.15V29.36l-.002-.045c3.172-.372 5.64-3.048 5.64-6.285V8.346c0-2.062-1.697-3.74-3.78-3.74h-2.906c.296-.379.472-.853.472-1.367C11.738 2.004 10.723 1 9.476 1 8.228 1 7.213 2.004 7.213 3.239c0 .514.176.988.472 1.367H4.78C2.696 4.606 1 6.284 1 8.346V23.03c0 3.237 2.468 5.913 5.639 6.285l-.002.045v1.431c0 .635.521 1.151 1.163 1.151h1.094V35.9c0 3.364 2.765 6.1 6.164 6.1h2.665c3.4 0 6.164-2.736 6.164-6.1V20.618c0-1.586 1.305-2.877 2.908-2.877h1.087c1.604 0 2.908 1.29 2.908 2.877v2.986c-.611.249-1.047.877-1.047 1.612v3.222c0 .735.436 1.363 1.047 1.612v3.33c0 .319.26.576.582.576a.579.579 0 0 0 .581-.575v-3.33c.612-.25 1.047-.878 1.047-1.613v-3.222c0-.735-.435-1.363-1.047-1.612z" mask="url(#b)"/>
    </g>
</svg>
