<svg xmlns="http://www.w3.org/2000/svg" xmlns:xlink="http://www.w3.org/1999/xlink" width="38" height="29" viewBox="0 0 38 29">
    <defs>
        <path id="a" d="M0 .59h20.533v25.7H0z"/>
    </defs>
    <g fill="none" fill-rule="evenodd">
        <path fill="#7C2468" d="M5.744 22.526c1.977.043 7.326.425 12.51 3.103V5.106C13.187 2.216 7.723 1.81 5.745 1.764v20.762zM19.127 28a.867.867 0 0 1-.446-.124c-5.461-3.282-11.51-3.582-13.233-3.595A1.47 1.47 0 0 1 4 22.81V1.47c0-.394.153-.765.432-1.043.278-.279.645-.431 1.04-.427 1.834.016 8.27.339 14.102 3.844A.88.88 0 0 1 20 4.6V27.12a.874.874 0 0 1-.873.879z"/>
        <path fill="#7C2468" d="M19.745 5.106v20.523c5.185-2.678 10.533-3.06 12.51-3.103V1.764c-1.978.046-7.441.451-12.51 3.342zM18.873 28a.871.871 0 0 1-.873-.879V4.6c0-.31.162-.597.426-.755C24.258.339 30.694.016 32.528 0A1.468 1.468 0 0 1 34 1.47v21.34a1.47 1.47 0 0 1-1.448 1.47c-1.724.014-7.772.314-13.233 3.596a.867.867 0 0 1-.446.124z"/>
        <g transform="translate(0 2)">
            <mask id="b" fill="#fff">
                <use xlink:href="#a"/>
            </mask>
            <path fill="#7C2468" d="M19.637 26.29H2.199c-1.212 0-2.2-.968-2.2-2.158V1.468C0 .984.402.59.897.59h3.538c.494 0 .896.394.896.878 0 .486-.402.88-.896.88H1.79v21.784c0 .22.183.4.408.4h17.438c.495 0 .896.393.896.879a.887.887 0 0 1-.896.878" mask="url(#b)"/>
        </g>
        <path fill="#7C2468" d="M35.858 28H18.873a.881.881 0 0 1-.873-.888c0-.492.39-.89.873-.89h16.985c.22 0 .397-.182.397-.404V3.778h-2.574a.88.88 0 0 1-.872-.89c0-.49.39-.888.872-.888h3.446c.482 0 .873.398.873.888v22.93C38 27.02 37.04 28 35.858 28"/>
    </g>
</svg>
