<?xml version="1.0" encoding="UTF-8"?>
<svg width="196px" height="196px" viewBox="0 0 196 196" version="1.1" xmlns="http://www.w3.org/2000/svg" xmlns:xlink="http://www.w3.org/1999/xlink">
    <!-- Generator: sketchtool 56.3 (101010) - https://sketch.com -->
    <title>52D041EA-FAFF-47D3-AA14-A25766D02B1B</title>
    <desc>Created with sketchtool.</desc>
    <g id="Prototype-2" stroke="none" stroke-width="1" fill="none" fill-rule="evenodd">
        <g id="1.2-Treatment-Timeline---Active-Nav" transform="translate(-607.000000, -3035.000000)">
            <g id="Infusion-time" transform="translate(0.000000, 2769.000000)">
                <g id="Group-7" transform="translate(607.000000, 266.000000)">
                    <g id="Group-3" fill="#FFFFFF">
                        <circle id="Oval" cx="98" cy="98" r="98"></circle>
                    </g>
                    <g id="Group-9" transform="translate(36.000000, 49.000000)">
                        <polygon id="Fill-1" fill="#D51A7C" points="47 29 57.0244857 55.5795822 59.3231722 44.185372 73.8466914 56 78 50.9727507 63.9113259 39.4926805 75.0405948 35.5964143"></polygon>
                        <g id="Group-8">
                            <path d="M116.032442,10.589 C116.032442,4.8335 111.31256,0.1685 105.489348,0.1685 L21.1476306,0.1685 C15.3259365,0.1685 10.6045365,4.8335 10.6045365,10.589 L10.6045365,78.32 L116.032442,78.32 L116.032442,10.589 Z" id="Stroke-2" stroke="#512D6E" stroke-width="2" stroke-linecap="round" stroke-linejoin="round"></path>
                            <path d="M73.8614318,83.5295 L73.8614318,86.135 C73.8614318,87.575 72.68222,88.7405 71.2252788,88.7405 L55.4113965,88.7405 C53.9544553,88.7405 52.7752435,87.575 52.7752435,86.135 L52.7752435,83.5295 L0.0628082353,83.5295 L0.0628082353,88.7405 C0.0628082353,91.6205 2.42274941,93.95 5.33359647,93.95 L121.304596,93.95 C124.215444,93.95 126.575385,91.6205 126.575385,88.7405 L126.575385,83.5295 L73.8614318,83.5295 Z" id="Stroke-4" stroke="#512D6E" stroke-width="1.4" stroke-linecap="round" stroke-linejoin="round"></path>
                            <path d="M113.396593,91.99625 C111.576934,91.99625 110.103299,90.53825 110.103299,88.73975 C110.103299,86.94125 111.576934,85.48325 113.396593,85.48325 C115.216252,85.48325 116.691405,86.94125 116.691405,88.73975 C116.691405,90.53825 115.216252,91.99625 113.396593,91.99625" id="Fill-6" fill="#FFFFFF"></path>
                        </g>
                    </g>
                </g>
            </g>
        </g>
    </g>
</svg>