<svg xmlns="http://www.w3.org/2000/svg" xmlns:xlink="http://www.w3.org/1999/xlink" viewBox="0 0 938.73 521.81"><defs><style>.cls-1,.cls-16,.cls-17,.cls-2{fill:none;}.cls-2{clip-rule:evenodd;}.cls-3{clip-path:url(#clip-path);}.cls-4{font-size:44px;font-family:Lato-Regular, Lato;}.cls-13,.cls-4{fill:#fff;}.cls-5{letter-spacing:0.02em;}.cls-6{letter-spacing:-0.02em;}.cls-7{letter-spacing:-0.03em;}.cls-8{letter-spacing:-0.03em;}.cls-9{letter-spacing:-0.05em;}.cls-10{letter-spacing:-0.01em;}.cls-11{clip-path:url(#clip-path-2);}.cls-12{clip-path:url(#clip-path-3);}.cls-14{clip-path:url(#clip-path-4);}.cls-15{fill:#d51a7c;}.cls-16,.cls-17{stroke:#512d6e;stroke-linecap:round;stroke-linejoin:round;}.cls-16{stroke-width:4px;}.cls-17{stroke-width:2.8px;}</style><clipPath id="clip-path" transform="translate(-947.49 -6060)"><rect class="cls-1" x="794" y="6520" width="1234" height="88"/></clipPath><clipPath id="clip-path-2" transform="translate(-947.49 -6060)"><circle class="cls-1" cx="1410" cy="6266" r="196"/></clipPath><clipPath id="clip-path-3" transform="translate(-947.49 -6060)"><rect class="cls-1" width="2800" height="7222"/></clipPath><clipPath id="clip-path-4" transform="translate(-947.49 -6060)"><polygon class="cls-2" points="1380 6226 1400.05 6279.16 1404.65 6256.37 1433.69 6280 1442 6269.94 1413.82 6246.98 1436.08 6239.19 1380 6226"/></clipPath></defs><title>Asset 5</title><g id="Layer_2" data-name="Layer 2"><g id="Layer_1-2" data-name="Layer 1"><g class="cls-3"><text class="cls-4" transform="translate(0 510)"><tspan class="cls-5">BRING </tspan><tspan class="cls-6" x="149.82" y="0">Y</tspan><tspan class="cls-5" x="176.31" y="0">OUR LAP</tspan><tspan class="cls-7" x="366.76" y="0">T</tspan><tspan class="cls-5" x="391.38" y="0">OP AND </tspan><tspan class="cls-8" x="577.63" y="0">W</tspan><tspan class="cls-9" x="621.91" y="0">A</tspan><tspan class="cls-7" x="649.59" y="0">T</tspan><tspan class="cls-5" x="674.21" y="0">CH A M</tspan><tspan class="cls-10" x="834.85" y="0">O</tspan><tspan class="cls-5" x="869.72" y="0">VI</tspan><tspan x="913.32" y="0">E</tspan></text></g><g class="cls-11"><g class="cls-12"><rect class="cls-13" x="256.51" width="412" height="412"/></g></g><g class="cls-14"><g class="cls-12"><rect class="cls-15" x="422.51" y="156" width="82" height="74"/></g></g><g class="cls-12"><path class="cls-16" d="M1518.06,6189.18a21,21,0,0,0-21.08-20.84H1328.29a21,21,0,0,0-21.08,20.84v135.46h210.85Z" transform="translate(-947.49 -6060)"/><path class="cls-17" d="M1433.72,6335.06v5.21a5.23,5.23,0,0,1-5.27,5.21h-31.63a5.24,5.24,0,0,1-5.27-5.21v-5.21H1286.13v10.42a10.48,10.48,0,0,0,10.54,10.42h231.94a10.48,10.48,0,0,0,10.54-10.42v-10.42Z" transform="translate(-947.49 -6060)"/></g></g></g></svg>