<?xml version="1.0" encoding="UTF-8"?>
<svg width="160px" height="60px" viewBox="0 0 160 60" version="1.1" xmlns="http://www.w3.org/2000/svg" xmlns:xlink="http://www.w3.org/1999/xlink">
    <!-- Generator: sketchtool 56.3 (101010) - https://sketch.com -->
    <title>19937C71-21A3-41FE-A198-583493170888</title>
    <desc>Created with sketchtool.</desc>
    <defs>
        <polygon id="path-1" points="0 0.0343055556 131.777778 0.0343055556 131.777778 36.9444444 0 36.9444444"></polygon>
    </defs>
    <g id="Symbols" stroke="none" stroke-width="1" fill="none" fill-rule="evenodd">
        <g id="Preheader" transform="translate(-8.000000, -13.000000)">
            <g id="PRE-HEADER" transform="translate(8.000000, 0.000000)">
                <g id="KXX_Logo_Pos_RGB" transform="translate(0.000000, 13.000000)">
                    <g id="Group-4" transform="translate(0.000000, 23.000000)">
                        <mask id="mask-2" fill="white">
                            <use xlink:href="#path-1"></use>
                        </mask>
                        <g id="Clip-2"></g>
                        <path d="M130.705333,16.5282407 C130.705333,16.4077315 130.633333,16.3334028 130.433778,16.3334028 L130.264,16.3334028 L130.264,16.7433102 L130.426667,16.7433102 C130.636,16.7433102 130.705333,16.6593056 130.705333,16.5282407 Z M131.081778,17.4786806 C131.081778,17.4901157 131.079556,17.50375 131.075111,17.5081481 C131.056444,17.5266204 130.972444,17.5292593 130.918667,17.5292593 C130.839556,17.5292593 130.786667,17.5244213 130.757778,17.4958333 C130.747111,17.4852778 130.74,17.4712037 130.735556,17.4553704 L130.660889,17.2169907 C130.612,17.0604167 130.541333,16.9750926 130.358667,16.9750926 L130.264,16.9750926 L130.264,17.4720833 C130.264,17.4923148 130.255556,17.5068287 130.240444,17.5160648 C130.224,17.5248611 130.185333,17.5292593 130.124889,17.5292593 C130.061333,17.5292593 130.020889,17.5248611 130.002222,17.5160648 C129.984,17.5068287 129.975556,17.4923148 129.975556,17.4720833 L129.975556,16.2326852 C129.975556,16.1860648 129.990667,16.1460417 130.014667,16.1222917 C130.036444,16.1007407 130.066222,16.0915046 130.107556,16.0915046 L130.471111,16.0915046 C130.857333,16.0915046 131.020444,16.2410417 131.020444,16.4948148 C131.020444,16.7138426 130.892889,16.8246759 130.691556,16.874375 C130.814667,16.9179167 130.909778,17.0080787 130.969778,17.1628935 L131.057778,17.3915972 C131.071556,17.4267824 131.081778,17.4676852 131.081778,17.4786806 Z M130.489778,15.7972685 C129.911111,15.7972685 129.442222,16.2612731 129.442222,16.833912 C129.442222,17.4065509 129.911111,17.8705556 130.489778,17.8705556 C131.068,17.8705556 131.536889,17.4065509 131.536889,16.833912 C131.536889,16.2612731 131.068,15.7972685 130.489778,15.7972685 Z M131.777778,16.833912 C131.777778,17.5376157 131.200889,18.1084954 130.489778,18.1084954 C129.777778,18.1084954 129.201333,17.5376157 129.201333,16.833912 C129.201333,16.1297685 129.777778,15.5588889 130.489778,15.5588889 C131.200889,15.5588889 131.777778,16.1297685 131.777778,16.833912 Z M121.593778,3.67641204 L121.580444,3.67641204 L117.640889,11.0947685 L122.602667,11.0947685 L121.593778,3.67641204 Z M126.950667,16.4763426 C126.992,16.7543056 127.012444,17.012037 127.012444,17.1862037 C127.012444,17.389838 126.975111,17.5231019 126.864,17.6326157 C126.620889,17.8731944 125.934222,17.8793519 125.056,17.8793519 C124.398667,17.8793519 123.707556,17.8771528 123.502222,17.6739583 C123.444,17.6159028 123.409333,17.5459722 123.379556,17.3265046 L122.902222,13.8194213 L116.278222,13.8194213 L114.451556,17.2455787 C114.365778,17.4065509 114.296444,17.5002315 114.230667,17.5653241 C113.933333,17.8595602 113.253333,17.8793519 112.284444,17.8793519 C111.594222,17.8793519 111.064889,17.8643981 110.877778,17.6792361 C110.82,17.6216204 110.780889,17.5468519 110.780889,17.4219444 C110.780889,17.2271065 110.981333,16.7850926 111.166667,16.4495139 L119.726222,0.964953704 C119.813333,0.80837963 119.947556,0.644768519 120.008,0.585393519 C120.321778,0.274444444 121.063556,0.263888889 122.193778,0.263888889 C123.452,0.263888889 124.215556,0.263888889 124.485333,0.530856481 C124.555111,0.599907407 124.605778,0.727893519 124.647111,1.00541667 L126.950667,16.4763426 Z M61.2031111,3.24451389 L56.8142222,3.24451389 C56.5275556,3.24451389 56.46,3.01185185 56.46,2.69166667 C56.46,2.05613426 56.7026667,0.87962963 57.1142222,0.472361111 C57.2004444,0.387037037 57.2982222,0.344814815 57.4,0.344814815 L69.8311111,0.344814815 C70.0684444,0.344814815 70.172,0.584953704 70.172,0.911296296 C70.172,1.33967593 69.9817778,2.65736111 69.5213333,3.11300926 C69.4293333,3.20405093 69.3275556,3.24451389 69.2315556,3.24451389 L64.8013333,3.24451389 L61.9528889,17.3128704 C61.9346667,17.4061111 61.8973333,17.4826389 61.8253333,17.5543287 C61.548,17.8287731 60.7897778,17.8793519 60.0448889,17.8793519 C59.0595556,17.8793519 58.3528889,17.7931481 58.3528889,17.415787 C58.3528889,17.3845602 58.3604444,17.3511343 58.368,17.3128704 L61.2031111,3.24451389 Z M44.6182222,0.494791667 C44.3968889,0.276203704 43.7186667,0.263883623 42.8831111,0.263883623 C41.3782222,0.263883623 41.096,0.344814815 40.7568889,0.857199074 L37.9355556,5.11944444 C37.4186667,5.90011574 36.6355556,7.22483796 36.2724444,7.95185185 L36.2453333,7.95185185 C36.1013333,7.05287037 35.7911111,5.75233796 35.6048889,5.09261574 L34.4186667,0.897662037 C34.3764444,0.747685185 34.3093333,0.570439815 34.24,0.501828704 C34,0.264768519 33.3217778,0.263883623 32.5924444,0.263883623 C31.864,0.263883623 31.0897778,0.259490741 30.8413333,0.504907407 C30.7675556,0.577916667 30.7262222,0.679513889 30.7262222,0.814537037 C30.7262222,1.00453704 30.8151111,1.33527778 30.9155556,1.66645833 L33.8035556,11.169537 L32.5648889,17.3128704 C32.5573333,17.3511343 32.5497778,17.3845602 32.5497778,17.415787 C32.5497778,17.7931481 33.2568889,17.8793519 34.2417778,17.8793519 C34.9871111,17.8793519 35.7448889,17.8287731 36.0222222,17.5543287 C36.0942222,17.4826389 36.1311111,17.4061111 36.1497778,17.3128704 L37.3542222,11.245625 L44.1644444,1.66645833 C44.4044444,1.32868056 44.696,0.88974537 44.696,0.696666667 C44.696,0.627615741 44.6786667,0.555046296 44.6182222,0.494791667 Z M17.8057778,1.46414352 C17.9506667,0.749444444 18.3964444,0.344814815 19.1551111,0.344814815 L23.8848889,0.344814815 C27.0151111,0.344814815 29.3097778,1.44347222 29.3097778,4.14833333 C29.3097778,6.96314815 27.5986667,8.99025463 24.9617778,9.7999537 C25.9155556,10.1737963 26.4777778,11.3766898 26.788,12.9019676 L27.5102222,16.4495139 C27.5684444,16.7336343 27.6333333,17.1668519 27.6333333,17.3753241 C27.6333333,17.7584028 27.1733333,17.8793519 25.5751111,17.8793519 C24.6386667,17.8793519 24.1195556,17.8155787 23.9248889,17.6229398 C23.852,17.5508102 23.804,17.4193056 23.776,17.2587731 L23.0942222,13.3875231 C22.7826667,11.6172685 22.2151111,10.6633102 20.6408889,10.6633102 L19.5231111,10.6633102 L18.1764444,17.3128704 C18.1582222,17.4061111 18.1208889,17.4826389 18.0488889,17.5543287 C17.772,17.8287731 17.0137778,17.8793519 16.2684444,17.8793519 C15.2835556,17.8793519 14.5764444,17.7931481 14.5764444,17.415787 C14.5764444,17.3845602 14.584,17.3511343 14.592,17.3128704 L17.8057778,1.46414352 Z M25.4657778,4.809375 C25.4657778,3.68696759 24.6862222,3.05583333 23.0808889,3.05583333 L21.0497778,3.05583333 L20.0546667,8.00594907 L21.7586667,8.00594907 C23.7164444,8.00594907 25.4657778,6.99613426 25.4657778,4.809375 Z M15.9217778,0.83037037 C15.9217778,1.24115741 15.4977778,1.70296296 15.172,2.04381944 L8.92933333,8.585625 L12.6368889,16.368588 C12.7417778,16.5889352 12.8551111,16.9601389 12.8551111,17.1914815 C12.8551111,17.7029861 12.3764444,17.8793519 10.9195556,17.8793519 C10.1924444,17.8793519 9.43155556,17.8542824 9.16622222,17.5921528 C9.09377778,17.520463 9.044,17.4043519 8.984,17.2724074 L5.24888889,9.00388889 L3.6,17.3128704 C3.58177778,17.4061111 3.54488889,17.4826389 3.47244444,17.5543287 C3.19511111,17.8287731 2.43688889,17.8793519 1.692,17.8793519 C0.707111111,17.8793519 0,17.7931481 0,17.415787 C0,17.3845602 0.00755555556,17.3511343 0.0155555556,17.3128704 L3.34133333,0.816736111 C3.36711111,0.687430556 3.39866667,0.631574074 3.45333333,0.577037037 C3.728,0.305671296 4.54088889,0.263888889 5.24888889,0.263888889 C5.90444444,0.263888889 6.62266667,0.300393519 6.84622222,0.52162037 C6.936,0.610902778 6.94488889,0.722615741 6.92577778,0.816736111 L5.42622222,8.27555556 L11.9688889,0.870393519 C12.0142222,0.819375 12.0573333,0.771435185 12.1031111,0.725694444 C12.4946667,0.338657407 13.0542222,0.263888889 14.1497778,0.263888889 C14.6866667,0.263888889 15.5337778,0.265648148 15.8137778,0.542731481 C15.8848889,0.613101852 15.9217778,0.715138889 15.9217778,0.83037037 Z M107.022667,8.80157407 L109.735111,16.4226852 C109.849333,16.74375 109.907556,17.083287 109.907556,17.2644907 C109.907556,17.4452546 109.831556,17.5565278 109.78,17.6071065 C109.540444,17.8441667 109.025778,17.8793523 107.908444,17.8793523 C107.026667,17.8793523 106.48,17.8283333 106.294222,17.6444907 C106.228444,17.5793981 106.165778,17.4531713 106.123111,17.3265046 L103.983111,10.9865741 L99.4577778,17.3265046 C99.3973333,17.4078704 99.3462222,17.463287 99.3004444,17.5090278 C99.0648889,17.7421296 98.7662222,17.8793523 97.2088889,17.8793523 C96.2746667,17.8793523 95.4862222,17.8819907 95.4862222,17.4694444 C95.4862222,17.2156713 95.8635556,16.6738194 96.0231111,16.4631481 L101.843111,8.77474537 L99.376,1.68009259 C99.276,1.36518519 99.2035556,1.05467593 99.2035556,0.868634259 C99.2035556,0.693148148 99.2666667,0.591111111 99.3355556,0.5225 C99.5586667,0.302152778 100.189333,0.263888889 101.188889,0.263888889 C101.968889,0.263888889 102.630222,0.290717593 102.857333,0.515462963 C102.924889,0.582314815 102.973778,0.674675926 103.042667,0.884027778 L104.910222,6.57611111 L109.026222,0.816736111 C109.122222,0.682152778 109.156889,0.648287037 109.193333,0.612222222 C109.503556,0.304791667 110.070667,0.263888889 111.152444,0.263888889 C112.208444,0.263888889 112.929778,0.271805556 112.929778,0.676435185 C112.929778,0.933726852 112.596444,1.42851852 112.406667,1.68009259 L107.022667,8.80157407 Z M91.6813333,8.80157407 L94.3937778,16.4226852 C94.508,16.74375 94.5657778,17.083287 94.5657778,17.2644907 C94.5657778,17.4452546 94.4897778,17.5565278 94.4382222,17.6071065 C94.1991111,17.8441667 93.6844444,17.8793523 92.5671111,17.8793523 C91.6853333,17.8793523 91.1382222,17.8283333 90.9524444,17.6444907 C90.8866667,17.5793981 90.824,17.4531713 90.7813333,17.3265046 L88.6413333,10.9865741 L84.1164444,17.3265046 C84.0555556,17.4078704 84.0048889,17.463287 83.9586667,17.5090278 C83.7231111,17.7421296 83.4244444,17.8793523 81.8671111,17.8793523 C80.9333333,17.8793523 80.1448889,17.8819907 80.1448889,17.4694444 C80.1448889,17.2156713 80.5217778,16.6738194 80.6813333,16.4631481 L86.5017778,8.77474537 L84.0346667,1.68009259 C83.9342222,1.36518519 83.8622222,1.05467593 83.8622222,0.868634259 C83.8622222,0.693148148 83.9248889,0.591111111 83.9942222,0.5225 C84.2168889,0.302152778 84.8475556,0.263888889 85.8471111,0.263888889 C86.6271111,0.263888889 87.2888889,0.290717593 87.516,0.515462963 C87.5835556,0.582314815 87.6324444,0.674675926 87.7013333,0.884027778 L89.5684444,6.57611111 L93.6848889,0.816736111 C93.7808889,0.682152778 93.8151111,0.648287037 93.8515556,0.612222222 C94.1622222,0.304791667 94.7293333,0.263888889 95.8111111,0.263888889 C96.8671111,0.263888889 97.588,0.271805556 97.588,0.676435185 C97.588,0.933726852 97.2551111,1.42851852 97.0648889,1.68009259 L91.6813333,8.80157407 Z M82.0515556,0.857199074 C82.0515556,1.24467593 81.8946667,2.52981481 81.4297778,2.99030093 C81.3475556,3.07166667 81.2475556,3.123125 81.1382222,3.123125 L74.8413333,3.123125 L73.9688889,7.38581019 L79.312,7.38581019 C79.5902222,7.38581019 79.6666667,7.61627315 79.6666667,7.89775463 C79.6666667,8.29930556 79.5102222,9.52287037 79.0666667,9.96180556 C78.9755556,10.0515278 78.8755556,10.0968287 78.7666667,10.0968287 L73.4373333,10.0968287 L72.4284444,15.0196759 L78.8075556,15.0196759 C79.0493333,15.0196759 79.1346667,15.2554167 79.1346667,15.572963 C79.1346667,16.2168519 78.9,17.3023148 78.5351111,17.6634028 C78.4444444,17.7535648 78.3395556,17.7984259 78.2217778,17.7984259 L69.3617778,17.7984259 C69.1057778,17.7984259 68.8746667,17.7390509 68.72,17.5859954 C68.6328889,17.5002315 68.4995556,17.3023148 68.4995556,16.9847685 C68.4995556,16.9082407 68.508,16.7828935 68.5306667,16.6786574 L71.6111111,1.46414352 C71.7906667,0.577037037 72.4475556,0.344814815 72.9191111,0.344814815 L81.6973333,0.344814815 C81.9333333,0.344814815 82.0515556,0.515462963 82.0515556,0.857199074 Z M55.1048889,1.68009259 C55.1048889,2.11638889 54.8528889,3.86509259 54.3417778,3.86509259 C53.8524444,3.86509259 52.7911111,2.7994213 50.9204444,2.7994213 C49.1533333,2.7994213 48.1946667,3.82902778 48.1946667,5.10581019 C48.1946667,6.91256944 51.0195556,7.39328704 52.6777778,9.03423611 C53.6293333,9.97543981 53.9875556,10.9584259 53.9875556,12.1468056 C53.9875556,15.6002315 50.9786667,18.1084954 46.7364444,18.1084954 C44.8706667,18.1084954 42.9231111,17.4786806 42.2373333,16.8000463 C42.0431111,16.6078472 42.02,16.3465972 42.02,16.1662731 C42.02,16.0945833 42.0293333,15.9868287 42.0475556,15.8425694 C42.168,14.8762963 42.4666667,13.9003472 42.8653333,13.9003472 C43.4751111,13.9003472 44.5662222,15.2492593 46.9133333,15.2492593 C48.6115556,15.2492593 50.1711111,14.4334028 50.1711111,12.6591898 C50.1711111,10.8154861 47.3964444,10.3536806 45.7773333,8.751875 C44.8724444,7.85641204 44.4733333,6.84483796 44.4733333,5.59136574 C44.4733333,1.86833333 47.8262222,0.0343055556 51.0844444,0.0343055556 C52.6382222,0.0343055556 54.2866667,0.527777778 54.8462222,1.05291667 C55.024,1.2200463 55.1048889,1.40872685 55.1048889,1.68009259 L55.1048889,1.68009259 Z" id="Fill-1" fill="#472B5B" mask="url(#mask-2)"></path>
                        <path d="M122.959111,27.8671065 C123.281333,26.2213194 119.830222,26.1971296 119.568889,27.894375 L119.402667,28.7432176 L122.786222,28.7498148 L122.959111,27.8671065 Z M123.710222,32.2151157 C122.761778,33.4184491 121.256444,34.0095602 120.045778,34.0073672 C118.229333,34.0034028 116.591556,32.9984259 116.987111,30.9792361 L117.592444,27.8908565 C117.994667,25.8373611 120.018667,24.873287 121.834667,24.8772332 C123.597778,24.8803241 125.242222,25.851875 124.84,27.9049306 L124.371111,30.297963 L119.1,30.2874074 L118.963556,30.9831944 C118.645333,32.4253472 121.211111,32.7873148 122.248444,31.3121759 L123.710222,32.2151157 Z M110.910667,30.9840741 C111.548444,32.5471759 113.997333,32.6874769 114.348,31.2624769 C114.474222,30.6177083 113.709333,30.4294676 113.095111,30.2922454 C111.841778,30.0521065 109.961778,29.5559954 110.350667,27.5706713 C110.733333,25.6187731 112.745778,24.8926389 114.313333,24.8957078 C115.292444,24.8979167 116.334222,25.3073843 117.076,26.1579861 L115.661333,27.3775926 C114.836,26.4078009 112.644444,26.3185185 112.321333,27.4215741 C112.097333,28.2018056 113.027111,28.4586574 113.769333,28.5787269 C115.200889,28.8193056 116.643556,29.3655556 116.295556,31.2325694 C115.627111,34.6433333 110.139111,34.9208565 109.274667,31.8804167 L110.910667,30.9840741 Z M106.761333,29.9738194 C105.868444,29.5309259 103.601333,29.3734722 103.222667,30.8499306 C102.766667,32.6311806 104.877778,32.5845602 106.319111,32.2309491 L106.761333,29.9738194 Z M103.408,27.2676389 L102.464444,26.2644213 C103.668,25.2141435 104.909778,24.8772454 106.084889,24.8794338 C107.883556,24.882963 109.537778,25.8030556 109.148889,27.7883796 L108.044889,33.4228472 C105.095111,34.3847222 100.568,34.5795602 101.299556,30.8455324 C101.859556,28.079537 105.210222,27.5258102 107.073778,28.3786111 L107.180444,27.8354398 C107.193333,26.2230787 104.756,26.1162037 103.408,27.2676389 Z M94.324,27.894375 C94.7231111,25.8580324 96.7502222,24.8776852 98.5484444,24.8811943 C99.9911111,24.8842824 101.506222,25.5154167 101.675556,27.1963889 L99.7684444,27.8376389 C99.6102222,26.1905324 96.7648889,26.4394676 96.2862222,27.8816204 L95.6973333,30.8855556 C95.6111111,32.3281481 98.3564444,32.5885185 99.1595556,30.9431713 L100.849778,31.5918981 C100.021778,33.2711111 98.2253333,33.8956481 96.7826667,33.8925808 C94.984,33.8890509 93.3431111,32.900787 93.7422222,30.8644444 L94.324,27.894375 Z M91.8435556,22.9152315 C91.7137778,23.5771528 92.1448889,24.1044907 92.8395556,24.1058127 C93.5693333,24.1071296 94.1893333,23.5819907 94.3191111,22.9200694 C94.452,22.2414352 94.0351111,21.73125 93.3048889,21.729926 C92.6106667,21.7281713 91.9768889,22.2365972 91.8435556,22.9152315 Z M93.6884444,24.956412 L91.9626667,33.7641435 L90.0035556,33.7601852 L91.7293333,24.9524537 L93.6884444,24.956412 Z M88.9897778,33.8428704 C86.7751111,34.1441435 85.1106667,33.2750694 85.6026667,30.763287 L87.372,21.7347685 L89.3128889,21.7387269 L88.6808889,24.9630093 L90.444,24.9669676 L90.0782222,26.8335417 L88.3151111,26.8300231 L87.5466667,30.7505324 C87.2742222,32.1416667 88.2368889,32.2283102 89.3053333,32.2309491 L88.9897778,33.8428704 Z M79.5768889,27.7800231 L78.9751111,30.8516898 C78.8124444,31.6833796 79.5915556,32.1605787 80.4106667,32.1619009 C81.1764444,32.1632176 82.16,31.6899769 82.3226667,30.8587269 L82.9248889,27.7866204 C83.0875556,26.9553704 82.2737778,26.5630556 81.508,26.5617302 C80.6888889,26.5599769 79.74,26.9483333 79.5768889,27.7800231 Z M81.864,24.7457407 C83.6413333,24.766412 85.2795556,25.7713889 84.8835556,27.7905787 L84.2817778,30.8622454 C83.8795556,32.9157407 81.8555556,33.879375 80.0715556,33.8930093 C78.2586667,33.872338 76.6137778,32.9016667 77.0164444,30.8481713 L77.6182222,27.7760648 C78.0137778,25.756875 80.0444444,24.7589352 81.864,24.7457407 Z M75.9924444,33.7997685 C73.7128889,33.7953704 72.6568889,32.6386574 73.0226667,30.7720833 L74.7986667,21.7096991 L76.7573333,21.7136574 L74.9813333,30.7760417 C74.8417778,31.4885417 75.2306667,32.0497454 76.3351111,32.0519444 L75.9924444,33.7997685 Z M70.6013333,26.7605324 C69.7662222,26.1135648 67.4426667,26.2446296 67.1075556,27.7721065 L66.5088889,30.8266204 C66.3151111,32.2696528 68.4933333,32.4266667 69.6235556,31.7497917 L70.6013333,26.7605324 Z M65.1462222,34.2365046 C65.9773333,35.6302778 68.8777778,36.009838 69.3422222,33.5486343 C66.8866667,34.4436574 64.048,33.385463 64.5537778,30.8059491 L65.1484444,27.7681481 C65.824,24.3230787 70.7595556,24.0442361 72.772,25.5932639 L71.1786667,33.7223611 C70.4142222,37.6257176 64.9351111,37.767338 63.7608889,35.3034954 L65.1462222,34.2365046 Z M62.1951111,27.7452778 C62.5177778,26.0990509 59.0662222,26.0753009 58.8053333,27.7725463 L58.6386667,28.6209491 L62.0222222,28.6275463 L62.1951111,27.7452778 Z M62.9462222,32.0928472 C61.9982222,33.2966204 60.4924444,33.8872917 59.2817778,33.8850987 C57.4653333,33.8815741 55.8275556,32.8765972 56.2231111,30.8569676 L56.8284444,27.768588 C57.2311111,25.7150926 59.2546667,24.7510185 61.0711111,24.7549647 C62.8337778,24.7584954 64.4786667,25.7296065 64.076,27.7831019 L63.6071111,30.1756944 L58.336,30.1651389 L58.2,30.8609259 C57.8813333,32.3035185 60.4471111,32.6650463 61.4844444,31.1903472 L62.9462222,32.0928472 Z M49.6408889,31.89625 C50.8431111,32.3065972 52.8008889,32.2256713 53.2226667,30.8002315 L53.8213333,27.7452778 C54.124,26.201088 52.0462222,26.0779398 50.6755556,26.6184722 L49.6408889,31.89625 Z M48.9528889,25.4094213 C51.7897778,24.2949306 56.4915556,24.1176852 55.7737778,27.7831019 L55.1813333,30.8041898 C54.6551111,33.4004167 51.2911111,34.2936806 49.3382222,33.4408796 L48.7297778,36.546412 L46.7711111,36.5424537 L48.9528889,25.4094213 L48.9528889,25.4094213 Z" id="Fill-3" fill="#4E4E4B" mask="url(#mask-2)"></path>
                    </g>
                    <path d="M134,20 C134.318187,18.3445739 135.666297,16.571122 138,15 L137.43406,16.9522788 C136.239133,17.5444513 134.974264,18.6480687 134,20" id="Fill-5" fill="#80224E"></path>
                    <path d="M158.782623,1 C159.81692,1 160,1.43752716 160,1.86853702 C160,2.59152132 158.086487,9.32300912 157.853436,10.166346 C157.459275,11.5905903 156.443502,12.2666501 155.275234,12.2666501 C147.521241,12.2666501 141.78544,14.008938 138.396514,16.2282912 L140.664126,8.61827323 C146.860428,3.85761281 155.585824,1 158.782623,1 M136.418384,12.7906399 C135.069189,14.5855006 134,16.9126063 134,18.9742412 C134,19.9931103 134.159388,20.780833 134.597919,22 L136.418384,12.7906399" id="Fill-6" fill="#662B79"></path>
                    <path d="M135.58192,12.5731658 L134,21 C134.289578,19.4571994 135.516922,17.8044028 137.640344,16.3401707 L140,8 C138.289428,9.38328266 136.765334,10.9146551 135.58192,12.5731658" id="Fill-7" fill="#8C2B7D"></path>
                    <path d="M134.672012,20.3202162 L132.005907,33.601081 C131.956259,33.847604 132.228872,34 132.474856,34 C132.678414,34 132.904538,33.8852548 132.981719,33.6302155 L137.818801,17.6465625 C136.723834,18.1660537 135.564776,19.1342166 134.672012,20.3202162 Z M136.264815,12.3880034 L138.19703,2.7632984 C138.234492,2.57549272 138.527416,2.21287984 138.744965,1.99683607 C139.776292,0.972645178 141.959456,0 142.546207,0 C142.876592,0 143.071574,0.290897106 142.975437,0.608239404 L140.713288,8.0828159 C138.990949,9.38580186 137.45637,10.8268407 136.264815,12.3880034 L136.264815,12.3880034 Z" id="Fill-8" fill="#D7187E"></path>
                    <path d="M134,24.5971265 C137.04336,29.1198166 142.596206,33 144.943005,33 C145.473606,33 146,32.7440749 146,32.3988006 C146,32.2663481 145.909307,32.1599371 145.86209,32.114589 C145.144961,31.4258362 136.726869,27.0939675 135.751685,19 L134,24.5971265" id="Fill-9" fill="#472B5B"></path>
                </g>
            </g>
        </g>
    </g>
</svg>