<svg xmlns="http://www.w3.org/2000/svg" xmlns:xlink="http://www.w3.org/1999/xlink" width="128" height="204" viewBox="0 0 128 204">
    <defs>
        <path id="a" d="M0 0h90.718v203.83H0z"/>
    </defs>
    <g fill="none" fill-rule="evenodd">
        <g transform="translate(37)">
            <mask id="b" fill="#fff">
                <use xlink:href="#a"/>
            </mask>
            <path fill="#354154" d="M85.895 172.063c.432 11.234-9.158 18.115-13.827 22.97-3.977 4.133-9.948 6.142-18.25 6.142-.347 0-.695-.01-1.057-.032-15.233-.67-24.63-16.258-23.94-39.714.354-12.393-1.392-32.91-3.567-55.018C23.871 92.344 9.89 68.769 7.486 64.843c-1.27-2.075-2.276-3.715-2.799-4.738-.783-1.52-1.34-3.036-1.657-4.517-1.1-4.95.28-9.665 4.1-14.005 1.862-2.103 3.574-4.525 5.237-7.399a68.634 68.634 0 0 0 2.793-5.401c2.037-4.445 3.862-9.49 5.582-15.43 1.886-6.451 5.669-10.445 10.123-10.685 1.286-.073 2.57.192 3.832.777 4.17 1.964 4.456 5.824 4.58 11.963.014.764.03 1.537.058 2.318.19 5.19-2.3 9.646-3.11 11.096l-.466.794c-.145.246-.263.449-.363.623-.604 1.125-.72 3.503.473 4.666.757.74 1.838.824 2.892.226l.34-.276c1.817-1.899 4.012-4.514 4.314-6.331.449-1.496.207-3.608-.15-6.763l-.204-1.76c-.472-4.043-1.454-12.45 1.52-15.538.888-.925 2.103-1.314 3.711-1.189 1.614.126 2.831.708 3.722 1.78 2.803 3.371 2.007 10.85 1.425 16.312-.093.89-.182 1.726-.25 2.497-.456 5.084.213 7.8 2.04 8.306.562.153 1.984.263 3.093-2.035.483-1 .377-2.566.134-5.477-.32-3.796-.803-9.531 1.402-11.687.799-.781 1.953-1.075 3.524-.909 1.735.184 2.982.853 3.815 2.04 2.568 3.66.725 11.175-.06 14.384-.222.906-.33 1.355-.358 1.681-.024.259-.052.54-.082.827-.23 2.205-.315 3.603.436 4.436.74.824 2.097.684 2.822-.062.65-.663.66-1.563.658-1.722-.062-4.806.827-8.252 2.506-9.707.807-.697 1.825-.94 3.107-.735 1.098.172 1.851.595 2.37 1.331 1.622 2.318.787 7.486-.204 12.58-.733 3.747-.923 9.592.63 10.824a1.508 1.508 0 0 0 1.556.199c.743-.337 1.38-1 1.617-5.703.328-6.668 1.75-8.436 2.347-8.884.322-.244.65-.309 1.06-.216.175.04.358.13.555.12 4.15-.224 1.35 86.45-1.494 97.939-1.025 4.143-3.988 17.781-4.915 21.944-.037.157-.03.312-.011.463-.009.035-.03.06-.037.1-1.092 6.551 6 13.124 6.195 18.163M40.916 24.81c.117 1.357.138 2.406-.058 2.997l-.06.277c-.067.604-1.17 2.3-3.179 4.473-.037-.375-.002-.842.106-1.04.077-.14.187-.326.32-.55l.489-.838c.5-.893 1.564-2.798 2.382-5.319m14.872-.177c.007.082.013.164.022.246.136 1.614.304 3.621.12 4.096l-.016.037c-.167-.756-.292-2.13-.126-4.379M87.24 132.032c1.264-5.11 7.462-101.689-.55-101.178l-.486-.105c-1.18-.277-2.307-.037-3.26.68a5.149 5.149 0 0 0-1.084 1.134c.516-3.892.477-7.315-1.092-9.553-.932-1.329-2.322-2.147-4.13-2.431-2.074-.322-3.843.129-5.259 1.355-.13.112-.254.23-.375.354.354-3.41.179-7.13-1.634-9.713-1.28-1.826-3.2-2.887-5.705-3.155-2.374-.252-4.281.302-5.663 1.65A6.625 6.625 0 0 0 56.656 13c-.039-3.722-.64-7.285-2.6-9.644C52.7 1.727 50.832.81 48.497.626c-2.415-.191-4.376.484-5.83 1.997-.905.938-1.54 2.151-1.97 3.517-.853-2.106-2.318-3.897-4.876-5.099-1.49-.693-3.018-1.04-4.555-1.04-.181 0-.365.004-.546.013-5.628.306-10.31 5.013-12.529 12.598-1.68 5.813-3.463 10.74-5.444 15.06a64.25 64.25 0 0 1-2.68 5.183c-1.55 2.68-3.207 5.026-4.929 6.97C.725 44.842-.856 50.34.436 56.154c.363 1.702 1 3.44 1.888 5.163.568 1.11 1.595 2.788 2.896 4.914 2.551 4.16 15.84 28.22 17.4 40.51 2.783 21.896 3.899 42.34 3.547 54.612-.736 25.042 9.657 41.701 26.452 42.44.39.023.796.036 1.2.036 9.06 0 15.657-2.274 20.16-6.955 5.199-5.401 15.03-12.92 14.568-24.915-.187-4.855-7.291-11.251-6.23-17.626.022-.118 0-.233-.01-.347.006-.026.026-.043.032-.071.92-4.133 3.88-17.757 4.9-21.883" mask="url(#b)"/>
        </g>
        <g fill-rule="nonzero">
            <path fill="#D71A7E" d="M69.383 49.468c0-11.245-8.94-20.36-19.968-20.36s-19.969 9.115-19.969 20.36c0 11.244 8.94 20.36 19.969 20.36 11.028 0 19.968-9.116 19.968-20.36z" opacity=".35"/>
            <path fill="#D71A7E" d="M55.821 48.847a6.706 6.706 0 1 0-13.412 0 6.706 6.706 0 0 0 13.412 0z" opacity=".77"/>
            <path fill="#D71A7E" d="M63.822 48.965c0-8.01-6.452-14.503-14.41-14.503-7.957 0-14.409 6.493-14.409 14.503s6.452 14.503 14.41 14.503c7.957 0 14.409-6.493 14.409-14.503z" opacity=".35"/>
            <path fill="#354254" d="M28 48.974l-14.336-.67 3.27-2.615L0 45l.087 3.738 9.181-.295L6.063 51zM29 54l-11.32 8.805.603-4.316L5 68.942 7.739 72l6.727-6.224-.603 4.25zM29 44l-11.32-8.783.603 4.316L5 29.058 7.739 26l6.727 6.224-.603-4.25z"/>
            <path fill="#D71A7E" d="M127.255 187.003c0-7.029-5.744-12.727-12.828-12.727-7.085 0-12.828 5.698-12.828 12.727 0 7.03 5.743 12.727 12.828 12.727 7.084 0 12.828-5.698 12.828-12.727z" opacity=".35"/>
            <path fill="#D71A7E" d="M119.735 186.97c0-2.436-1.939-4.41-4.33-4.41s-4.33 1.974-4.33 4.41 1.939 4.41 4.33 4.41 4.33-1.974 4.33-4.41z" opacity=".77"/>
            <path fill="#D71A7E" d="M123.718 187.382c0-4.97-3.933-8.999-8.786-8.999-4.852 0-8.786 4.03-8.786 8.999 0 4.97 3.934 8.999 8.786 8.999 4.848-.012 8.775-4.034 8.786-8.999z" opacity=".35"/>
        </g>
    </g>
</svg>
