<svg xmlns="http://www.w3.org/2000/svg" width="157" height="176" viewBox="0 0 157 176">
    <g fill="none" fill-rule="evenodd" stroke="#354154" stroke-width="3.5">
        <path d="M79.326 0v39.18c0 3.741-1.88 7.234-5 9.309l-20.23 13.455s-18.216 9.787 0 27.963c0 0 19.617 13.982 28.024 22.37 7.006 6.992 14.012 36.353 14.012 36.353S102.214 171 115.758 171h28.024s11.21-.467 11.21-8.389c0 0 .933-6.524-16.815-11.185 0 0-11.21-4.661-11.21-19.574 0 0 2.803-48.468-2.802-67.111 0 0-1.87-12.584 0-25.167V20"/>
        <path d="M51.337 21l-2.747 5.817a11.204 11.204 0 0 1-8.48 6.278l-24.045 3.597S-4.596 37.83 4.165 61.88c0 0 11.813 20.861 15.858 31.96 3.368 9.25-2.78 38.65-2.78 38.65s-4.023 22.707 8.242 28.416l25.376 11.809s10.35 4.303 13.722-2.832c0 0 3.62-5.483-10.468-17.162 0 0-8.168-8.92-1.822-22.354 0 0 5.642-10.346 11.701-23.129"/>
    </g>
</svg>
