<svg xmlns="http://www.w3.org/2000/svg" xmlns:xlink="http://www.w3.org/1999/xlink" width="37" height="37" viewBox="0 0 37 37">
    <defs>
        <path id="a" d="M0 .064h33.939V34H0z"/>
    </defs>
    <g fill="none" fill-rule="evenodd">
        <path fill="#4D4D4D" d="M32.004 30.998a.01.01 0 0 0-.006.001l-.002.003h.002a.019.019 0 0 0 .006-.004"/>
        <g transform="translate(0 3)">
            <mask id="b" fill="#fff">
                <use xlink:href="#a"/>
            </mask>
            <path fill="#7C2468" d="M31.304 28.298a12.341 12.341 0 0 1-.454.464l-.235.23-.243.234-.373.358a24.096 24.096 0 0 0-.74.757 13.75 13.75 0 0 0-.36.405 4.127 4.127 0 0 1-.607.536 3.472 3.472 0 0 1-1.422.6c-.265.049-.545.073-.843.073h-.087a5.674 5.674 0 0 1-.264-.007 11.577 11.577 0 0 1-1.665-.233 14.874 14.874 0 0 1-1.571-.429 19.81 19.81 0 0 1-1.442-.542c-.456-.19-.884-.387-1.279-.575a33.687 33.687 0 0 1-8.788-6.127 35.157 35.157 0 0 1-2.484-2.661 41.928 41.928 0 0 1-1.795-2.307 32.898 32.898 0 0 1-1.498-2.26c-.453-.75-.86-1.5-1.226-2.255a26.164 26.164 0 0 1-.98-2.294c-.177-.473-.326-.92-.449-1.346a12.206 12.206 0 0 1-.287-1.221 9.144 9.144 0 0 1-.133-1.127 7.855 7.855 0 0 1 .014-1.064c.02-.223.055-.436.108-.64a3.398 3.398 0 0 1 .525-1.125c.122-.171.263-.336.421-.493l.651-.649.651-.648.651-.648.651-.648c.094-.087.189-.165.285-.232.096-.067.193-.123.29-.169.097-.046.195-.08.293-.103a1.264 1.264 0 0 1 .636.013c.108.031.21.075.303.126.094.052.181.11.26.172.078.061.148.125.21.186l.005.005.006.006.005.006.006.005a24.004 24.004 0 0 1 .687.664 45.239 45.239 0 0 1 .688.697l.179.183.18.183.183.185.183.187.521.519.521.518.522.52.521.518c.202.202.354.4.455.595.101.196.152.39.152.583 0 .194-.05.388-.152.584a2.436 2.436 0 0 1-.455.595l-.165.165-.163.165a27.177 27.177 0 0 1-.329.324 84.682 84.682 0 0 1-.95.95 33.304 33.304 0 0 1-.978.915l-.01.008a.113.113 0 0 0-.01.01 1.39 1.39 0 0 0-.503.956c-.017.147-.01.288.01.419.021.13.055.252.089.36l.006.017.006.017.005.018.006.017c.136.327.285.649.451.97.166.323.349.646.55.973.202.327.424.66.667 1.002.243.342.509.694.799 1.061l.002.002.002.002.001.002.002.001a34.078 34.078 0 0 0 1.605 1.834 29.338 29.338 0 0 0 1.657 1.628c.563.51 1.136.988 1.722 1.434a24.53 24.53 0 0 0 1.798 1.247 6.47 6.47 0 0 0 .472.272 13.248 13.248 0 0 0 .467.237 61.448 61.448 0 0 1 .398.202 7.363 7.363 0 0 1 .45.255 2.028 2.028 0 0 0 .38.143 1.557 1.557 0 0 0 .376.047 1.473 1.473 0 0 0 .77-.214 1.798 1.798 0 0 0 .39-.31l.653-.65.653-.65.653-.65.653-.65c.065-.065.14-.133.223-.199.082-.066.173-.129.271-.184.098-.055.203-.102.313-.135a1.183 1.183 0 0 1 .685-.002c.107.031.207.076.3.13.093.053.179.114.256.178.077.064.146.131.205.196l1.056 1.051 1.056 1.051 1.056 1.05 1.055 1.052c.197.194.345.39.443.586.098.196.148.394.148.592 0 .199-.048.399-.145.599a2.37 2.37 0 0 1-.438.602zm-2.734-8.005a4.352 4.352 0 0 0-.583-.508 3.714 3.714 0 0 0-.63-.369 3.233 3.233 0 0 0-2.064-.226c-.229.05-.453.124-.673.223-.22.098-.434.22-.641.366a4.61 4.61 0 0 0-.602.507l-.603.599-.603.598-.604.599-.603.599a14.064 14.064 0 0 0-.297-.155l-.147-.075a40.75 40.75 0 0 1-.144-.074l-.203-.102a13.32 13.32 0 0 1-.38-.2 4.808 4.808 0 0 1-.173-.102 22.83 22.83 0 0 1-1.659-1.154 24.476 24.476 0 0 1-1.593-1.329 27.524 27.524 0 0 1-1.538-1.512 32.264 32.264 0 0 1-1.495-1.706c-.239-.3-.458-.589-.66-.869-.201-.28-.386-.55-.555-.816a13.452 13.452 0 0 1-.463-.784c-.14-.258-.268-.513-.384-.77a26.03 26.03 0 0 0 .909-.866c.147-.146.292-.291.435-.436l.427-.431.161-.16.16-.163a79.913 79.913 0 0 1 .321-.323c.401-.4.702-.828.902-1.271.2-.444.3-.902.3-1.36 0-.458-.1-.916-.3-1.359a4.314 4.314 0 0 0-.902-1.271l-.521-.519-.521-.519-.522-.519-.521-.518-.178-.179a44.05 44.05 0 0 1-.358-.361c-.059-.06-.117-.122-.174-.182a76.9 76.9 0 0 0-.703-.713 30.881 30.881 0 0 0-.733-.702A4.33 4.33 0 0 0 8.875.7a3.757 3.757 0 0 0-.627-.35A3.319 3.319 0 0 0 6.206.136a3.526 3.526 0 0 0-.67.213c-.219.094-.432.21-.639.35-.206.139-.405.3-.596.482l-.004.004-.004.004-.004.004-.004.003-.649.652-.649.652-.65.652-.648.652c-.245.243-.463.5-.655.77a5.466 5.466 0 0 0-.83 1.77c-.084.319-.142.651-.173.995-.045.555-.039 1.1.005 1.628.044.527.124 1.036.227 1.518.102.481.225.936.355 1.355.13.419.265.802.391 1.14.31.83.657 1.646 1.047 2.453.39.808.823 1.607 1.304 2.406a34.58 34.58 0 0 0 1.59 2.401c.58.805 1.212 1.616 1.901 2.44a37.355 37.355 0 0 0 2.635 2.824 36.06 36.06 0 0 0 2.879 2.502 35.486 35.486 0 0 0 6.453 4.002c.439.208.915.424 1.423.635.507.211 1.047.417 1.613.602.567.184 1.16.349 1.776.477.616.128 1.253.221 1.908.263l.122.005a16.537 16.537 0 0 0 .36.01c.44 0 .864-.04 1.27-.118a5.545 5.545 0 0 0 2.207-.943 6.096 6.096 0 0 0 .936-.835l.008-.008a.127.127 0 0 0 .009-.009 24.712 24.712 0 0 1 .987-1.043l.356-.343a42.998 42.998 0 0 0 .745-.727l.248-.254c.189-.196.355-.4.499-.61a3.98 3.98 0 0 0 .36-.648c.098-.221.17-.448.22-.677a3.322 3.322 0 0 0-.225-2.067 3.812 3.812 0 0 0-.368-.64 4.463 4.463 0 0 0-.51-.596l-1.047-1.047-1.048-1.047-1.049-1.047-1.048-1.048z" mask="url(#b)"/>
        </g>
        <path fill="#7C2468" d="M19.856 9.063a9.718 9.718 0 0 1 4.151 1.758 10.115 10.115 0 0 1 2.164 2.165 9.812 9.812 0 0 1 1.758 4.151 1.03 1.03 0 0 0 1.157.853l.045-.005a1.027 1.027 0 0 0 .84-.787 1.06 1.06 0 0 0 .015-.415 11.91 11.91 0 0 0-1.162-3.471 11.896 11.896 0 0 0-.967-1.556 12.142 12.142 0 0 0-4.169-3.58 11.808 11.808 0 0 0-3.47-1.162 1.06 1.06 0 0 0-.777.178 1.043 1.043 0 0 0 .03 1.723c.113.074.243.125.385.148M36.983 16.75a20.45 20.45 0 0 0-.767-3.06 20.195 20.195 0 0 0-2.875-5.548 20.844 20.844 0 0 0-4.48-4.482A20.317 20.317 0 0 0 23.316.784a20.456 20.456 0 0 0-3.06-.768 1.048 1.048 0 0 0-.801.183 1.09 1.09 0 0 0-.44.7 1.098 1.098 0 0 0 .186.807 1.083 1.083 0 0 0 .703.442 18.114 18.114 0 0 1 7.69 3.257A18.631 18.631 0 0 1 31.6 9.41a18.172 18.172 0 0 1 2.569 4.96c.297.887.525 1.8.684 2.734a1.07 1.07 0 0 0 1.203.887l.046-.006a1.041 1.041 0 0 0 .7-.43 1.07 1.07 0 0 0 .181-.804"/>
    </g>
</svg>
