<svg xmlns="http://www.w3.org/2000/svg" width="82" height="82" viewBox="0 0 82 82">
    <g fill="none" fill-rule="evenodd">
        <path stroke="#FFF" d="M41 81C18.909 81 1 63.091 1 41S18.909 1 41 1s40 17.909 40 40-17.909 40-40 40z"/>
        <g stroke="#FEFEFE" stroke-linecap="round" stroke-linejoin="round" stroke-width="1.5">
            <path d="M58.331 31.038l-1.789-1.81a.828.828 0 0 0-1.178-.006l-12.14 12.071a.468.468 0 0 1-.35.138.472.472 0 0 1-.318-.135l-5.424-5.333a1.13 1.13 0 0 0-1.592.005l-1.368 1.366a1.126 1.126 0 0 0-.001 1.6l7.92 7.915a1.126 1.126 0 0 0 1.089.292c.187-.05.363-.147.51-.293L58.328 32.21a.833.833 0 0 0 .003-1.172z"/>
            <path d="M57.643 38.242a.247.247 0 0 0-.289.045l-3.526 3.526a.823.823 0 0 0-.21.357c-.803 2.821-2.154 5.435-4.47 8.567-1.154 1.567-4.798 4.935-7.352 5.98a.868.868 0 0 1-.667-.003c-1.82-.754-7.74-4.634-10.669-11.555-1.128-2.691-1.777-5.824-1.858-6.487-.151-1.18-.433-5.813-.458-8.37a.453.453 0 0 1 .377-.45c4.24-.689 6.621-.792 12.763-3.842a.482.482 0 0 1 .228-.054c.076 0 .148.017.216.051 2.918 1.437 5.472 2.515 8.681 3.168h.006c.247.045.5-.035.677-.213l2.548-2.547a.24.24 0 0 0-.132-.409l-.645-.105c-4.065-.813-7.16-2.094-11.108-3.993a.642.642 0 0 0-.285-.066h-.01a.641.641 0 0 0-.272.066c-7.83 3.83-10.876 3.972-16.34 4.847a.57.57 0 0 0-.48.569c.033 3.208.392 9.055.586 10.552.111.882 1.008 4.876 2.056 7.417 3.985 9.642 11.942 14.562 14.098 15.383a.888.888 0 0 0 .624-.001c2.215-.852 5.214-3.228 6.809-4.71 5.905-5.502 8.255-11.465 9.234-17.462a.25.25 0 0 0-.132-.261z"/>
        </g>
    </g>
</svg>
