<svg xmlns="http://www.w3.org/2000/svg" xmlns:xlink="http://www.w3.org/1999/xlink" width="137" height="137" viewBox="0 0 137 137">
    <defs>
        <path id="a" d="M0 0h61v61H0z"/>
    </defs>
    <g fill="none" fill-rule="evenodd">
        <path fill="#FFF" stroke="#EA0A8B" stroke-width="2" d="M68.5 136C31.22 136 1 105.78 1 68.5S31.22 1 68.5 1 136 31.22 136 68.5 105.78 136 68.5 136z"/>
        <g transform="translate(38 40)">
            <mask id="b" fill="#fff">
                <use xlink:href="#a"/>
            </mask>
            <path fill="#354154" d="M24.146 45.75c-11.912 0-21.604-9.691-21.604-21.604 0-11.913 9.692-21.604 21.604-21.604 11.911 0 21.604 9.691 21.604 21.604 0 11.913-9.693 21.604-21.604 21.604m36.481 13.081l-18.56-18.56c3.855-4.28 6.225-9.925 6.225-16.125C48.292 10.832 37.46 0 24.146 0S0 10.832 0 24.146s10.832 24.146 24.146 24.146c6.2 0 11.844-2.37 16.124-6.224l18.56 18.56a1.266 1.266 0 0 0 1.797 0c.497-.497.497-1.3 0-1.797" mask="url(#b)"/>
        </g>
    </g>
</svg>
