<?xml version="1.0" encoding="UTF-8"?>
<svg width="25px" height="25px" viewBox="0 0 25 25" version="1.1" xmlns="http://www.w3.org/2000/svg" xmlns:xlink="http://www.w3.org/1999/xlink">
    <!-- Generator: sketchtool 56.3 (101010) - https://sketch.com -->
    <title>57D91BD0-0451-4824-AABC-8BD545308BB8</title>
    <desc>Created with sketchtool.</desc>
    <g id="Prototype-2" stroke="none" stroke-width="1" fill="none" fill-rule="evenodd">
        <g id="MENU_Open---Search" transform="translate(-313.000000, -109.000000)" fill="#595959" fill-rule="nonzero">
            <g id="Group-3" transform="translate(22.000000, 96.000000)">
                <g id="search" transform="translate(291.000000, 13.000000)">
                    <path d="M24.0333968,22.7620136 L17.9364289,16.6650457 C17.8277233,16.55634 17.6859333,16.499624 17.5346907,16.499624 L17.0478785,16.499624 C18.6690103,14.746155 19.66154,12.4066208 19.66154,9.83076998 C19.66154,4.40021483 15.2613251,0 9.83076998,0 C4.40021483,0 0,4.40021483 0,9.83076998 C0,15.2613251 4.40021483,19.66154 9.83076998,19.66154 C12.4066208,19.66154 14.746155,18.6690103 16.499624,17.0526049 L16.499624,17.5346907 C16.499624,17.6859333 16.5610664,17.8277233 16.6650457,17.9364289 L22.7620136,24.0333968 C22.9841512,24.2555344 23.3433524,24.2555344 23.56549,24.0333968 L24.0333968,23.56549 C24.2555344,23.3433524 24.2555344,22.9841512 24.0333968,22.7620136 Z M9.83076998,18.1491138 C5.23204922,18.1491138 1.51242615,14.4294907 1.51242615,9.83076998 C1.51242615,5.23204922 5.23204922,1.51242615 9.83076998,1.51242615 C14.4294907,1.51242615 18.1491138,5.23204922 18.1491138,9.83076998 C18.1491138,14.4294907 14.4294907,18.1491138 9.83076998,18.1491138 Z" id="Shape"></path>
                </g>
            </g>
        </g>
    </g>
</svg>