<svg xmlns="http://www.w3.org/2000/svg" width="82" height="82" viewBox="0 0 82 82">
    <g fill="none" fill-rule="evenodd" stroke="#FFF">
        <path stroke-width="1.5" d="M41 81C18.909 81 1 63.091 1 41S18.909 1 41 1s40 17.909 40 40-17.909 40-40 40z"/>
        <path stroke-linecap="round" stroke-linejoin="round" stroke-width="1.7" d="M29.411 52.251c.188-6.432 5.697-11.625 12.335-11.625 6.769 0 12.338 5.4 12.338 11.963M47.355 31.28c0 3.51-2.677 6.356-5.981 6.356-3.303 0-5.981-2.846-5.981-6.356 0-3.509 2.678-6.355 5.98-6.355 3.305 0 5.982 2.846 5.982 6.355zM54.084 45.104a9.24 9.24 0 0 1 5.033-1.487c5.032 0 9.173 4.05 9.173 8.972M63.804 36.888a4.486 4.486 0 1 1-8.972 0 4.486 4.486 0 0 1 8.972 0zM28.664 45.104a9.24 9.24 0 0 0-5.033-1.487c-5.032 0-9.173 4.05-9.173 8.972M19.692 36.888a4.486 4.486 0 1 0 8.972 0 4.486 4.486 0 0 0-8.972 0z"/>
    </g>
</svg>
