<svg xmlns="http://www.w3.org/2000/svg" width="82" height="82" viewBox="0 0 82 82">
    <g fill="none" fill-rule="evenodd" stroke="#FFF">
        <path stroke-width="1.5" d="M41 81C18.909 81 1 63.091 1 41S18.909 1 41 1s40 17.909 40 40-17.909 40-40 40z"/>
        <g stroke-linecap="round" stroke-linejoin="round" stroke-width="1.6">
            <path d="M58.843 18.944l-10.744 10.91-.21-.188a4.997 4.997 0 0 0-8.117.957 5.068 5.068 0 0 0-.282 4.339c.826 2.05 2.691 3.205 4.625 3.229l-.01.364a5.12 5.12 0 0 0 3.178 4.697 4.862 4.862 0 0 0 4.272-.284c3.016-1.734 3.39-5.77 1.12-8.074a5.339 5.339 0 0 0-.175-.17l-.187-.215 10.743-10.91M34.632 24.178l-.722 6.729M27.168 27.168l4.486 5.234M23.43 34.953l6.729.131M23.157 63.804l10.744-10.91.21.188a4.998 4.998 0 0 0 8.118-.957 5.072 5.072 0 0 0 .28-4.34c-.825-2.05-2.69-3.205-4.623-3.228l.01-.365a5.12 5.12 0 0 0-3.179-4.697 4.862 4.862 0 0 0-4.272.285c-3.016 1.733-3.39 5.77-1.121 8.074.058.059.117.115.177.17l.187.215-10.744 10.91M47.368 58.57l.722-6.729M54.832 55.58l-4.486-5.234M58.57 48.543l-6.729-.133"/>
        </g>
    </g>
</svg>
