<svg xmlns="http://www.w3.org/2000/svg" width="82" height="82" viewBox="0 0 82 82">
    <g fill="none" fill-rule="evenodd" stroke="#FFF">
        <path stroke-width="1.5" d="M41 81C18.909 81 1 63.091 1 41S18.909 1 41 1s40 17.909 40 40-17.909 40-40 40z"/>
        <g stroke-linecap="round" stroke-linejoin="round" stroke-width="2">
            <path d="M45.308 52.239c0-2.787 1.775-4.45 3.747-6.347 2.246-2.16 3.65-5.24 3.65-8.663 0-6.651-5.3-12.022-11.768-11.837-6.469-.185-11.77 5.186-11.77 11.837 0 3.423 1.406 6.503 3.65 8.663 1.974 1.898 3.748 3.56 3.748 6.347M44.773 61.736h-1.997l-.998.998h-1.997l-.999-.998h-1.996M35.788 55.746h9.983M35.788 58.74h9.983M27.614 50.823l3.128-3.128M36.156 18.944l1.145 4.272M22.682 32.417l4.273 1.145M59.492 42.281l-4.272-1.145M22.682 42.281l4.273-1.145M27.614 23.876l3.128 3.127M59.492 32.417l-4.272 1.145M54.56 50.823l-3.127-3.128M46.02 18.944l-1.146 4.272M54.56 23.876l-3.127 3.127"/>
        </g>
    </g>
</svg>
