<svg xmlns="http://www.w3.org/2000/svg" xmlns:xlink="http://www.w3.org/1999/xlink" width="95" height="34" viewBox="0 0 95 34">
    <defs>
        <path id="a" d="M0 0h95v41H0z"/>
    </defs>
    <g fill="none" fill-rule="evenodd" transform="translate(0 -7)">
        <mask id="b" fill="#fff">
            <use xlink:href="#a"/>
        </mask>
        <path fill="#FFF" d="M81.892 31.02c-6.585 2.599-15.78 4.387-25.892 5.035L56.328 38c10.595-.678 20.282-2.573 27.277-5.334C90.953 29.766 95 26.029 95 22.146 95 16.162 85.635 10.821 70.395 8c.011.18.022.36.022.542 0 .499-.051.993-.14 1.482 13.19 2.57 21.549 7.215 21.549 12.121 0 3.194-3.528 6.346-9.934 8.874M39 36.005c-8.686-.576-16.661-1.972-23.041-4.082-8.229-2.722-12.761-6.27-12.761-9.991 0-5.443 9.798-10.449 25.087-12.885a8.558 8.558 0 0 1-.054-.9c0-.387.032-.769.084-1.147C11.095 9.616 0 15.45 0 21.932c0 4.488 5.133 8.657 14.453 11.74C21.272 35.925 29.773 37.411 39 38v-1.995z" mask="url(#b)"/>
        <path fill="#FFF" d="M67.606 27.044C63.89 28.516 58.703 29.53 53 29.897L53.185 31c5.976-.385 11.44-1.458 15.387-3.023C72.717 26.333 75 24.217 75 22.016c0-3.39-5.283-6.416-13.88-8.016.006.102.012.204.012.308 0 .282-.028.561-.078.838 7.44 1.457 12.155 4.09 12.155 6.87 0 1.81-1.99 3.595-5.603 5.028M42 30.842c-4.9-.334-9.398-1.145-12.998-2.37-4.642-1.58-7.198-3.641-7.198-5.802 0-3.161 5.527-6.068 14.152-7.482a4.833 4.833 0 0 1-.03-.523c0-.224.017-.445.047-.665C26.258 15.518 20 18.906 20 22.67c0 2.606 2.895 5.027 8.153 6.817C31.999 30.796 36.795 31.657 42 32v-1.158z" mask="url(#b)"/>
        <path stroke="#FFF" stroke-width="2" d="M34 34l5 3.326L34 41" mask="url(#b)"/>
    </g>
</svg>
