<svg xmlns="http://www.w3.org/2000/svg" xmlns:xlink="http://www.w3.org/1999/xlink" width="97" height="97" viewBox="0 0 97 97">
    <defs>
        <path id="a" d="M0 0h60.374v76.355H0z"/>
    </defs>
    <g fill="none" fill-rule="evenodd">
        <path stroke="#FFF" d="M48.5 96C22.266 96 1 74.734 1 48.5S22.266 1 48.5 1 96 22.266 96 48.5 74.734 96 48.5 96z"/>
        <g transform="translate(18.757 10.766)">
            <mask id="b" fill="#fff">
                <use xlink:href="#a"/>
            </mask>
            <path fill="#FFF" stroke="#FFF" stroke-width=".5" d="M59.26 49.31c0 .54-.366.996-.8.996-.433 0-.8-.456-.8-.997v-5.582c0-.54.367-.997.8-.997.434 0 .8.457.8.997v5.582zm-41.348 1.596h5.765v2.48h-5.765v-2.48zM8.216 39.941V28.513h25.158v11.428c0 4.947-4.04 8.972-9.004 8.972H17.22c-4.964 0-9.003-4.025-9.003-8.972zm4.501-29.925h16.155c2.482 0 4.502 2.012 4.502 4.486v1.35h-4.751a.749.749 0 0 0-.75.749c0 .412.335.747.75.747h4.75v4.087h-4.75a.749.749 0 0 0-.75.748c0 .413.335.748.75.748h4.75v4.087H8.217V14.502c0-2.474 2.02-4.486 4.501-4.486zm8.078-6.247a1.89 1.89 0 0 1 1.891 1.885 1.89 1.89 0 0 1-1.891 1.885 1.89 1.89 0 0 1-1.892-1.885 1.89 1.89 0 0 1 1.892-1.885zM59.46 40.934v-5.172c0-3.848-3.141-6.978-7.003-6.978h-1.87c-3.861 0-7.003 3.13-7.003 6.978v26.475c0 4.727-3.859 8.573-8.603 8.573h-4.584c-4.743 0-8.603-3.846-8.603-8.573V55.38h1.882a2 2 0 0 0 2.001-1.994v-2.48c0-.026-.003-.051-.004-.077 5.456-.645 9.7-5.282 9.7-10.888V14.5c0-3.572-2.917-6.479-6.502-6.479h-4.997a3.85 3.85 0 0 0 .812-2.368 3.89 3.89 0 0 0-3.892-3.878 3.89 3.89 0 0 0-3.893 3.878c0 .891.304 1.712.813 2.368h-4.998c-3.585 0-6.502 2.907-6.502 6.48V39.94c0 5.607 4.245 10.243 9.7 10.888 0 .026-.004.051-.004.077v2.48a2 2 0 0 0 2.001 1.994h1.882v6.857c0 5.826 4.758 10.567 10.604 10.567h4.584c5.847 0 10.604-4.74 10.604-10.567V35.762c0-2.748 2.244-4.984 5.002-4.984h1.87c2.758 0 5.002 2.236 5.002 4.984v5.172c-1.052.431-1.8 1.52-1.8 2.793v5.582c0 1.273.748 2.362 1.8 2.793v5.77c0 .55.448.997 1 .997.553 0 1.001-.447 1.001-.997v-5.77c1.052-.431 1.8-1.52 1.8-2.793v-5.582c0-1.273-.748-2.362-1.8-2.793z" mask="url(#b)"/>
        </g>
    </g>
</svg>
