<svg xmlns="http://www.w3.org/2000/svg" xmlns:xlink="http://www.w3.org/1999/xlink" width="82" height="82" viewBox="0 0 82 82">
    <defs>
        <path id="a" d="M0 0h50.841v64.3H0z"/>
    </defs>
    <g fill="none" fill-rule="evenodd">
        <path stroke="#FFF" d="M41 81C18.909 81 1 63.091 1 41S18.909 1 41 1s40 17.909 40 40-17.909 40-40 40z"/>
        <g transform="translate(15.953 9.224)">
            <mask id="b" fill="#fff">
                <use xlink:href="#a"/>
            </mask>
            <path fill="#FFF" stroke="#FFF" stroke-width=".5" d="M49.904 41.524c0 .455-.309.839-.674.839-.365 0-.674-.384-.674-.84v-4.7c0-.455.309-.84.674-.84.365 0 .674.385.674.84v4.7zm-34.82 1.345h4.855v2.087h-4.855V42.87zm-8.166-9.235v-9.623h21.186v9.623c0 4.166-3.4 7.556-7.582 7.556H14.5c-4.18 0-7.582-3.39-7.582-7.556zm3.791-25.2h13.604c2.09 0 3.791 1.695 3.791 3.778v1.138h-4a.63.63 0 1 0 0 1.259h4v3.442h-4a.63.63 0 1 0 0 1.26h4v3.441H6.918v-10.54c0-2.083 1.701-3.778 3.791-3.778zm6.802-5.26c.879 0 1.593.712 1.593 1.588 0 .875-.714 1.587-1.593 1.587a1.592 1.592 0 0 1-1.593-1.587c0-.876.715-1.588 1.593-1.588zm32.561 31.297v-4.356c0-3.24-2.645-5.876-5.897-5.876H42.6c-3.251 0-5.897 2.636-5.897 5.876V52.41c0 3.98-3.25 7.22-7.244 7.22h-3.86c-3.995 0-7.245-3.24-7.245-7.22v-5.775h1.585c.93 0 1.685-.753 1.685-1.679V42.87l-.003-.066c4.593-.543 8.168-4.447 8.168-9.169V12.212c0-3.009-2.456-5.457-5.476-5.457h-4.208a3.242 3.242 0 0 0 .684-1.993 3.276 3.276 0 0 0-3.278-3.267 3.276 3.276 0 0 0-3.277 3.267c0 .75.255 1.441.684 1.993h-4.209c-3.019 0-5.475 2.448-5.475 5.457v21.422c0 4.722 3.574 8.626 8.168 9.17 0 .021-.003.043-.003.065v2.087c0 .926.756 1.68 1.685 1.68h1.585v5.774c0 4.907 4.006 8.898 8.93 8.898h3.86c4.924 0 8.93-3.991 8.93-8.898V30.115c0-2.314 1.889-4.197 4.211-4.197h1.575c2.323 0 4.213 1.883 4.213 4.197v4.356c-.886.363-1.517 1.28-1.517 2.352v4.7c0 1.072.63 1.99 1.517 2.352v4.86c0 .463.377.839.842.839a.841.841 0 0 0 .842-.84v-4.859c.886-.363 1.517-1.28 1.517-2.351v-4.701c0-1.072-.63-1.989-1.517-2.352z" mask="url(#b)"/>
        </g>
    </g>
</svg>
