<svg xmlns="http://www.w3.org/2000/svg" xmlns:xlink="http://www.w3.org/1999/xlink" width="36" height="40" viewBox="0 0 36 40">
    <defs>
        <path id="a" d="M0 .28h35.44V40H0z"/>
    </defs>
    <g fill="none" fill-rule="evenodd">
        <g>
            <mask id="b" fill="#fff">
                <use xlink:href="#a"/>
            </mask>
            <path fill="#D61A7D" d="M17.72 38.181c-8.727 0-15.827-7.046-15.827-15.709s7.1-15.71 15.828-15.71c8.727 0 15.827 7.047 15.827 15.71s-7.1 15.71-15.827 15.71m8.375-31.15l.487-1.122.873.35 1.017-2.339-3.493-1.4-1.017 2.339.874.35-.449 1.032a17.755 17.755 0 0 0-5.265-1.227V3.008h1.458V.28h-5.678v2.728h1.38v2.009a17.72 17.72 0 0 0-5.15 1.196l-.435-1.003.873-.35-1.016-2.34-3.493 1.401 1.016 2.34.873-.35.472 1.084C3.823 9.943 0 15.772 0 22.472 0 32.138 7.95 40 17.72 40c9.771 0 17.72-7.862 17.72-17.528 0-6.67-3.786-12.479-9.344-15.44" mask="url(#b)"/>
        </g>
        <path stroke="#D61A7D" stroke-linecap="round" stroke-linejoin="round" stroke-width="2" d="M17.5 9v13"/>
    </g>
</svg>
