<?xml version="1.0" encoding="UTF-8"?>
<svg width="40px" height="40px" viewBox="0 0 40 40" version="1.1" xmlns="http://www.w3.org/2000/svg" xmlns:xlink="http://www.w3.org/1999/xlink">
    <!-- Generator: sketchtool 57.1 (101010) - https://sketch.com -->
    <title>1261AF63-C45A-4382-AA4F-C9A78FC8609E</title>
    <desc>Created with sketchtool.</desc>
    <g id="Prototype-2" stroke="none" stroke-width="1" fill="none" fill-rule="evenodd">
        <g id="3_2.6-Gout-Specialists" transform="translate(-929.000000, -763.000000)" fill="#979797" fill-rule="nonzero">
            <g id="Group-2" transform="translate(-63.000000, 569.000000)">
                <g id="Group" transform="translate(465.000000, 175.000000)">
                    <g id="search" transform="translate(527.555556, 19.444444)">
                        <path d="M38.6211611,36.5780751 L28.8234624,26.7803764 C28.6487747,26.6056887 28.4209213,26.5145474 28.1778776,26.5145474 L27.3955807,26.5145474 C30.0007053,23.6967596 31.5956795,19.9371775 31.5956795,15.7978397 C31.5956795,7.0710523 24.5246272,0 15.7978397,0 C7.0710523,0 0,7.0710523 0,15.7978397 C0,24.5246272 7.0710523,31.5956795 15.7978397,31.5956795 C19.9371775,31.5956795 23.6967596,30.0007053 26.5145474,27.4031758 L26.5145474,28.1778776 C26.5145474,28.4209213 26.6132839,28.6487747 26.7803764,28.8234624 L36.5780751,38.6211611 C36.9350455,38.9781315 37.5122742,38.9781315 37.8692447,38.6211611 L38.6211611,37.8692447 C38.9781315,37.5122742 38.9781315,36.9350455 38.6211611,36.5780751 Z M15.7978397,29.1652426 C8.40779259,29.1652426 2.43043688,23.1878869 2.43043688,15.7978397 C2.43043688,8.40779259 8.40779259,2.43043688 15.7978397,2.43043688 C23.1878869,2.43043688 29.1652426,8.40779259 29.1652426,15.7978397 C29.1652426,23.1878869 23.1878869,29.1652426 15.7978397,29.1652426 Z" id="Shape"></path>
                    </g>
                </g>
            </g>
        </g>
    </g>
</svg>