<svg xmlns="http://www.w3.org/2000/svg" width="13.62" height="27.12" viewBox="0 0 13.62 27.12">
  <path id="Path_178" data-name="Path 178" d="M-525.479,584.082h-3.17V579.5h3.13c.009-.168.022-.29.022-.413,0-1.03-.019-2.061.009-3.09a6.879,6.879,0,0,1,.568-2.692,4.445,4.445,0,0,1,3.272-2.537,12.77,12.77,0,0,1,2.329-.285c1.271-.046,2.545-.013,3.819-.013h.462c.016,1.546.005,3.059.007,4.6-.2.015-.336.032-.47.033-.8,0-1.6,0-2.4.011a3.272,3.272,0,0,0-.684.093,1.1,1.1,0,0,0-.934,1.068c-.041,1.05-.012,2.1-.012,3.2h4.481l-.535,4.584h-3.949v13.518h-5.949Z" transform="translate(528.649 -570.463)" fill="#fff"/>
</svg>
