<svg xmlns="http://www.w3.org/2000/svg" width="7.426" height="13.688" viewBox="0 0 7.426 13.688">
  <path id="Path_1680" data-name="Path 1680" d="M-527.166,576.835h-1.483v-2.142h1.465c0-.078.01-.136.01-.193,0-.482-.009-.964,0-1.446a3.217,3.217,0,0,1,.266-1.26,2.08,2.08,0,0,1,1.531-1.187,5.979,5.979,0,0,1,1.09-.133c.595-.021,1.191-.006,1.787-.006h.216c.008.723,0,1.431,0,2.152-.094.007-.157.015-.22.015-.374,0-.747,0-1.121.005a1.529,1.529,0,0,0-.32.043.516.516,0,0,0-.437.5c-.019.491-.006.983-.006,1.5h2.1l-.25,2.144h-1.848v6.324h-2.783Z" transform="translate(529.149 -569.964)" fill="none" stroke="#000" stroke-width="1"/>
</svg>
