<svg xmlns="http://www.w3.org/2000/svg" width="18.59" height="19.631" viewBox="0 0 18.59 19.631">
  <g id="Group_3018" data-name="Group 3018" transform="translate(22786 1562)">
    <g id="Path_1618" data-name="Path 1618" transform="translate(-22786 -1562)" fill="none">
      <path d="M7.5,0A7.5,7.5,0,1,1,0,7.5,7.5,7.5,0,0,1,7.5,0Z" stroke="none"/>
      <path d="M 7.5 2 C 4.467289924621582 2 2 4.467289924621582 2 7.5 C 2 10.53271007537842 4.467289924621582 13 7.5 13 C 10.53271007537842 13 13 10.53271007537842 13 7.5 C 13 4.467289924621582 10.53271007537842 2 7.5 2 M 7.5 0 C 11.64213943481445 0 15 3.35785961151123 15 7.5 C 15 11.64213943481445 11.64213943481445 15 7.5 15 C 3.35785961151123 15 0 11.64213943481445 0 7.5 C 0 3.35785961151123 3.35785961151123 0 7.5 0 Z" stroke="none" fill="#a5cf4f"/>
    </g>
    <line id="Line_262" data-name="Line 262" x2="5.41" y2="5.41" transform="translate(-22774.234 -1549.193)" fill="none" stroke="#a5cf4f" stroke-linecap="round" stroke-width="2"/>
  </g>
</svg>
